<?xml version="1.0" encoding="UTF-8" standalone="no"?>
<svg
   xmlns:dc="http://purl.org/dc/elements/1.1/"
   xmlns:cc="http://creativecommons.org/ns#"
   xmlns:rdf="http://www.w3.org/1999/02/22-rdf-syntax-ns#"
   xmlns:svg="http://www.w3.org/2000/svg"
   xmlns="http://www.w3.org/2000/svg"
   xmlns:sodipodi="http://sodipodi.sourceforge.net/DTD/sodipodi-0.dtd"
   xmlns:inkscape="http://www.inkscape.org/namespaces/inkscape"
   width="123.56728mm"
   height="8.6042299mm"
   version="1.1"
   viewBox="0 0 123564.26 8604.1412"
   xml:space="preserve"
   id="svg6210"
   inkscape:version="0.91 r13725"
   sodipodi:docname="certificate2.svg"
   style="clip-rule:evenodd;fill-rule:evenodd;image-rendering:optimizeQuality;shape-rendering:geometricPrecision;text-rendering:geometricPrecision"><metadata
     id="metadata7060"><rdf:RDF><cc:Work
         rdf:about=""><dc:format>image/svg+xml</dc:format><dc:type
           rdf:resource="http://purl.org/dc/dcmitype/StillImage" /><dc:title></dc:title></cc:Work></rdf:RDF></metadata><sodipodi:namedview
     pagecolor="#ffffff"
     bordercolor="#666666"
     borderopacity="1"
     objecttolerance="10"
     gridtolerance="10"
     guidetolerance="10"
     inkscape:pageopacity="1"
     inkscape:pageshadow="2"
     inkscape:window-width="1920"
     inkscape:window-height="1047"
     id="namedview7058"
     showgrid="false"
     inkscape:zoom="11.344827"
     inkscape:cx="210.36512"
     inkscape:cy="-4.5098604"
     inkscape:window-x="0"
     inkscape:window-y="120"
     inkscape:window-maximized="1"
     inkscape:current-layer="svg6210"
     fit-margin-top="0"
     fit-margin-left="0"
     fit-margin-right="0"
     fit-margin-bottom="0"
     inkscape:showpageshadow="true" /><defs
     id="defs6212"><style
       type="text/css"
       id="style6214"><![CDATA[
    .str0 {stroke:#8DC5D8;stroke-width:76.2}
    .str1 {stroke:#92B03C;stroke-width:76.2}
    .fil1 {fill:none}
    .fil0 {fill:#FBFBFB}
    .fil2 {fill:#F6F1D4}
   ]]></style><filter
       style="color-interpolation-filters:sRGB"
       inkscape:label="Channel Painting"
       id="filter9322"><feColorMatrix
         values="1"
         type="saturate"
         result="colormatrix1"
         id="feColorMatrix9324" /><feColorMatrix
         values="1 0 0 0 0 0 1 0 0 0 0 0 1 0 0 -5.13 -1.53 7.35 1 0 "
         in="SourceGraphic"
         result="colormatrix2"
         id="feColorMatrix9326" /><feFlood
         flood-color="rgb(185,229,243)"
         flood-opacity="1"
         result="flood"
         id="feFlood9328" /><feComposite
         in2="colormatrix2"
         operator="out"
         result="composite1"
         id="feComposite9330" /><feMerge
         result="merge"
         id="feMerge9332"><feMergeNode
           in="colormatrix1"
           id="feMergeNode9334" /><feMergeNode
           in="composite1"
           id="feMergeNode9336" /></feMerge><feComposite
         in="merge"
         in2="SourceGraphic"
         operator="in"
         result="composite2"
         id="feComposite9338" /></filter><filter
       style="color-interpolation-filters:sRGB"
       inkscape:label="Channel Painting"
       id="filter9340"><feColorMatrix
         values="1"
         type="saturate"
         result="colormatrix1"
         id="feColorMatrix9342" /><feColorMatrix
         values="1 0 0 0 0 0 1 0 0 0 0 0 1 0 0 -5.13 -1.53 7.35 1 0 "
         in="SourceGraphic"
         result="colormatrix2"
         id="feColorMatrix9344" /><feFlood
         flood-color="rgb(185,229,243)"
         flood-opacity="1"
         result="flood"
         id="feFlood9346" /><feComposite
         in2="colormatrix2"
         operator="out"
         result="composite1"
         id="feComposite9348" /><feMerge
         result="merge"
         id="feMerge9350"><feMergeNode
           in="colormatrix1"
           id="feMergeNode9352" /><feMergeNode
           in="composite1"
           id="feMergeNode9354" /></feMerge><feComposite
         in="merge"
         in2="SourceGraphic"
         operator="in"
         result="composite2"
         id="feComposite9356" /></filter><filter
       style="color-interpolation-filters:sRGB"
       inkscape:label="Channel Painting"
       id="filter9358"><feColorMatrix
         values="1"
         type="saturate"
         result="colormatrix1"
         id="feColorMatrix9360" /><feColorMatrix
         values="1 0 0 0 0 0 1 0 0 0 0 0 1 0 0 -5.13 -1.53 7.35 1 0 "
         in="SourceGraphic"
         result="colormatrix2"
         id="feColorMatrix9362" /><feFlood
         flood-color="rgb(185,229,243)"
         flood-opacity="1"
         result="flood"
         id="feFlood9364" /><feComposite
         in2="colormatrix2"
         operator="out"
         result="composite1"
         id="feComposite9366" /><feMerge
         result="merge"
         id="feMerge9368"><feMergeNode
           in="colormatrix1"
           id="feMergeNode9370" /><feMergeNode
           in="composite1"
           id="feMergeNode9372" /></feMerge><feComposite
         in="merge"
         in2="SourceGraphic"
         operator="in"
         result="composite2"
         id="feComposite9374" /></filter><filter
       style="color-interpolation-filters:sRGB"
       inkscape:label="Channel Painting"
       id="filter9376"><feColorMatrix
         values="1"
         type="saturate"
         result="colormatrix1"
         id="feColorMatrix9378" /><feColorMatrix
         values="1 0 0 0 0 0 1 0 0 0 0 0 1 0 0 -5.13 -1.53 7.35 1 0 "
         in="SourceGraphic"
         result="colormatrix2"
         id="feColorMatrix9380" /><feFlood
         flood-color="rgb(185,229,243)"
         flood-opacity="1"
         result="flood"
         id="feFlood9382" /><feComposite
         in2="colormatrix2"
         operator="out"
         result="composite1"
         id="feComposite9384" /><feMerge
         result="merge"
         id="feMerge9386"><feMergeNode
           in="colormatrix1"
           id="feMergeNode9388" /><feMergeNode
           in="composite1"
           id="feMergeNode9390" /></feMerge><feComposite
         in="merge"
         in2="SourceGraphic"
         operator="in"
         result="composite2"
         id="feComposite9392" /></filter><filter
       style="color-interpolation-filters:sRGB"
       inkscape:label="Channel Painting"
       id="filter9394"><feColorMatrix
         values="1"
         type="saturate"
         result="colormatrix1"
         id="feColorMatrix9396" /><feColorMatrix
         values="1 0 0 0 0 0 1 0 0 0 0 0 1 0 0 -5.13 -1.53 7.35 1 0 "
         in="SourceGraphic"
         result="colormatrix2"
         id="feColorMatrix9398" /><feFlood
         flood-color="rgb(185,229,243)"
         flood-opacity="1"
         result="flood"
         id="feFlood9400" /><feComposite
         in2="colormatrix2"
         operator="out"
         result="composite1"
         id="feComposite9402" /><feMerge
         result="merge"
         id="feMerge9404"><feMergeNode
           in="colormatrix1"
           id="feMergeNode9406" /><feMergeNode
           in="composite1"
           id="feMergeNode9408" /></feMerge><feComposite
         in="merge"
         in2="SourceGraphic"
         operator="in"
         result="composite2"
         id="feComposite9410" /></filter><filter
       style="color-interpolation-filters:sRGB"
       inkscape:label="Channel Painting"
       id="filter9412"><feColorMatrix
         values="1"
         type="saturate"
         result="colormatrix1"
         id="feColorMatrix9414" /><feColorMatrix
         values="1 0 0 0 0 0 1 0 0 0 0 0 1 0 0 -5.13 -1.53 7.35 1 0 "
         in="SourceGraphic"
         result="colormatrix2"
         id="feColorMatrix9416" /><feFlood
         flood-color="rgb(185,229,243)"
         flood-opacity="1"
         result="flood"
         id="feFlood9418" /><feComposite
         in2="colormatrix2"
         operator="out"
         result="composite1"
         id="feComposite9420" /><feMerge
         result="merge"
         id="feMerge9422"><feMergeNode
           in="colormatrix1"
           id="feMergeNode9424" /><feMergeNode
           in="composite1"
           id="feMergeNode9426" /></feMerge><feComposite
         in="merge"
         in2="SourceGraphic"
         operator="in"
         result="composite2"
         id="feComposite9428" /></filter><filter
       style="color-interpolation-filters:sRGB"
       inkscape:label="Channel Painting"
       id="filter9430"><feColorMatrix
         values="1"
         type="saturate"
         result="colormatrix1"
         id="feColorMatrix9432" /><feColorMatrix
         values="1 0 0 0 0 0 1 0 0 0 0 0 1 0 0 -5.13 -1.53 7.35 1 0 "
         in="SourceGraphic"
         result="colormatrix2"
         id="feColorMatrix9434" /><feFlood
         flood-color="rgb(185,229,243)"
         flood-opacity="1"
         result="flood"
         id="feFlood9436" /><feComposite
         in2="colormatrix2"
         operator="out"
         result="composite1"
         id="feComposite9438" /><feMerge
         result="merge"
         id="feMerge9440"><feMergeNode
           in="colormatrix1"
           id="feMergeNode9442" /><feMergeNode
           in="composite1"
           id="feMergeNode9444" /></feMerge><feComposite
         in="merge"
         in2="SourceGraphic"
         operator="in"
         result="composite2"
         id="feComposite9446" /></filter><filter
       style="color-interpolation-filters:sRGB"
       inkscape:label="Channel Painting"
       id="filter9466"><feColorMatrix
         values="1"
         type="saturate"
         result="colormatrix1"
         id="feColorMatrix9468" /><feColorMatrix
         values="1 0 0 0 0 0 1 0 0 0 0 0 1 0 0 -5.13 -1.53 7.35 1 0 "
         in="SourceGraphic"
         result="colormatrix2"
         id="feColorMatrix9470" /><feFlood
         flood-color="rgb(185,229,243)"
         flood-opacity="1"
         result="flood"
         id="feFlood9472" /><feComposite
         in2="colormatrix2"
         operator="out"
         result="composite1"
         id="feComposite9474" /><feMerge
         result="merge"
         id="feMerge9476"><feMergeNode
           in="colormatrix1"
           id="feMergeNode9478" /><feMergeNode
           in="composite1"
           id="feMergeNode9480" /></feMerge><feComposite
         in="merge"
         in2="SourceGraphic"
         operator="in"
         result="composite2"
         id="feComposite9482" /></filter><filter
       style="color-interpolation-filters:sRGB"
       inkscape:label="Channel Painting"
       id="filter9484"><feColorMatrix
         values="1"
         type="saturate"
         result="colormatrix1"
         id="feColorMatrix9486" /><feColorMatrix
         values="1 0 0 0 0 0 1 0 0 0 0 0 1 0 0 -5.13 -1.53 7.35 1 0 "
         in="SourceGraphic"
         result="colormatrix2"
         id="feColorMatrix9488" /><feFlood
         flood-color="rgb(185,229,243)"
         flood-opacity="1"
         result="flood"
         id="feFlood9490" /><feComposite
         in2="colormatrix2"
         operator="out"
         result="composite1"
         id="feComposite9492" /><feMerge
         result="merge"
         id="feMerge9494"><feMergeNode
           in="colormatrix1"
           id="feMergeNode9496" /><feMergeNode
           in="composite1"
           id="feMergeNode9498" /></feMerge><feComposite
         in="merge"
         in2="SourceGraphic"
         operator="in"
         result="composite2"
         id="feComposite9500" /></filter><filter
       style="color-interpolation-filters:sRGB"
       inkscape:label="Channel Painting"
       id="filter9502"><feColorMatrix
         values="1"
         type="saturate"
         result="colormatrix1"
         id="feColorMatrix9504" /><feColorMatrix
         values="1 0 0 0 0 0 1 0 0 0 0 0 1 0 0 -5.13 -1.53 7.35 1 0 "
         in="SourceGraphic"
         result="colormatrix2"
         id="feColorMatrix9506" /><feFlood
         flood-color="rgb(185,229,243)"
         flood-opacity="1"
         result="flood"
         id="feFlood9508" /><feComposite
         in2="colormatrix2"
         operator="out"
         result="composite1"
         id="feComposite9510" /><feMerge
         result="merge"
         id="feMerge9512"><feMergeNode
           in="colormatrix1"
           id="feMergeNode9514" /><feMergeNode
           in="composite1"
           id="feMergeNode9516" /></feMerge><feComposite
         in="merge"
         in2="SourceGraphic"
         operator="in"
         result="composite2"
         id="feComposite9518" /></filter><filter
       style="color-interpolation-filters:sRGB"
       inkscape:label="Channel Painting"
       id="filter9520"><feColorMatrix
         values="1"
         type="saturate"
         result="colormatrix1"
         id="feColorMatrix9522" /><feColorMatrix
         values="1 0 0 0 0 0 1 0 0 0 0 0 1 0 0 -5.13 -1.53 7.35 1 0 "
         in="SourceGraphic"
         result="colormatrix2"
         id="feColorMatrix9524" /><feFlood
         flood-color="rgb(185,229,243)"
         flood-opacity="1"
         result="flood"
         id="feFlood9526" /><feComposite
         in2="colormatrix2"
         operator="out"
         result="composite1"
         id="feComposite9528" /><feMerge
         result="merge"
         id="feMerge9530"><feMergeNode
           in="colormatrix1"
           id="feMergeNode9532" /><feMergeNode
           in="composite1"
           id="feMergeNode9534" /></feMerge><feComposite
         in="merge"
         in2="SourceGraphic"
         operator="in"
         result="composite2"
         id="feComposite9536" /></filter><filter
       style="color-interpolation-filters:sRGB"
       inkscape:label="Channel Painting"
       id="filter9538"><feColorMatrix
         values="1"
         type="saturate"
         result="colormatrix1"
         id="feColorMatrix9540" /><feColorMatrix
         values="1 0 0 0 0 0 1 0 0 0 0 0 1 0 0 -5.13 -1.53 7.35 1 0 "
         in="SourceGraphic"
         result="colormatrix2"
         id="feColorMatrix9542" /><feFlood
         flood-color="rgb(185,229,243)"
         flood-opacity="1"
         result="flood"
         id="feFlood9544" /><feComposite
         in2="colormatrix2"
         operator="out"
         result="composite1"
         id="feComposite9546" /><feMerge
         result="merge"
         id="feMerge9548"><feMergeNode
           in="colormatrix1"
           id="feMergeNode9550" /><feMergeNode
           in="composite1"
           id="feMergeNode9552" /></feMerge><feComposite
         in="merge"
         in2="SourceGraphic"
         operator="in"
         result="composite2"
         id="feComposite9554" /></filter><filter
       style="color-interpolation-filters:sRGB"
       inkscape:label="Channel Painting"
       id="filter9556"><feColorMatrix
         values="1"
         type="saturate"
         result="colormatrix1"
         id="feColorMatrix9558" /><feColorMatrix
         values="1 0 0 0 0 0 1 0 0 0 0 0 1 0 0 -5.13 -1.53 7.35 1 0 "
         in="SourceGraphic"
         result="colormatrix2"
         id="feColorMatrix9560" /><feFlood
         flood-color="rgb(185,229,243)"
         flood-opacity="1"
         result="flood"
         id="feFlood9562" /><feComposite
         in2="colormatrix2"
         operator="out"
         result="composite1"
         id="feComposite9564" /><feMerge
         result="merge"
         id="feMerge9566"><feMergeNode
           in="colormatrix1"
           id="feMergeNode9568" /><feMergeNode
           in="composite1"
           id="feMergeNode9570" /></feMerge><feComposite
         in="merge"
         in2="SourceGraphic"
         operator="in"
         result="composite2"
         id="feComposite9572" /></filter><filter
       style="color-interpolation-filters:sRGB"
       inkscape:label="Channel Painting"
       id="filter9574"><feColorMatrix
         values="1"
         type="saturate"
         result="colormatrix1"
         id="feColorMatrix9576" /><feColorMatrix
         values="1 0 0 0 0 0 1 0 0 0 0 0 1 0 0 -5.13 -1.53 7.35 1 0 "
         in="SourceGraphic"
         result="colormatrix2"
         id="feColorMatrix9578" /><feFlood
         flood-color="rgb(185,229,243)"
         flood-opacity="1"
         result="flood"
         id="feFlood9580" /><feComposite
         in2="colormatrix2"
         operator="out"
         result="composite1"
         id="feComposite9582" /><feMerge
         result="merge"
         id="feMerge9584"><feMergeNode
           in="colormatrix1"
           id="feMergeNode9586" /><feMergeNode
           in="composite1"
           id="feMergeNode9588" /></feMerge><feComposite
         in="merge"
         in2="SourceGraphic"
         operator="in"
         result="composite2"
         id="feComposite9590" /></filter><filter
       style="color-interpolation-filters:sRGB"
       inkscape:label="Channel Painting"
       id="filter9592"><feColorMatrix
         values="1"
         type="saturate"
         result="colormatrix1"
         id="feColorMatrix9594" /><feColorMatrix
         values="1 0 0 0 0 0 1 0 0 0 0 0 1 0 0 -5.13 -1.53 7.35 1 0 "
         in="SourceGraphic"
         result="colormatrix2"
         id="feColorMatrix9596" /><feFlood
         flood-color="rgb(185,229,243)"
         flood-opacity="1"
         result="flood"
         id="feFlood9598" /><feComposite
         in2="colormatrix2"
         operator="out"
         result="composite1"
         id="feComposite9600" /><feMerge
         result="merge"
         id="feMerge9602"><feMergeNode
           in="colormatrix1"
           id="feMergeNode9604" /><feMergeNode
           in="composite1"
           id="feMergeNode9606" /></feMerge><feComposite
         in="merge"
         in2="SourceGraphic"
         operator="in"
         result="composite2"
         id="feComposite9608" /></filter><filter
       style="color-interpolation-filters:sRGB"
       inkscape:label="Channel Painting"
       id="filter9610"><feColorMatrix
         values="1"
         type="saturate"
         result="colormatrix1"
         id="feColorMatrix9612" /><feColorMatrix
         values="1 0 0 0 0 0 1 0 0 0 0 0 1 0 0 -5.13 -1.53 7.35 1 0 "
         in="SourceGraphic"
         result="colormatrix2"
         id="feColorMatrix9614" /><feFlood
         flood-color="rgb(185,229,243)"
         flood-opacity="1"
         result="flood"
         id="feFlood9616" /><feComposite
         in2="colormatrix2"
         operator="out"
         result="composite1"
         id="feComposite9618" /><feMerge
         result="merge"
         id="feMerge9620"><feMergeNode
           in="colormatrix1"
           id="feMergeNode9622" /><feMergeNode
           in="composite1"
           id="feMergeNode9624" /></feMerge><feComposite
         in="merge"
         in2="SourceGraphic"
         operator="in"
         result="composite2"
         id="feComposite9626" /></filter><filter
       style="color-interpolation-filters:sRGB"
       inkscape:label="Channel Painting"
       id="filter9628"><feColorMatrix
         values="1"
         type="saturate"
         result="colormatrix1"
         id="feColorMatrix9630" /><feColorMatrix
         values="1 0 0 0 0 0 1 0 0 0 0 0 1 0 0 -5.13 -1.53 7.35 1 0 "
         in="SourceGraphic"
         result="colormatrix2"
         id="feColorMatrix9632" /><feFlood
         flood-color="rgb(185,229,243)"
         flood-opacity="1"
         result="flood"
         id="feFlood9634" /><feComposite
         in2="colormatrix2"
         operator="out"
         result="composite1"
         id="feComposite9636" /><feMerge
         result="merge"
         id="feMerge9638"><feMergeNode
           in="colormatrix1"
           id="feMergeNode9640" /><feMergeNode
           in="composite1"
           id="feMergeNode9642" /></feMerge><feComposite
         in="merge"
         in2="SourceGraphic"
         operator="in"
         result="composite2"
         id="feComposite9644" /></filter></defs><path
     class="fil1 str1"
     d="m 113268.13,6142.5539 c -343,609.9998 -889,1671.9998 -1758,1432.9998 -442,-122 -755,-500 -1123,-749 -258,-174 -493,-235 -794,-136 -328,109 -614,315 -953,399 -424,105 -813,11 -1174,-228 -550,-364.9998 -928,-931.9998 -1357,-1420.9998 -225,-256 -562,-654 -949,-533 -238,74 -423,295 -572,483 -390,492 -682,1056 -1076,1546.9998 -247,306 -676,799 -1120,565 -283,-149 -459,-495 -587,-773 -299,-650.9998 -474,-1365.9998 -659,-2055.9998 -190,-709 -358,-1438 -631,-2121 -147,-369 -446,-1091 -968.008,-945 -283,79 -515,354 -692,573 -437,541 -761,1164 -1172,1724 -211,288 -591,818 -1016,646 -245,-99 -423,-368 -561,-580 -509,-783 -840,-1693 -1473,-2394 -360,-400 -810,-675.99998 -1353,-474 -399,149 -681,489 -1062,663 -354,162 -640,18 -962,-143 -191,-95 -382,-197 -591,-250 -935,-238 -1584,614 -2056,1286 -206,293 -395,599 -611,884 -216,285 -536,694 -945,557 -248,-83 -448,-311 -611,-505 -407,-482 -724,-1035 -1146,-1506 -265,-296 -695,-720 -1118,-450 -271,172 -435,517 -559,800 -278,634 -448,1321 -634,1986 -185,659 -356,1341 -643,1964 -176,381.9998 -489,964.9998 -1003,819.9998 -275,-77 -505,-316 -690,-522 -331,-370.9998 -599,-793.9998 -903,-1186.9998 -261,-338 -678,-908 -1175,-683 -231,105 -413,322 -573,511 -627,742 -1341,2004.9998 -2495,1778.9998 -347,-68 -638,-264 -968,-373 -297,-98 -530,-52 -786,125 -365,251 -658,634 -1090,779 -714,240 -1237,-447 -1569,-976 -394,-627.9998 -670,-1317.9998 -1013,-1972.9998 -147,-281 -311,-606 -555,-817 -270,-233 -536,-160 -786,60 -269,237 -475,558 -672,853 -317,476 -602,980 -963,1424 -248,305.9998 -682,793.9998 -1104,474.9998 -268,-202.9998 -421,-583.9998 -540,-885.9998 -268,-683 -437,-1406 -633,-2112 -149,-533 -296,-1070 -499,-1585 -180,-459 -565,-1403.99997 -1224,-1146.99998 -175,68.99998 -322,199.99998 -452,331.99998 -498,509 -805,1173 -1260,1717 -144,173 -325,368 -553,422 -376,90 -717,-279 -953,-516 -573,-575 -1203,-1370 -2108,-1297 -453,37 -805,300 -1221,441 -308,105 -552,57 -814,-131 -385,-276 -675,-691 -1112,-896 -415,-195.99998 -785,-74.99998 -1101,241 -372,372 -617,885 -834,1358 -258,560 -468,1142 -735,1697 -136,285 -294,616 -539,825 -490,418 -986,-196 -1272,-556 -421,-529 -764,-1125 -1219,-1627 -270,-296 -682,-678 -1081,-355 -255,207 -408,561 -532,855 -451,1073 -672,2243 -1200,3284.9998 -239,472 -650,1125 -1273,874 -345,-139 -618,-468 -853,-743 -238,-280 -459,-598.9998 -747,-830.9998 -55,-44 -113,-85 -174,-118 -475,-257 -928,149 -1310,395 -436,279.9998 -890,509.9998 -1424,442.9998 -516,-65 -921,-375.9998 -1360,-623.9998 -120,-68 -244,-136 -378,-173 -556,-155 -920,408 -1209,786.9998 -63,83 -124,167 -188,249 -326,419 -882,1152 -1489,775 -286,-178 -479,-503 -631,-793 -402,-766.9998 -637,-1623.9998 -909,-2442.9998 -149,-446 -294,-905 -508,-1325 -141,-278 -383,-702 -758,-632 -275,52 -504,321 -672,525 -544,663 -912,1456 -1458,2117 -255,308 -654,721 -1053,375 -253,-220 -406,-583 -535,-885 -397,-931 -649,-1922 -1093,-2834 -268,-551 -769,-1450.99997 -1513,-1075.99998 -325,164 -574,480.99998 -801,755.99998 -208,251 -412,546 -685,732 -366,249 -701,91 -1055,-91 -437,-224 -862,-457 -1372,-412 -645,56 -1124,505 -1616,874 -265,198 -582,428 -928,302 -217,-80 -392,-263 -543,-432 -352,-394 -633,-855 -1026,-1212 -131,-119 -277,-235 -445,-297 -638,-236.99998 -1034,516 -1250,985 -498,1088 -702,2286 -1161,3389 -123,294 -276,650 -536,851 -405,313.9998 -824,-84 -1093,-380 -529,-585 -896,-1305 -1437,-1878 -206,-218 -507,-492 -832,-365 -249,97 -423,369 -555,587 -212,352 -378,734 -552,1106 -129,273 -261,545 -395,816"
     id="path6984"
     style="fill:none;stroke:#92b03c;stroke-width:76.19999695;filter:url(#filter9628)"
     inkscape:connector-curvature="0"
     transform="matrix(1.1976488,0,0,1.102802,-12215.056,-483.47843)" /><path
     class="fil1 str1"
     d="m 113268.13,7503.5537 c -74,43 -142,96 -220,130 -677,294 -1227,-439 -1642,-856 -150,-151 -310,-310.9998 -504,-403.9998 -443,-213 -871,115 -1262,293.9998 -292,133 -595,231 -920,210 -770,-48 -1300,-664.9998 -1860,-1114.9998 -166,-133 -356,-283 -572,-320 -488,-84 -855,512 -1091,847 -136,193 -266,390.9998 -405,581.9998 -322,443 -923,1267 -1531,754 -280,-235 -453,-609 -594,-938 -498,-1167.9998 -699,-2440.9998 -1162,-3620.9998 -119,-304 -271,-685 -535,-895 -520,-413 -1082.008,418 -1335.008,774 -338,476 -625,987 -966,1460 -178,247 -389,543 -663,692 -570,309 -944,-524 -1135,-918 -400,-828 -689,-1720 -1187,-2499 -286,-449 -733,-1000.99997 -1335,-825.99998 -459,134 -781,577.99998 -1124,883.99998 -232,208 -469,361 -793,301 -331,-60 -631,-265 -953,-362 -148,-44 -299,-75 -454,-78 -1018,-19 -1620,997 -2278,1612 -200,187 -455,394 -749,331 -323,-68 -579,-400 -773,-643 -297,-373 -556,-777 -874,-1133 -265,-295 -688,-714 -1120,-494 -278,141 -456,461 -587,729 -298,606 -475,1279 -660,1927 -191,666 -360,1351 -630,1991 -158,373 -455,1025.9998 -968,908.9998 -277,-64 -510,-307 -692,-509.9998 -434,-482 -760,-1051 -1172,-1551 -232,-281 -603,-719 -1016,-543 -240,102 -418,351 -561,558 -292,420 -525,879 -802,1309 -391,605.9998 -979,1443.9998 -1813,1292.9998 -421,-77 -732,-376 -1116,-534 -283,-115 -514,-70 -777,71 -309,166 -585,398 -934,480 -827,197 -1430,-595 -1838,-1192.9998 -289,-425 -532,-881 -829,-1301 -207,-292 -530,-734 -945,-556 -254,108 -450,370 -610,584 -406,543 -720,1152 -1146,1679.9998 -247,306 -684,805 -1118,521 -277,-181 -439,-551 -560,-843.9998 -280,-678 -447,-1407 -633,-2115 -185,-702 -355,-1427 -644,-2094 -164,-381 -479,-1031 -1002,-857 -282,94 -510,363 -690,586 -411,512 -716,1100 -1114,1621 -219,287 -555,702 -965,525 -235,-102 -419,-338 -573,-534 -437,-556 -789,-1192 -1324,-1666 -267,-236 -582,-426 -947,-443 -450,-20 -804,239 -1191,423 -271,128 -506,171 -786,41 -447,-208 -789,-634 -1305,-690 -471,-52 -847,255 -1132,594 -607,720 -918,1630 -1421,2416 -204,318 -514,750 -949,566 -262,-111 -472,-366 -647,-582 -417,-514 -751,-1096 -1194,-1589 -267,-296 -693,-706 -1104,-403 -263,194 -419,550 -540,842 -266,639 -438,1320 -634,1982 -148,499 -296,1003 -499,1483 -195,464.9998 -577,1303.9998 -1224,1082.9998 -171,-58 -319,-175 -451,-295 -488,-446 -801,-1047.9998 -1260,-1516.9998 -109,-111 -230,-220 -372,-287 -519,-243 -1009,349 -1347,660 -466,428 -987,868.9998 -1659,844.9998 -475,-16 -850,-271 -1280,-432.9998 -307,-115 -560,-112 -831,87.9998 -467,345 -746,924 -1272,1200 -304,159 -604,136 -879,-71 -397,-298 -652,-808 -858,-1245.9998 -351,-742 -596,-1528 -933,-2275 -134,-297 -289,-650 -539,-869 -503,-438 -1013,296 -1273,659 -421,587 -760,1239 -1218,1799 -251,306 -672,766 -1081,427 -261,-216 -411,-594 -532,-900 -457,-1150 -672,-2393 -1200,-3516 -222,-472 -637,-1225.99997 -1273,-937.99998 -79,36 -152,85 -221,137 -579,441.99998 -870,1166.99998 -1380,1673.99998 -100,100 -213,194 -346,246 -414,160 -829,-218 -1138,-443 -499,-363 -1021,-705 -1668,-615 -493,69 -874,367 -1309,575 -304,145 -574,188 -868,-6 -279,-183 -493,-470 -714,-715 -354,-397 -900,-1015.99997 -1488,-680.99998 -396,225.99998 -643,719.99998 -828,1114.99998 -419,896 -656,1863 -1049,2768 -127,293 -280,642 -532,851 -499,412 -1029,-266 -1309,-621 -419,-530 -761,-1128 -1219,-1625 -130,-141 -276,-287 -450,-374 -592,-299 -946,490 -1137,911 -392,864 -646,1790 -1094,2628.9998 -120,225 -253,444 -416,640 -67,80 -144,150 -217,225"
     id="path6986"
     style="fill:none;stroke:#92b03c;stroke-width:76.19999695;filter:url(#filter9610)"
     inkscape:connector-curvature="0"
     transform="matrix(1.1976488,0,0,1.102802,-12215.056,-483.47843)" /><path
     class="fil1 str1"
     d="m 113268.13,7503.5537 c -72,-62 -148,-120 -217,-184 -364,-337 -639,-753 -986,-1104.9998 -105,-107 -218,-212 -351,-284 -475,-257 -928,149 -1310,395 -436,279.9998 -890,509.9998 -1424,442.9998 -517,-64 -921,-375.9998 -1359,-624.9998 -120,-69 -244,-137 -377,-175 -556,-155 -922,411 -1211,789.9998 -347,455 -985,1454 -1677,1024 -285,-178 -479,-503 -631,-793 -402,-766.9998 -637,-1623.9998 -909,-2442.9998 -149,-446 -294,-905 -508,-1325 -141,-277 -383,-703 -758,-632 -275,52 -504,321 -672,525 -460,560 -800,1213 -1221.008,1803 -257,359 -784,1127 -1290,689 -253,-220 -406,-583 -534,-885 -398,-931 -650,-1922 -1094,-2834 -268,-551 -769,-1450.99997 -1513,-1075.99998 -325,164 -574,480.99998 -801,755.99998 -208,251 -412,546 -684,732 -367,249 -702,91 -1056,-91 -437,-225 -863,-457 -1372,-412 -645,56 -1123,505 -1616,874 -265,198 -581,428 -928,302 -303,-111 -537,-418 -734,-661 -137,-168 -266,-343 -404,-511 -350,-426 -941,-1125.99997 -1532,-659 -274,217 -451,564 -593,875 -499,1088 -703,2287 -1162,3389 -123,294 -276,650 -536,851 -508,393.9998 -1057,-318 -1335,-671 -336,-429 -625,-894 -966,-1319 -228,-285 -633,-799 -1061,-633 -249,97 -423,369 -555,587 -290,481 -501,1014 -746,1519 -128,263 -258,525 -408,776.9998 -319,536 -827,1254 -1549,1057 -443,-121 -756,-498 -1124,-747 -258,-174 -493,-235 -794,-136 -328,109 -614,315 -953,399 -1267,315 -1988,-1125.9998 -2732,-1864.9998 -151,-150 -341,-321 -564,-338 -321,-25 -577,278 -756,503 -390,492 -682,1057 -1076,1546.9998 -247,307 -676,800 -1120,566 -283,-149 -459,-495 -587,-773 -299,-650.9998 -474,-1365.9998 -659,-2055.9998 -190,-709 -358,-1438 -631,-2121 -147,-369 -446,-1091 -968,-945 -283,79 -515,354 -692,573 -437,541 -761,1165 -1172,1724 -211,288 -590,818 -1016,646 -245,-99 -423,-368 -561,-580 -509,-783 -840,-1693 -1473,-2394 -360,-400 -810,-675.99998 -1352,-473 -400,148 -682,488 -1062,662 -355,162 -641,18 -963,-143 -191,-95 -383,-197 -591,-250 -935,-237 -1583,613 -2056,1286 -206,293 -395,599 -611,884 -216,285 -536,694 -945,557 -248,-83 -448,-311 -611,-505 -407,-482 -724,-1035 -1146,-1506 -265,-296 -695,-720 -1118,-450 -271,172 -436,517 -560,800 -277,634 -447,1321 -633,1986 -185,659 -357,1340 -643,1964 -176,381.9998 -489,964.9998 -1003,819.9998 -275,-77 -505,-316 -690,-522 -331,-370.9998 -599,-793.9998 -903,-1186.9998 -261,-338 -678,-909 -1175,-683 -231,105 -414,322 -573,511 -628,742 -1341,2003.9998 -2495,1778.9998 -346,-67 -638,-264 -968,-373 -298,-98 -530,-52 -786,125 -365,251 -658,634 -1091,779 -713,240 -1236,-447 -1568,-976 -394,-627.9998 -670,-1317.9998 -1013,-1972.9998 -147,-281 -311,-606 -555,-817 -270,-233 -536,-160 -786,60 -269,237 -475,558 -672,854 -317,475 -602,979 -963,1423 -248,305.9998 -682,793.9998 -1104,474.9998 -268,-202.9998 -421,-582.9998 -540,-885.9998 -268,-683 -438,-1406 -634,-2112 -148,-533 -295,-1070 -498,-1585 -180,-459 -566,-1403.99997 -1224,-1146.99998 -174,68.99998 -323,199.99998 -452,331.99998 -498,509 -805,1173 -1260,1717 -145,173 -324,368 -553,422 -376,90 -717,-279 -953,-516 -573,-576 -1203,-1370 -2108,-1297 -453,37 -805,300 -1221,441 -308,105 -552,57 -814,-131 -386,-277 -675,-690 -1112,-897 -415,-194.99998 -786,-73.99998 -1101,242 -372,373 -617,885 -835,1358 -257,560 -467,1142 -734,1697 -136,285 -294,616 -539,825 -490,417 -986,-196 -1272,-556 -422,-529 -764,-1125 -1219,-1626 -270,-297 -682,-679 -1081,-356 -255,207 -408,561 -532,855 -394,936 -618,1937 -1012,2873 -237,562.9998 -678,1572.9998 -1462,1278.9998 -77,-29 -146,-75 -220,-112"
     id="path6988"
     style="fill:none;stroke:#92b03c;stroke-width:76.19999695;filter:url(#filter9592)"
     inkscape:connector-curvature="0"
     transform="matrix(1.1976488,0,0,1.102802,-12215.056,-483.47843)" /><path
     class="fil1 str1"
     d="m 113268.13,6142.5539 c -309,-396 -731,-1020 -1313,-748 -304,143 -556,424 -800,648 -465,428 -987,867.9998 -1659,845.9998 -475,-16 -851,-272 -1280,-432.9998 -307,-116 -559,-114 -830,85.9998 -332,244 -570,609 -868,892 -176,166 -379,335 -619,394 -625,154 -1063,-535 -1318,-995 -471,-851.9998 -740,-1796.9998 -1138,-2681.9998 -134,-297 -289,-650 -540,-869 -502,-438 -1012,296 -1272,659 -421,587 -760,1239 -1218,1799 -250,306 -672.008,766 -1081.008,427 -261,-217 -411,-594 -532,-900 -457,-1150 -672,-2393 -1200,-3517 -222,-471 -637,-1224.99997 -1273,-936.99998 -79,36 -152,85 -221,137 -579,441.99998 -870,1166.99998 -1380,1673.99998 -100,100 -213,194 -346,246 -414,160 -829,-218 -1137,-443 -500,-363 -1022,-705 -1669,-614 -493,69 -873,366 -1309,574 -304,145 -574,188 -868,-5 -279,-184 -493,-471 -713,-716 -355,-397 -900,-1016.99997 -1489,-680.99998 -396,225.99998 -643,718.99998 -828,1114.99998 -418,896 -656,1863 -1049,2768 -189,437 -539,1223 -1144,905 -176,-93 -324,-242 -457,-388 -542,-592 -915,-1322 -1459,-1912 -130,-142 -276,-286 -450,-374 -592,-300 -946,490 -1137,911 -331,729 -565,1499 -897,2228 -284,623.9998 -835,1780.9998 -1709,1386.9998 -542,-245 -850,-815 -1322,-1151.9998 -275,-196 -529,-210 -839,-88 -350,136.9998 -660,354.9998 -1031,445.9998 -536,132 -1010,-30 -1453,-334.9998 -241,-166 -457,-364 -678,-554 -300,-259 -706,-657 -1134,-442 -223,112 -395,331 -543,525 -347,453 -625,967.9998 -1026,1377.9998 -129,131 -274,262 -446,334 -650,274 -1050,-583 -1249,-1049 -498,-1167.9998 -699,-2440.9998 -1162,-3620.9998 -140,-357 -431,-1115 -943,-996 -280,65 -513,340 -685,552 -533,654 -894,1437 -1438,2083 -123,146 -262,299 -433,391 -570,310 -944,-523 -1135,-917 -400,-828 -689,-1720 -1187,-2499 -286,-448 -733,-1000.99997 -1335,-825.99998 -230,67 -427,223.99998 -603,380.99998 -369,328 -749,909 -1314,805 -259,-48 -498,-192 -742,-287 -376,-147 -751,-212 -1143,-81 -672,223 -1132,843 -1601,1337 -294,309 -677,715 -1134,461 -148,-82 -272,-206 -385,-330 -465,-508 -793,-1143 -1306,-1609 -132,-120 -282,-237 -455,-291 -510,-158 -834,376 -1023,761 -216,441 -362,919 -503,1388 -253,841 -443,1719 -786,2530 -158,373 -455,1024.9998 -968,907.9998 -277,-63 -510,-306 -692,-508.9998 -434,-483 -760,-1051 -1172,-1551 -232,-281 -603,-719 -1017,-544 -240,102 -417,352 -561,559 -495,714 -838,1559 -1472,2171.9998 -253,244 -560,442 -922,449 -522,11 -885,-368 -1337,-552 -283,-116 -513,-71 -776,70 -438,236 -839,595 -1377,497 -379,-69 -688,-335 -938,-613 -515,-571.9998 -844,-1273.9998 -1285,-1897.9998 -208,-292 -531,-734 -946,-556 -254,109 -450,370 -610,584 -406,543 -720,1152 -1146,1679.9998 -247,306 -684,805 -1119,521 -276,-181 -438,-551 -559,-843.9998 -280,-678 -447,-1407 -634,-2115 -184,-702 -354,-1427 -643,-2094 -164,-382 -479,-1030 -1003,-857 -281,94 -509,363 -689,586 -412,512 -716,1100 -1114,1621 -219,287 -555,702 -965,525 -235,-102 -419,-337 -573,-534 -436,-556 -789,-1192 -1324,-1666 -330,-292 -719,-495 -1171,-430 -357,52 -649,259 -967,410 -271,128 -506,171 -786,41 -447,-208 -789,-634 -1305,-691 -730,-79 -1243,683 -1571,1223 -290,478 -523,986 -796,1472 -211,375 -590,1113 -1135,882 -262,-111 -472,-366 -647,-582 -417,-514 -751,-1096 -1194,-1589 -267,-296 -693,-706 -1104,-403 -263,194 -419,550 -541,842 -265,639 -437,1320 -633,1982 -188,631 -371,1290 -681,1873.9998 -103,196 -226,394 -392,543 -592,528 -1194,-209 -1546,-646 -143,-179 -281,-362.9998 -422,-543.9998"
     id="path6990"
     style="fill:none;stroke:#92b03c;stroke-width:76.19999695;filter:url(#filter9574)"
     inkscape:connector-curvature="0"
     transform="matrix(1.1976488,0,0,1.102802,-12215.056,-483.47843)" /><path
     class="fil1 str1"
     d="m 113268.13,4782.5539 c -63,-6 -126,-25 -188,-19 -315,28 -571,341 -759,564 -425,503 -787,1084 -1324,1478.9998 -351,258 -738,385 -1171,301 -347,-68 -638,-265 -968,-373 -297,-98 -530,-53 -786,124 -518,357 -1034,1080 -1752,748 -396,-184 -682,-587 -907,-945 -394,-627.9998 -671,-1317.9998 -1013,-1972.9998 -147,-281 -311,-606 -555,-816 -270,-234 -536,-161 -787,59 -169,149 -308,334 -439,515 -417,574 -748,1211 -1195,1762 -247,305.9998 -682,793.9998 -1103,474.9998 -269,-203.9998 -422.008,-582.9998 -541.008,-885.9998 -268,-683 -437,-1406 -634,-2112 -187,-673 -368,-1375 -680,-2003 -193,-389 -529,-928.99997 -1042,-728.99998 -276,107.99998 -495,364.99998 -676,588.99998 -307,383 -554,811 -842,1207 -254,350 -619,852 -1113,631 -226,-102 -415,-299 -587,-472 -637,-640 -1321,-1494 -2337,-1260 -354,82 -653,289 -992,404 -308,105 -551,57 -814,-131 -386,-276 -675,-691 -1111,-897 -416,-195.99998 -786,-72.99998 -1101,242 -170,169 -308,369 -431,574 -473,780 -745,1662 -1139,2481 -195,408 -555,1187 -1134,907 -274,-132 -492,-405 -677,-638 -344,-432 -636,-903 -977,-1336 -279,-354 -820,-1053 -1323,-646 -255,207 -407,561 -532,855 -451,1074 -672,2243 -1200,3284.9998 -239,472 -650,1125 -1273,874 -345,-139 -618,-467 -853,-743 -131,-154 -254,-313 -387,-464.9998 -274,-314 -600,-672 -1058,-539 -209,60 -396,193 -575,310 -503,329.9998 -1003,662.9998 -1635,582.9998 -342,-43 -648,-199 -942,-370.9998 -382,-224 -853,-628 -1312,-368 -129,73 -238,179 -338,288 -398,432.9998 -683,991.9998 -1154,1353.9998 -128,98 -274,185 -437,209 -519,76 -869,-503 -1072,-891 -402,-766.9998 -637,-1623.9998 -909,-2442.9998 -149,-446 -294,-905 -508,-1325 -141,-278 -383,-702 -758,-632 -275,52 -504,321 -672,525 -460,560 -800,1213 -1221,1803 -257,359 -784,1127 -1290,689 -253,-220 -406,-583 -534,-885 -398,-931 -650,-1921 -1094,-2834 -162,-333 -353,-688 -633,-937.99998 -749,-669.99999 -1423,311.99998 -1861,838.99998 -253,304 -558,699 -1003,638 -271,-37 -524,-205 -764,-326 -367,-187 -744,-341 -1165,-304 -645,56 -1124,505 -1616,874 -264,198 -582,428 -928,302 -846,-309 -1814,-2944.999958 -2876,-1621 -257,319 -422,721 -568,1100 -315,825 -524,1687 -818,2520 -96,272 -198,546 -333,801 -152,285 -396,661 -773,593 -274,-50 -508,-292 -686,-489 -450,-498 -789,-1088 -1208,-1610 -228,-284 -634,-800 -1061,-633 -249,96 -423,369 -555,587 -290,481 -501,1014 -746,1519 -234,483 -483,986.9998 -842,1390.9998 -182,204 -404,391 -676,456 -628,150 -1101,-447 -1563,-760 -258,-174 -493,-235 -794,-136 -328,108 -614,315 -953,399 -1267,315 -1988,-1126.9998 -2731,-1864.9998 -197,-195 -453,-409 -749,-317 -238,74 -423,295 -572,483 -460,580 -782,1278.9998 -1305,1808.9998 -129,131 -279,263 -455,327 -521,187 -846,-411 -1023,-797 -218,-472.9998 -363,-981.9998 -504,-1480.9998 -252,-897 -440,-1830 -786,-2696 -147,-369 -446,-1091 -968,-945 -283,79 -515,354 -692,573 -437,541 -761,1164 -1172,1724 -211,288 -591,819 -1016,646 -245,-99 -423,-368 -561,-580 -509,-783 -840,-1693 -1473,-2394 -241,-268 -547,-518 -922,-545 -533,-36.99998 -919,391 -1336,648 -258,159 -487,206 -776,103 -393,-141 -722,-411 -1152,-449 -828,-74 -1418,726 -1838,1325 -262,372 -496,782 -802,1120 -107,118 -228,236 -375,301 -405,180 -755,-206 -990,-485 -407,-482 -724,-1036 -1146,-1506 -265,-296 -695,-720 -1118,-450 -271,172 -436,517 -560,800 -278,634 -447,1321 -633,1986 -185,658 -357,1341 -643,1964 -176,381.9998 -489,964.9998 -1003,819.9998 -275,-77 -505,-316 -690,-522 -407,-454.9998 -714,-989.9998 -1113,-1448.9998 -118,-136 -246,-273 -400,-368 -60,-37 -128,-58 -192,-87"
     id="path6992"
     style="fill:none;stroke:#92b03c;stroke-width:76.19999695;filter:url(#filter9556)"
     inkscape:connector-curvature="0"
     transform="matrix(1.1976488,0,0,1.102802,-12215.056,-483.47843)" /><path
     class="fil1 str1"
     d="m 113268.13,4782.5539 c -279,429 -526,878 -802,1308 -390,607.9998 -978,1445.9998 -1813,1293.9998 -421,-77 -732,-376 -1117,-533 -283,-116 -512,-71 -776,70 -308,166 -585,398 -934,480 -827,196 -1430,-597 -1837,-1193.9998 -289,-425 -533,-881 -829,-1300 -208,-292 -531,-734 -946,-556 -254,109 -450,370 -611,585 -405,543 -720,1151 -1145,1678.9998 -247,306 -684,805 -1118,521 -277,-181 -439,-551 -560,-843.9998 -280,-678 -447,-1407 -633,-2115 -185.008,-702 -355.008,-1427 -644.008,-2095 -164,-381 -479,-1030 -1002,-856 -282,94 -510,362 -690,586 -411,511 -716,1100 -1114,1621 -219,287 -555,702 -965,525 -235,-103 -418,-337 -573,-534 -436,-556 -789,-1192 -1324,-1666 -267,-236 -582,-427 -947,-443 -450,-20 -804,239 -1191,423 -271,128 -506,171 -786,41 -447,-208 -789,-634 -1305,-691 -471,-51 -846,256 -1132,595 -607,721 -918,1630 -1421,2416 -204,318 -514,750 -949,566 -262,-111 -472,-366 -647,-582 -417,-514 -751,-1096 -1194,-1588 -267,-297 -693,-707 -1104,-404 -263,194 -419,550 -540,842 -266,639 -437,1320 -634,1982 -148,499 -297,1003 -499,1483 -195,464.9998 -577,1302.9998 -1224,1082.9998 -171,-58 -319,-175 -451,-295 -488,-445 -800,-1047.9998 -1260,-1516.9998 -109,-111 -230,-220 -372,-286 -519,-244 -1009,348 -1347,659 -466,428 -987,868.9998 -1658,844.9998 -476,-16 -851,-272 -1281,-432.9998 -307,-115 -560,-112 -831,87.9998 -468,345 -746,923 -1272,1200 -303,159 -604,136 -879,-71 -397,-298 -652,-809 -858,-1245.9998 -351,-742 -597,-1528 -933,-2275 -134,-297 -289,-651 -540,-869 -502,-438 -1012,296 -1272,659 -421,587 -760,1238 -1218,1799 -251,306 -672,766 -1081,426 -261,-216 -411,-593 -532,-899 -457,-1150 -672,-2393 -1200,-3516 -222,-472 -637,-1225.99997 -1273,-937.99998 -79,36 -152,85 -221,137 -579,441.99998 -869,1166.99998 -1380,1673.99998 -100,100 -213,194 -346,246 -414,160 -829,-218 -1138,-443 -498,-363 -1021,-705 -1668,-615 -493,69 -874,367 -1309,575 -304,145 -574,188 -869,-6 -278,-182 -492,-470 -713,-715 -354,-397 -899,-1015.99997 -1488,-680.99998 -396,225.99998 -643,719.99998 -828,1114.99998 -418,896 -656,1863 -1049,2768 -127,293 -280,642 -532,851 -499,412 -1029,-266 -1309,-621 -418,-530 -761,-1128 -1219,-1625 -130,-141 -276,-287 -450,-374 -592,-299 -946,489 -1137,911 -331,729 -565,1498 -897,2228 -283,623.9998 -835,1780.9998 -1709,1386.9998 -542,-245 -850,-815 -1322,-1151.9998 -275,-196 -529,-210 -839,-88 -350,137.9998 -660,354.9998 -1031,445.9998 -536,132 -1010,-30 -1453,-334.9998 -241,-166 -457,-364 -678,-554 -300,-260 -706,-657 -1134,-442 -223,112 -395,331 -543,525 -346,453 -625,968.9998 -1026,1377.9998 -129,132 -274,262 -446,334 -650,273 -1050,-583 -1249,-1049 -498,-1167.9998 -699,-2440.9998 -1162,-3620.9998 -120,-304 -271,-684 -535,-895 -416,-330 -844,146 -1093,451 -454,557 -789,1202 -1208,1783 -178,247 -389,543 -663,692 -570,309 -944,-524 -1135,-918 -400,-828 -689,-1720 -1187,-2499 -286,-449 -733,-1000.99997 -1335,-825.99998 -230,67 -427,223.99998 -603,380.99998 -369,328 -749,909 -1314,805 -259,-48 -498,-192 -742,-287 -474,-185 -921,-217 -1386,22 -550,282 -940,794 -1358,1233 -294,310 -677,715 -1134,462 -148,-82 -272,-206 -385,-330 -465,-508 -793,-1143 -1306,-1609 -132,-119 -282,-237 -455,-291 -510,-158 -834,376 -1023,761 -216,441 -362,919 -503,1388 -253,841 -443,1719 -787,2530 -157,373 -454,1025.9998 -967,907.9998 -277,-63 -510,-306 -693,-508.9998 -433,-483 -760,-1051 -1172,-1551 -231,-281 -601,-719 -1015,-543 -248,105 -406,352 -562,558"
     id="path6994"
     style="fill:none;stroke:#92b03c;stroke-width:76.19999695;filter:url(#filter9538)"
     inkscape:connector-curvature="0"
     transform="matrix(1.1976488,0,0,1.102802,-12215.056,-483.47843)" /><path
     class="fil1 str1"
     d="m 10296.122,2461.5539 c 343,-610 889,-1671.99998 1758,-1433 442,122 755,500 1123,749 258,174 493,234 794,135 328,-108 614,-314 953,-398 424,-106 813,-11 1174,228 550,365 928,932 1357,1421 225,256 562,654 949,533 238,-74 423,-296 572,-483 390,-492 682,-1056 1076,-1547 247,-306 676,-798.99998 1120,-565 283,149 459,495 587,773 299,651 474,1366 659,2056 190,709 358,1438 631,2121 147,369 446,1090.9998 968,944.9998 283,-79 515,-354 692,-572.9998 437,-541 761,-1164 1172,-1724 211,-288 591,-819 1016,-646 245,99 423,368 561,580 509,783 840,1693 1473,2393.9998 360,400 810,676 1353,474 399,-149 681,-489 1061,-663 355,-162 641,-19 963,143 191,95 382,197 591,250 935,238 1584,-614 2056,-1285.9998 206,-293 395,-599 611,-884 215,-285 536,-694 945,-557 248,83 448,311 611,505 406,482 724,1035 1146,1505.9998 265,296 695,719 1118,450 271,-172 435,-516.9998 559,-799.9998 278,-634 448,-1321 634,-1986 185,-659 356,-1341 643,-1964 176,-382 489,-965 1003,-821 275,78 505,317 690,523 331,371 599,794 903,1186 261,339 678,909 1175,684 231,-105 413,-322 573,-511 627,-742 1341,-2005 2495,-1779 347,67 638,264 968,373 297,98 530,51 786,-125 365,-252 658,-634 1090,-779.99998 714,-238.99999 1237,447.99998 1569,976.99998 394,628 670,1318 1013,1973 147,281 311,606 555,816 270,234 536,161 786,-59 269,-237 475,-558 672,-853 317,-476 602,-980 963,-1424 248,-306 682,-794 1104,-475 268,203 421,584 540,886 268,683 437,1406 633,2112 149,533 296,1070 499,1585 180,458.9998 565,1403.9998 1224,1146.9998 175,-69 322,-200 452,-332 498,-509 805,-1173.9998 1260,-1716.9998 144,-173 324,-368 553,-422 376,-90 717,279 953,516 573,575 1203,1369.9998 2108,1296.9998 453,-37 805,-300 1221,-441 308,-104.9998 552,-56.9998 814,131 385,276 675,691 1111,896 416,196 786,75 1101,-241 373,-373 618,-884.9998 835,-1357.9998 258,-560 468,-1142 735,-1697 136,-285 294,-616 539,-825 490,-418 986,196 1272,556 421,529 764,1125 1219,1626 270,297 682,679 1081,356 255,-207 408,-561 532,-855 451,-1074 672,-2243 1200,-3285 239,-472 650,-1124.99997 1273,-873.99998 345,138.99998 618,466.99998 853,742.99998 238,280 459,599 747,831 55,43 112,85 174,118 475,257 928,-149 1310,-395 436,-280 890,-510 1424,-443 516,65 921,376 1360,624 120,68 244,136 378,173 556,155 920,-408 1209,-787 63,-83 124,-167 188,-249 326,-420 882,-1152.99997 1489,-774.99998 285,177 479,502.99998 631,792.99998 402,767 637,1624 909,2443 149,446 294,904 508,1325 141,277 383,702 758,632 275,-52 504,-321 672,-525 544,-663 912,-1456 1458,-2117 255,-308 654,-721 1053,-375 253,220 406,583 535,885 397,931 649,1921 1093,2833.9998 268,550 769,1451 1513,1076 325,-164 574,-481 801,-756 208,-251 412,-545.9998 685,-731.9998 366,-249 701,-91 1055,91 437,223.9998 862.008,456.9998 1372.008,411.9998 645,-56 1124,-504.9998 1616,-873.9998 265,-198 582,-428 928,-302 217,80 392,263 542,432 352,394 634,854.9998 1027,1211.9998 131,119 277,235 445,297 638,237 1034,-516 1249,-985 499,-1087.9998 703,-2286.9998 1162,-3388.9998 123,-294 276,-650 536,-851 405,-314 824,84 1093,380 529,585 896,1305 1437,1878 206,217 507,491 832,365 249,-97 423,-369 555,-587 212,-352 378,-734 552,-1106 129,-273 261,-545 395,-816"
     id="path6996"
     style="fill:none;stroke:#92b03c;stroke-width:76.19999695;filter:url(#filter9520)"
     inkscape:connector-curvature="0"
     transform="matrix(1.1976488,0,0,1.102802,-12215.056,-483.47843)" /><path
     class="fil1 str1"
     d="m 10296.122,1100.5539 c 74,-43 142,-96 220,-129.99998 677,-293.99999 1227,438.99998 1642,855.99998 150,151 310,311 504,404 443,212 871,-115 1262,-294 292,-133 595,-231 920,-210 770,48 1300,664 1860,1115 166,133 356,282 572,320 488,84 855,-512 1091,-847 136,-193 266,-391 405,-582 322,-443 923,-1266.99997 1531,-753.99998 280,234.99998 453,608.99998 594,937.99998 498,1168 699,2441 1162,3621 119,304 271,684 535,895 520,412.9998 1082,-418 1335,-774 338,-476 625,-987 966,-1460 178,-247 389,-543 663,-692 570,-309 944,524 1135,917 400,829 689,1720 1187,2499.9998 286,449 733,1000 1335,826 459,-134 781,-578 1124,-884 232,-208 469,-360.9998 793,-302 331,61 631,266 953,363 148,44 299,75 454,78 1018,19 1620,-996.9998 2278,-1611.9998 200,-187 455,-394 749,-331 323,68 579,400 773,643 297,372 556,777 874,1131.9998 265,296 688,715 1120,495 278,-141 456,-461 587,-729 298,-606.9998 475,-1278.9998 660,-1926.9998 190,-666 360,-1351 630,-1991 158,-373 455,-1026 968,-909 277,64 510,307 692,510 434,482 760,1051 1172,1551 232,281 603,719 1016,543 240,-102 418,-351 561,-558 292,-420 525,-879 802,-1309 391,-606 979,-1444 1813,-1293 421,77 732,376 1116,533 283,116 514,71 777,-70 308,-166 585,-398 934,-481 827,-196 1430,596 1838,1194 289,425 532,881 829,1301 206,292 530,734 945,556 254,-109 450,-370 610,-584 406,-543 720,-1152 1146,-1680 247,-306 684,-805 1118,-521 277,181 439,551 560,844 280,678 447,1407 633,2115 185,702 355,1427 643,2093.9998 165,381 480,1030 1003,857 282,-94 510,-363 690,-586 411,-511.9998 716,-1099.9998 1114,-1620.9998 219,-287 555,-702 965,-525 235,102 419,337 573,534 437,556 789,1192 1324,1665.9998 267,236 582,426 947,442 450,21 804,-238 1191,-422 271,-128 506,-171 786,-41 447,207 789,634 1305,690 471,51 847,-255 1132,-594 607,-719.9998 918,-1630.9998 1421,-2415.9998 204,-318 514,-750 948,-567 263,112 473,367 648,583 417,514 751,1096 1194,1588 267,297 693,706.9998 1104,403.9998 263,-193.9998 419,-549.9998 540,-841.9998 266,-639 438,-1320 634,-1982 148,-499 296,-1003 498,-1483 196,-465 578,-1303.99998 1225,-1083 171,58 319,175 451,295 488,445 800,1048 1260,1517 109,111 230,220 372,286 519,244 1009,-348 1347,-659 466,-428 987,-869 1659,-845 475,16 850,271 1280,433 307,115 560,112 831,-88 467,-345 746,-924 1272,-1199.99998 304,-158.99999 604,-135.99999 879,71 397,297.99998 651,807.99998 858,1245.99998 351,742 596,1528 933,2275 134,297 289,650 539,869 503,438 1013,-296 1273,-659 421,-587 760,-1239 1218,-1799 251,-306 672,-766 1081,-427 261,216 411,594 532,899 457,1151 672,2394 1200,3516.9998 222,472 636,1226 1273,937 79,-35 152,-84 221,-137 579,-441 870,-1165.9998 1380,-1672.9998 100,-100 213,-194 346,-246 414,-160 829,218 1138,443 499,362.9998 1021,704.9998 1668.008,613.9998 493,-68 874,-365.9998 1309,-573.9998 304,-145 574,-188 868,6 279,183 493,469.9998 714,714.9998 354,396 900,1016 1488,680 395,-225 643,-719 828,-1113.9998 419,-896 656,-1863 1049,-2768 127,-293 280,-642 532,-851 499,-412 1029,266 1309,621 418,530 761,1128 1219,1625 130,141 276,286 450,374 592,299 946,-490 1137,-911 392,-864 646,-1790 1094,-2629 120,-225 253,-444 416,-640 67,-80 144,-150 217,-225"
     id="path6998"
     style="fill:none;stroke:#92b03c;stroke-width:76.19999695;filter:url(#filter9502)"
     inkscape:connector-curvature="0"
     transform="matrix(1.1976488,0,0,1.102802,-12215.056,-483.47843)" /><path
     class="fil1 str1"
     d="m 10296.122,1100.5539 c 72,61 147,119 217,184 364,337 639,753 986,1105 105,107 218,212 351,284 475,257 928,-149 1310,-395 436,-280 890,-510 1424,-444 517,65 921,376 1359,626 120,69 244,137 377,174 556,156 922,-410 1210,-789 348,-455 986,-1453.99997 1678,-1023.99998 285,178 479,502.99998 631,792.99998 402,767 637,1624 909,2443 149,446 294,905 508,1325 141,277 383,703 758,632 275,-52 504,-321 672,-525 460,-560 800,-1213 1221,-1803 257,-359 784,-1127 1290,-689 253,220 406,583 534,885 398,931 650,1921 1094,2833.9998 268,551 769,1450 1513,1076 325,-164 574,-481 801,-756 208,-251 412,-545.9998 684,-731.9998 367,-249 702,-91 1056,91 437,223.9998 863,456.9998 1372,411.9998 645,-56 1123,-504.9998 1616,-873.9998 265,-198 581,-428 928,-302 303,111 537,418 734,661 137,168 266,342.9998 404,510.9998 350,426 941,1126 1532,659 274,-217 451,-564 593,-875 499,-1087.9998 703,-2286.9998 1162,-3388.9998 123,-294 276,-650 535,-851 509,-394 1058,318 1335,671 337,429 626,894 967,1319 228,285 633,799 1061,633 249,-97 423,-369 554,-587 291,-482 502,-1014 747,-1519 127,-263 258,-526 408,-777 319,-536 827,-1253.99998 1549,-1057 443,120 756,498 1124,747 258,174 493,235 794,136 328,-109 614,-315 953,-399 1267,-315 1988,1126 2731,1865 152,150 342,321 565,338 321,25 577,-279 756,-504 390,-492 682,-1056 1076,-1547 247,-306 676,-798.99998 1120,-565 283,149 459,495 587,773 299,651 474,1366 659,2056 190,709 358,1438 631,2121 147,369 446,1090.9998 968,944.9998 283,-79 515,-354 692,-572.9998 437,-541 761,-1165 1172,-1724 211,-288 590,-818 1016,-646 245,99 423,368 561,580 509,783 840,1693 1472,2393.9998 361,400 811,676 1353,473 400,-148 682,-488 1062,-662 355,-162 641,-18 963,142 191,96 383,197 591,251 935,237 1583,-614 2056,-1285.9998 206,-293 395,-599 611,-884 216,-285 536,-694 945,-557 248,83 448,311 611,505 407,482 724,1035 1146,1505.9998 265,296 695,719 1118,450 271,-172 436,-516.9998 560,-799.9998 277,-634 447,-1321 633,-1986 185,-659 356,-1341 643,-1964 176,-382 489,-965 1003,-821 275,78 505,317 689,523 332,371 600,794 904,1187 261,337 678,909 1175,683 231,-105 414,-322 573,-511 628,-743 1341,-2004 2495,-1780 346,68 638,265 968,374 298,98 529,51 786,-125 365,-251 658,-634 1090,-778.99998 714,-239.99999 1237,446.99998 1569,975.99998 394,628 670,1318 1013,1973 147,281 311,606 555,816 270,234 536,161 786,-59 269,-237 475,-558 672,-854 317,-475 602,-979 963,-1423 248,-306 682,-794 1104,-475 268,203 421,583 540,886 268,683 437,1406 634,2112 148,533 295,1070 498,1585 180,458.9998 566,1403.9998 1224,1146.9998 174,-69 323,-201 452,-332 498,-509 805,-1173.9998 1260,-1716.9998 145,-173 324,-368 553,-422 376,-90 717,279 953,516 573,575 1203,1369.9998 2108.008,1296.9998 453,-37 805,-300 1221,-441 308,-104.9998 552,-56.9998 814,131 386,277 675,690 1112,896 415,196 786,75 1101,-241 372,-373 617,-884.9998 835,-1357.9998 257,-560 467,-1142 734,-1697 136,-285 294,-616 539,-825 490,-417 986,196 1272,556 421,529 764,1125 1219,1626 270,297 682,679 1081,356 255,-207 408,-561 532,-856 394,-935 618,-1936 1012,-2873 237,-562 678,-1571.99997 1462,-1277.99998 77,28.99998 146,74.99998 220,111.99998"
     id="path7000"
     style="fill:none;stroke:#92b03c;stroke-width:76.19999695;filter:url(#filter9484)"
     inkscape:connector-curvature="0"
     transform="matrix(1.1976488,0,0,1.102802,-12215.056,-483.47843)" /><path
     class="fil1 str1"
     d="m 10296.122,2461.5539 c 309,396 731,1020 1313,748 304,-143 556,-424 800,-648 465,-428 987,-869 1659,-846 475,16 851,271 1280,433 307,116 559,114 830,-86 332,-244 570,-609 868,-892 175,-166 379,-334.99998 619,-393.99998 625,-153.99999 1063,534.99998 1318,994.99998 471,852 740,1797 1138,2682 134,297 289,650 540,869 502,438 1012,-296 1272,-659 421,-587 760,-1239 1218,-1799 250,-306 672,-766 1081,-427 261,216 411,594 532,899 457,1151 672,2394 1200,3516.9998 222,472 637,1226 1273,937 79,-35 152,-84 221,-137 579,-441 870,-1165.9998 1380,-1672.9998 100,-100 213,-194 346,-246 414,-160 829,218 1137,443 500,362.9998 1022,704.9998 1669,613.9998 493,-69 873,-365.9998 1309,-573.9998 304,-145 574,-188 868,5 279,183 493,470.9998 713,715.9998 355,396 900,1016 1489,681 396,-226 643,-719 828,-1114.9998 418,-896 656,-1863 1049,-2768 189,-437 539,-1223 1144,-905 176,93 324,242 457,388 542,592 915,1322 1459,1912 130,141 276,286 450,374 592,299 946,-490 1137,-911 331,-729 565,-1499 896,-2228 285,-624 836,-1780.99997 1710,-1386.99998 542,244.99998 850,814.99998 1322,1151.99998 275,196 529,210 839,88 350,-138 660,-355 1031,-446 536,-132 1010,30 1453,335 241,166 457,364 678,554 300,259 706,657 1134,442 223,-112 395,-331 543,-525 347,-453 625,-969 1026,-1378 129,-131 274,-261.99998 446,-333.99998 650,-273.99999 1050,582.99998 1249,1048.99998 498,1168 699,2441 1162,3621 140,357 431,1114.9998 943,995.9998 280,-64.9998 513,-339.9998 685,-551.9998 533,-655 894,-1437 1438,-2083 123,-146 262,-299 433,-392 570,-309 944,524 1135,917 400,829 689,1721 1187,2499.9998 286,448 733,1001 1335,826 230,-67 427,-224 603,-381 369,-328 749,-908.9998 1314,-805 259,48 498,192 741,287 377,147 752,212 1144,81 672,-223 1132,-842.9998 1601,-1336.9998 294,-309 677,-715 1134,-461 148,82 272,206 385,330 465,508 793,1142.9998 1305,1608.9998 132,120 283,237 456,291 510,158 834,-376 1023,-761 216,-440.9998 362,-918.9998 503,-1387.9998 253,-841 443,-1719 786,-2530 158,-373 455,-1026 968,-909 277,64 510,307 692,510 434,483 760,1051 1172,1551 232,281 603,719 1017,543 239,-101 417,-351 561,-558 495,-715 838,-1559 1472,-2172 253,-244 560,-442 922,-449 522,-11 885,368 1337,552 282,116 513,71 776,-70 438,-236 839,-595 1377,-497 379,69 688,335 938,613 515,572 844,1274 1285,1898 207,292 531,734 946,556 254,-109 450,-370 610,-584 406,-543 720,-1152 1146,-1680 247,-306 684,-805 1118,-521 277,181 439,551 560,844 280,678 447,1407 634,2115 184,702 354,1427 643,2093.9998 164,382 479,1030 1002,857 282,-94 510,-363 690,-586 411,-511.9998 715,-1099.9998 1114,-1620.9998 219,-287 555,-702 965,-525 235,102 419,337 573,534 436,556 789,1192 1324,1665.9998 330,292 719,495 1171,430 357,-52 649.008,-259 967.008,-410 271,-128 506,-171 786,-41 447,208 789,634 1305,690 730,80 1243,-682 1571,-1221.9998 290,-478 523,-986 796,-1472 211,-375 590,-1113 1135,-883 262,112 472,367 647,583 417,514 751,1096 1194,1588 267,297 693,706.9998 1104,403.9998 263,-193.9998 419,-549.9998 540,-841.9998 266,-639 437,-1320 634,-1982 187,-631 371,-1290 681,-1874 103,-196 226,-394 392,-543 592,-528.99997 1194,209 1546,646 143,179 281,362 422,544"
     id="path7002"
     style="fill:none;stroke:#92b03c;stroke-width:76.19999695;filter:url(#filter9466)"
     inkscape:connector-curvature="0"
     transform="matrix(1.1976488,0,0,1.102802,-12215.056,-483.47843)" /><path
     class="fil1 str1"
     d="m 10296.122,3821.5539 c 279,-429 526,-878 802,-1308 390,-608 978,-1446 1813,-1294 421,77 732,376 1116,533 284,116 513,71 777,-71 308,-165 585,-397 934,-480 827,-196 1430,597 1837,1195 289,425 532,881 829,1300 208,292 531,734 946,556 254,-109 450,-370 611,-585 405,-543 720,-1151 1145,-1679 247,-306 684,-805 1118,-521 277,181 439,551 560,844 279,678 447,1407 633,2115 185,702 355,1427 643,2093.9998 165,381 480,1030 1003,857 282,-94 510,-363 690,-586 411,-511.9998 716,-1099.9998 1114,-1620.9998 219,-287 555,-702 965,-525 235,103 418,337 573,534 436,556 789,1192 1324,1665.9998 267,236 582,426 947,443 450,20 804,-239 1191,-423 271,-128 506,-171 786,-41 447,208 789,634 1305,690 471,52 846,-255 1132,-594 607,-720.9998 918,-1629.9998 1421,-2415.9998 204,-318 514,-750 949,-567 262,111 472,367 647,583 417,514 751,1096 1194,1588 267,297 693,706.9998 1104,403.9998 263,-193.9998 419,-549.9998 540,-841.9998 266,-639 437,-1320 634,-1982 148,-499 296,-1003 498,-1483 196,-466 578,-1302.99998 1225,-1083 171,58 319,175 451,295 488,445 800,1047 1260,1517 109,111 230,220 372,286 519,244 1009,-348 1347,-659 465,-428 987,-869 1658,-845 476,16 851,271 1281,433 307,115 560,112 831,-88 467,-345 746,-923 1272,-1199.99998 303,-158.99999 604,-135.99999 879,71 397,297.99998 652,807.99998 858,1245.99998 351,742 597,1528 933,2275 134,297 289,651 539,869 503,438 1013,-296 1273,-659 421,-587 760,-1239 1218,-1799 251,-307 672,-766 1081,-427 261,216 411,594 532,900 457,1150 672,2393 1200,3515.9998 222,472 637,1226 1273,938 79,-36 152,-85 221,-137 579,-442 869,-1166.9998 1380,-1673.9998 100,-100 213,-194 346,-246 414,-160 829,218 1138,443 498,362.9998 1021,704.9998 1668,613.9998 493,-69 874,-365.9998 1309,-573.9998 304,-145 574,-188 868,5 279,183 493,469.9998 713,715.9998 355,397 900,1016 1489,681 395,-226 643,-720 828,-1114.9998 418,-896 656,-1863 1049,-2768 127,-293 280,-642 532,-851 499,-412 1029,266 1309,621 418,530 761,1128 1219,1625 130,141 276,287 450,374 592,299 946,-490 1137,-911 331,-729 565,-1499 897,-2228 283,-624 835,-1780.99997 1709,-1386.99998 542,244.99998 850,814.99998 1322,1151.99998 275,196 529,210 839,88 350,-138 660,-355 1031,-446 536,-132 1010,30 1453,335 241,166 457,364 678,554 300,259 706,657 1134,442 223,-112 394,-331 543,-525 346,-453 625,-969 1026,-1378 129,-132 274,-261.99998 446,-333.99998 650,-273.99999 1050,582.99998 1249,1048.99998 498,1168 699,2441 1162,3621 119,304 271,684 535,894 416,330.9998 844,-145 1093,-450 454,-557 789,-1202 1208,-1783 178,-247 389,-543 663,-692 570,-309 944,524 1135,917 400,829 689,1721 1187,2499.9998 286,449 733,1001 1335,826 230,-67 427,-224 603,-381 369,-328 749,-908.9998 1314,-805 259.008,48 498.008,192 742.008,287 474,185 921,217 1386,-22 550,-283 940,-793.9998 1358,-1233.9998 294,-309 677,-714 1134,-461 148,82 272,206 385,330 465,508 792,1142.9998 1306,1608.9998 132,119 282,237 455,290 510,159 834,-375 1023,-760 216,-440.9998 362,-918.9998 503,-1387.9998 253,-841 443,-1719 786,-2530 158,-373 455,-1026 968,-909 277,64 510,307 692,510 434,483 760,1051 1172,1551 232,281 602,719 1016,543 248,-106 406,-352 562,-558"
     id="path7006"
     style="fill:none;stroke:#92b03c;stroke-width:76.19999695;filter:url(#filter9430)"
     inkscape:connector-curvature="0"
     transform="matrix(1.1976488,0,0,1.102802,-12215.056,-483.47843)" /><path
     class="fil1 str1"
     d="m 113268.13,2461.5539 c -343,-610 -890,-1671.99998 -1758,-1433 -442,122 -755,500 -1123,749 -258,174 -493,234 -794,135 -328,-108 -614,-314 -953,-398 -424,-106 -813,-11 -1174,228 -550,365 -928,932 -1357,1421 -225,256 -562,654 -950,533 -237,-74 -422,-296 -571,-483 -391,-492 -682,-1056 -1076,-1547 -247,-306 -676,-798.99998 -1120,-565 -283,149 -459,495 -587,773 -299,651 -474,1366 -659,2056 -190,709 -358,1438 -631,2121 -148,369 -446,1090.9998 -968.008,944.9998 -283,-79 -515,-354 -692,-572.9998 -437,-541 -761,-1164 -1172,-1724 -211,-288 -591,-819 -1016,-646 -245,99 -423,368 -561,580 -509,783 -840,1693 -1473,2393.9998 -360,400 -810,676 -1353,474 -399,-149 -681,-489 -1062,-663 -354,-162 -641,-19 -962,143 -191,95 -383,197 -591,250 -935,238 -1584,-614 -2057,-1285.9998 -206,-293 -394,-599 -610,-884 -216,-285 -536,-694 -945,-557 -248,83 -448,311 -611,505 -407,482 -724,1035 -1146,1505.9998 -265,296 -695,719 -1118,450 -271,-172 -436,-516.9998 -560,-799.9998 -277,-634 -447,-1321 -633,-1986 -185,-659 -356,-1341 -643,-1964 -176,-382 -489,-965 -1003,-821 -275,78 -505,317 -690,523 -331,371 -599,794 -903,1186 -261,339 -678,909 -1175,684 -231,-105 -414,-322 -573,-511 -628,-742 -1342,-2005 -2495,-1779 -347,67 -638,264 -968,373 -297,98 -530,51 -786,-125 -365,-252 -658,-634 -1090,-779.99998 -714,-238.99999 -1238,447.99998 -1569,976.99998 -394,628 -670,1318 -1013,1973 -147,281 -311,606 -555,816 -270,234 -536,161 -787,-59 -268,-237 -474,-558 -671,-853 -317,-476 -602,-980 -963,-1424 -248,-306 -682,-794 -1104,-475 -268,203 -421,584 -540,886 -268,683 -437,1406 -634,2112 -148,533 -296,1070 -498,1585 -180,458.9998 -566,1403.9998 -1224,1146.9998 -175,-69 -323,-200 -452,-332 -499,-509 -805,-1173.9998 -1260,-1716.9998 -145,-173 -325,-368 -553,-422 -376,-90 -717,279 -953,516 -573,575 -1203,1369.9998 -2108,1296.9998 -453,-37 -805,-300 -1221,-441 -308,-104.9998 -552,-56.9998 -815,131 -385,276 -674,691 -1111,896 -415,196 -786,75 -1101,-241 -372,-373 -617,-884.9998 -835,-1357.9998 -257,-560 -467,-1142 -734,-1697 -136,-285 -294,-616 -539,-825 -490,-418 -986,196 -1272,556 -422,529 -764,1125 -1219,1626 -270,297 -682,679 -1081,356 -255,-207 -408,-561 -532,-855 -452,-1074 -672,-2243 -1200,-3285 -239,-472 -650,-1124.99997 -1273,-873.99998 -345,138.99998 -618,466.99998 -853,742.99998 -238,280 -460,599 -747,831 -55,43 -113,85 -174,118 -476,257 -929,-149 -1310,-395 -436,-280 -890,-510 -1424,-443 -517,65 -921,376 -1360,624 -120,68 -244,136 -378,173 -556,155 -920,-408 -1209,-787 -63,-83 -125,-167 -188,-249 -326,-420 -882,-1152.99997 -1489,-774.99998 -286,177 -479,502.99998 -631,792.99998 -402,767 -637,1624 -909,2443 -149,446 -294,904 -508,1325 -141,277 -383,702 -759,632 -274,-52 -504,-321 -671,-525 -544,-663 -912,-1456 -1458,-2117 -255,-308 -654,-721 -1053,-375 -253,220 -406,583 -535,885 -397,931 -649,1921 -1093,2833.9998 -268,550 -769,1451 -1513,1076 -325,-164 -574,-481 -802,-756 -207,-251 -411,-545.9998 -684,-731.9998 -366,-249 -702,-91 -1055,91 -437,223.9998 -862,456.9998 -1372,411.9998 -645,-56 -1124,-504.9998 -1617,-873.9998 -264,-198 -581,-428 -927,-302 -217,80 -392,263 -543,432 -352,394 -634,854.9998 -1026,1211.9998 -131,119 -278,235 -445,297 -638,237 -1035,-516 -1250,-985 -498,-1087.9998 -703,-2286.9998 -1162,-3388.9998 -122,-294 -275,-650 -535,-851 -405,-314 -825,84 -1093,380 -529,585 -896,1305 -1437,1878 -206,217 -507,491 -832,365 -249,-97 -423,-369 -555,-587 -212,-352 -378,-734 -553,-1106 -128,-273 -260,-545 -394,-816"
     id="path7008"
     style="fill:none;stroke:#92b03c;stroke-width:76.19999695;filter:url(#filter9412)"
     inkscape:connector-curvature="0"
     transform="matrix(1.1976488,0,0,1.102802,-12215.056,-483.47843)" /><path
     class="fil1 str1"
     d="m 113268.13,1100.5539 c -74,-43 -142,-96 -221,-129.99998 -676,-293.99999 -1226,438.99998 -1641,855.99998 -150,151 -310,311 -504,404 -443,212 -871,-115 -1262,-294 -292,-133 -595,-231 -921,-210 -769,48 -1299,664 -1859,1115 -166,133 -357,282 -572,320 -488,84 -855,-512 -1091,-847 -136,-193 -266,-391 -405,-582 -322,-443 -924,-1266.99997 -1531,-753.99998 -280,234.99998 -454,608.99998 -594,937.99998 -499,1168 -699,2441 -1162,3621 -119,304 -271,684 -535,895 -520,412.9998 -1082.008,-418 -1335.008,-774 -338,-476 -625,-987 -966,-1460 -178,-247 -389,-543 -663,-692 -571,-309 -944,524 -1135,917 -400,829 -689,1720 -1187,2499.9998 -286,449 -733,1000 -1335,826 -459,-134 -782,-578 -1124,-884 -232,-208 -470,-360.9998 -793,-302 -331,61 -631,266 -954,363 -147,44 -298,75 -453,78 -1018,19 -1621,-996.9998 -2278,-1611.9998 -200,-187 -455,-394 -749,-331 -323,68 -579,400 -773,643 -297,372 -556,777 -875,1131.9998 -264,296 -687,715 -1120,495 -277,-141 -455,-461 -587,-729 -297,-606.9998 -474,-1278.9998 -659,-1926.9998 -191,-666 -360,-1351 -631,-1991 -158,-373 -454,-1026 -967,-909 -277,64 -510,307 -693,510 -433,482 -759,1051 -1171,1551 -232,281 -603,719 -1017,543 -240,-102 -417,-351 -560,-558 -292,-420 -525,-879 -802,-1309 -391,-606 -979,-1444 -1813,-1293 -421,77 -732,376 -1117,533 -282,116 -513,71 -776,-70 -309,-166 -585,-398 -934,-481 -827,-196 -1431,596 -1838,1194 -289,425 -532,881 -829,1301 -207,292 -530,734 -945,556 -254,-109 -450,-370 -611,-584 -405,-543 -720,-1152 -1145,-1680 -247,-306 -684,-805 -1119,-521 -276,181 -438,551 -559,844 -280,678 -447,1407 -634,2115 -184,702 -354,1427 -643,2093.9998 -164,381 -479,1030 -1003,857 -282,-94 -509,-363 -689,-586 -412,-511.9998 -716,-1099.9998 -1114,-1620.9998 -219,-287 -555,-702 -965,-525 -235,102 -419,337 -573,534 -437,556 -789,1192 -1324,1665.9998 -267,236 -582,426 -947,442 -450,21 -804,-238 -1191,-422 -271,-128 -506,-171 -786,-41 -447,207 -789,634 -1305,690 -471,51 -847,-255 -1133,-594 -606,-719.9998 -917,-1630.9998 -1420,-2415.9998 -204,-318 -514,-750 -949,-567 -262,112 -472,367 -647,583 -417,514 -751,1096 -1194,1588 -267,297 -694,706.9998 -1104,403.9998 -263,-193.9998 -419,-549.9998 -541,-841.9998 -265,-639 -437,-1320 -633,-1982 -149,-499 -297,-1003 -499,-1483 -195,-465 -577,-1303.99998 -1224,-1083 -171,58 -320,175 -451,295 -488,445 -801,1048 -1261,1517 -108,111 -229,220 -371,286 -519,244 -1009,-348 -1347,-659 -466,-428 -987,-869 -1659,-845 -475,16 -851,271 -1280,433 -307,115 -560,112 -831,-88 -468,-345 -747,-924 -1272,-1199.99998 -304,-158.99999 -604,-135.99999 -879,71 -397,297.99998 -652,807.99998 -859,1245.99998 -350,742 -596,1528 -932,2275 -134,297 -289,650 -540,869 -502,438 -1012,-296 -1272,-659 -421,-587 -760,-1239 -1219,-1799 -250,-306 -671,-766 -1081,-427 -260,216 -410,594 -531,899 -457,1151 -672,2394 -1201,3516.9998 -222,472 -636,1226 -1273,937 -78,-35 -151,-84 -220,-137 -579,-441 -870,-1165.9998 -1380,-1672.9998 -100,-100 -213,-194 -347,-246 -413,-160 -828,218 -1137,443 -499,362.9998 -1021,704.9998 -1669,613.9998 -492,-68 -873,-365.9998 -1308,-573.9998 -304,-145 -574,-188 -869,6 -278,183 -493,469.9998 -713,714.9998 -354,396 -900,1016 -1488,680 -396,-225 -643,-719 -828,-1113.9998 -419,-896 -656,-1863 -1049,-2768 -127,-293 -280,-642 -533,-851 -498,-412 -1028,266 -1308,621 -419,530 -761,1128 -1219,1625 -131,141 -276,286 -450,374 -592,299 -946,-490 -1137,-911 -392,-864 -646,-1790 -1094,-2629 -120,-225 -253,-444 -416,-640 -67,-80 -145,-150 -217,-225"
     id="path7010"
     style="fill:none;stroke:#92b03c;stroke-width:76.19999695;filter:url(#filter9394)"
     inkscape:connector-curvature="0"
     transform="matrix(1.1976488,0,0,1.102802,-12215.056,-483.47843)" /><path
     class="fil1 str1"
     d="m 113268.13,1100.5539 c -73,61 -148,119 -217,184 -364,337 -640,753 -986,1105 -105,107 -219,212 -351,284 -475,257 -929,-149 -1310,-395 -436,-280 -890,-510 -1424,-444 -517,65 -921,376 -1359,626 -120,69 -244,137 -378,174 -555,156 -921,-410 -1210,-789 -347,-455 -985,-1453.99997 -1677,-1023.99998 -285,178 -479,502.99998 -631,792.99998 -402,767 -637,1624 -910,2443 -148,446 -293,905 -507,1325 -141,277 -383,703 -758,632 -275,-52 -504,-321 -672,-525 -460,-560 -800,-1213 -1221.008,-1803 -257,-359 -785,-1127 -1290,-689 -253,220 -406,583 -535,885 -397,931 -649,1921 -1093,2833.9998 -268,551 -769,1450 -1513,1076 -325,-164 -574,-481 -801,-756 -208,-251 -412,-545.9998 -685,-731.9998 -366,-249 -701,-91 -1055,91 -437,223.9998 -863,456.9998 -1372,411.9998 -645,-56 -1123,-504.9998 -1616,-873.9998 -265,-198 -581,-428 -928,-302 -304,111 -537,418 -734,661 -137,168 -266,342.9998 -404,510.9998 -350,426 -941,1126 -1532,659 -274,-217 -451,-564 -593,-875 -499,-1087.9998 -703,-2286.9998 -1163,-3388.9998 -122,-294 -276,-650 -535,-851 -508,-394 -1057,318 -1335,671 -336,429 -625,894 -966,1319 -228,285 -633,799 -1061,633 -249,-97 -423,-369 -555,-587 -290,-482 -501,-1014 -746,-1519 -128,-263 -259,-526 -408,-777 -319,-536 -827,-1253.99998 -1550,-1057 -442,120 -755,498 -1123,747 -258,174 -493,235 -794,136 -328,-109 -614,-315 -953,-399 -1267,-315 -1988,1126 -2732,1865 -151,150 -341,321 -565,338 -320,25 -576,-279 -755,-504 -390,-492 -682,-1056 -1076,-1547 -247,-306 -676,-798.99998 -1120,-565 -283,149 -459,495 -587,773 -299,651 -475,1366 -659,2056 -190,709 -358,1438 -631,2121 -148,369 -446,1090.9998 -968,944.9998 -283,-79 -515,-354 -692,-572.9998 -438,-541 -761,-1165 -1172,-1724 -211,-288 -590,-818 -1016,-646 -245,99 -423,368 -561,580 -509,783 -840,1693 -1473,2393.9998 -360,400 -810,676 -1353,473 -399,-148 -681,-488 -1062,-662 -354,-162 -641,-18 -962,142 -191,96 -383,197 -591,251 -935,237 -1583,-614 -2057,-1285.9998 -205,-293 -394,-599 -610,-884 -216,-285 -536,-694 -945,-557 -248,83 -448,311 -611,505 -407,482 -724,1035 -1146,1505.9998 -265,296 -695,719 -1118,450 -271,-172 -436,-516.9998 -560,-799.9998 -278,-634 -447,-1321 -633,-1986 -185,-659 -357,-1341 -643,-1964 -176,-382 -489,-965 -1003,-821 -276,78 -505,317 -690,523 -331,371 -599,794 -903,1187 -261,337 -678,909 -1175,683 -231,-105 -414,-322 -574,-511 -627,-743 -1340,-2004 -2494,-1780 -347,68 -638,265 -968,374 -298,98 -530,51 -786,-125 -365,-251 -658,-634 -1091,-778.99998 -713,-239.99999 -1236,446.99998 -1568,975.99998 -394,628 -670,1318 -1013,1973 -147,281 -311,606 -555,816 -270,234 -536,161 -787,-59 -268,-237 -474,-558 -671,-854 -317,-475 -602,-979 -963,-1423 -248,-306 -682,-794 -1104,-475 -268,203 -421,583 -540,886 -268,683 -438,1406 -634,2112 -148,533 -296,1070 -498,1585 -180,458.9998 -566,1403.9998 -1224,1146.9998 -175,-69 -323,-201 -452,-332 -498,-509 -805,-1173.9998 -1260,-1716.9998 -145,-173 -325,-368 -553,-422 -376,-90 -717,279 -953,516 -573,575 -1203,1369.9998 -2108,1296.9998 -453,-37 -805,-300 -1221,-441 -308,-104.9998 -552,-56.9998 -815,131 -385,277 -674,690 -1111,896 -415,196 -786,75 -1101,-241 -372,-373 -617,-884.9998 -835,-1357.9998 -257,-560 -467,-1142 -734,-1697 -136,-285 -294,-616 -539,-825 -490,-417 -986,196 -1273,556 -421,529 -763,1125 -1218,1626 -270,297 -682,679 -1081,356 -255,-207 -408,-561 -532,-856 -394,-935 -618,-1936 -1012,-2873 -237,-562 -679,-1571.99997 -1462,-1277.99998 -77,28.99998 -146,74.99998 -220,111.99998"
     id="path7012"
     style="fill:none;stroke:#92b03c;stroke-width:76.19999695;filter:url(#filter9376)"
     inkscape:connector-curvature="0"
     transform="matrix(1.1976488,0,0,1.102802,-12215.056,-483.47843)" /><path
     class="fil1 str1"
     d="m 113268.13,2461.5539 c -309,396 -731,1020 -1313,748 -304,-143 -556,-424 -800,-648 -466,-428 -987,-869 -1659,-846 -475,16 -851,271 -1280,433 -307,116 -559,114 -830,-86 -332,-244 -570,-609 -868,-892 -176,-166 -379,-334.99998 -619,-393.99998 -626,-153.99999 -1063,534.99998 -1318,994.99998 -471,852 -740,1797 -1138,2682 -134,297 -289,650 -540,869 -502,438 -1012,-296 -1272,-659 -421,-587 -760,-1239 -1218,-1799 -251,-306 -672.008,-766 -1081.008,-427 -261,216 -411,594 -532,899 -457,1151 -672,2394 -1200,3516.9998 -222,472 -637,1226 -1274,937 -78,-35 -151,-84 -220,-137 -579,-441 -870,-1165.9998 -1380,-1672.9998 -100,-100 -213,-194 -346,-246 -414,-160 -829,218 -1138,443 -499,362.9998 -1021,704.9998 -1668,613.9998 -493,-69 -873,-365.9998 -1309,-573.9998 -304,-145 -574,-188 -869,5 -278,183 -493,470.9998 -713,715.9998 -355,396 -899,1016 -1488,681 -396,-226 -643,-719 -828,-1114.9998 -419,-896 -656,-1863 -1049,-2768 -190,-437 -539,-1223 -1144,-905 -177,93 -324,242 -457,388 -542,592 -915,1322 -1459,1912 -130,141 -276,286 -450,374 -592,299 -946,-490 -1137,-911 -331,-729 -565,-1499 -897,-2228 -284,-624 -835,-1780.99997 -1710,-1386.99998 -541,244.99998 -849,814.99998 -1321,1151.99998 -275,196 -529,210 -839,88 -350,-138 -660,-355 -1031,-446 -536,-132 -1010,30 -1454,335 -241,166 -456,364 -677,554 -300,259 -706,657 -1134,442 -223,-112 -395,-331 -543,-525 -347,-453 -625,-969 -1026,-1378 -129,-131 -274,-261.99998 -446,-333.99998 -650,-273.99999 -1050,582.99998 -1249,1048.99998 -498,1168 -699,2441 -1162,3621 -140,357 -431,1114.9998 -943,995.9998 -280,-64.9998 -513,-339.9998 -685,-551.9998 -533,-655 -894,-1437 -1438,-2083 -123,-146 -262,-299 -433,-392 -570,-309 -944,524 -1135,917 -400,829 -689,1721 -1187,2499.9998 -286,448 -733,1001 -1335,826 -230,-67 -427,-224 -603,-381 -369,-328 -749,-908.9998 -1314,-805 -259,48 -498,192 -742,287 -376,147 -751,212 -1143,81 -672,-223 -1132,-842.9998 -1601,-1336.9998 -294,-309 -677,-715 -1134,-461 -148,82 -272,206 -385,330 -465,508 -793,1142.9998 -1306,1608.9998 -132,120 -282,237 -455,291 -510,158 -834,-376 -1023,-761 -216,-440.9998 -362,-918.9998 -503,-1387.9998 -253,-841 -443,-1719 -787,-2530 -157,-373 -454,-1026 -967,-909 -277,64 -510,307 -693,510 -433,483 -760,1051 -1172,1551 -231,281 -602,719 -1016,543 -240,-101 -417,-351 -561,-558 -495,-715 -838,-1559 -1472,-2172 -253,-244 -560,-442 -922,-449 -522,-11 -885,368 -1337,552 -283,116 -513,71 -776,-70 -438,-236 -839,-595 -1377,-497 -380,69 -688,335 -938,613 -515,572 -844,1274 -1286,1898 -207,292 -530,734 -945,556 -254,-109 -450,-370 -611,-584 -405,-543 -720,-1152 -1145,-1680 -247,-306 -684,-805 -1119,-521 -276,181 -438,551 -559,844 -280,678 -448,1407 -634,2115 -184,702 -354,1427 -643,2093.9998 -164,382 -479,1030 -1003,857 -281,-94 -510,-363 -689,-586 -412,-511.9998 -716,-1099.9998 -1114,-1620.9998 -219,-287 -555,-702 -965,-525 -235,102 -419,337 -573,534 -437,556 -789,1192 -1324,1665.9998 -330,292 -719,495 -1171,430 -357,-52 -649,-259 -967,-410 -271,-128 -507,-171 -787,-41 -446,208 -788,634 -1304,690 -730,80 -1243,-682 -1571,-1221.9998 -290,-478 -524,-986 -797,-1472 -210,-375 -590,-1113 -1134,-883 -262,112 -472,367 -647,583 -417,514 -751,1096 -1195,1588 -267,297 -692,706.9998 -1104,403.9998 -262,-193.9998 -418,-549.9998 -540,-841.9998 -265,-639 -437,-1320 -633,-1982 -188,-631 -371,-1290 -681,-1874 -104,-196 -226,-394 -393,-543 -591,-528.99997 -1193,209 -1545,646 -144,179 -282,362 -422,544"
     id="path7014"
     style="fill:none;stroke:#92b03c;stroke-width:76.19999695;filter:url(#filter9358)"
     inkscape:connector-curvature="0"
     transform="matrix(1.1976488,0,0,1.102802,-12215.056,-483.47843)" /><path
     class="fil1 str1"
     d="m 113268.13,3821.5539 c -63,6 -126,24 -188,19 -315,-28 -571,-341 -759,-564 -425,-504 -787,-1084 -1324,-1479 -351,-258 -738,-385 -1171,-301 -347,68 -638,265 -968,373 -297,98 -530,52 -786,-124 -518,-357 -1034,-1079.99997 -1752,-747.99998 -396,183.99998 -682,586.99998 -907,944.99998 -394,628 -671,1318 -1013,1973 -147,281 -311,605 -555,816 -270,234 -536,161 -787,-60 -169,-148 -308,-333 -440,-515 -416,-573 -747,-1210 -1194,-1761 -247,-306 -682,-794 -1104,-475 -268,203 -421.008,583 -540.008,886 -268,683 -438,1406 -634,2112 -187,673 -369,1375 -680,2002.9998 -193,389 -529,929 -1042,729 -276,-108 -496,-366 -676,-590 -308,-382 -554,-809.9998 -842,-1205.9998 -254,-350 -619,-852 -1113,-631 -226,102 -415,299 -587,472 -637,640 -1321,1493.9998 -2337,1258.9998 -354,-81 -653,-288 -992,-403 -308,-104.9998 -551,-56.9998 -814,131 -386,276 -675,690 -1112,896 -415,197 -786,74 -1101,-241 -169,-169 -307,-369 -430,-574 -473,-780.9998 -746,-1661.9998 -1139,-2480.9998 -195,-408 -555,-1188 -1134,-907 -274,132 -492,405 -677,638 -344,432 -636,903 -977,1336 -279,354 -820,1052 -1323,646 -255,-207 -408,-561 -532,-855 -451,-1074 -672,-2243 -1200,-3285 -239,-472 -650,-1124.99997 -1273,-873.99998 -345,138.99998 -618,466.99998 -853,742.99998 -131,154 -255,313 -387,465 -274,314 -600,672 -1058,539 -209,-60 -396,-193 -576,-310 -502,-330 -1003,-663 -1634,-583 -342,43 -648,199 -942,371 -382,224 -853,628 -1312,368 -130,-73 -238,-179 -338,-288 -398,-433 -683,-992 -1154,-1353.99998 -128,-98 -274,-185.99999 -437,-208.99999 -519,-76 -869,502.99997 -1072,890.99997 -402,767 -637,1624 -909,2443 -149,446 -294,904 -508,1325 -141,278 -383,702 -759,632 -274,-52 -504,-321 -671,-525 -460,-560 -800,-1213 -1221,-1803 -257,-359 -784,-1127 -1290,-689 -253,220 -406,583 -535,885 -397,931 -649,1921 -1093,2833.9998 -162,333 -354,688 -633,938 -749,670 -1423,-312 -1861,-839 -253,-304 -559,-698.9998 -1003,-637.9998 -271,36 -524,205 -764,326 -367,186.9998 -744,340.9998 -1165,303.9998 -645,-56 -1124,-504.9998 -1616,-873.9998 -265,-198 -582,-428 -928,-302 -846,309 -1814,2944.9998 -2877,1620.9998 -256,-319 -422,-721 -567,-1099.9998 -316,-826 -524,-1688 -818,-2520 -96,-272 -198,-546 -333,-801 -152,-285 -396,-661 -773,-593 -274,50 -508,292 -686,489 -450,498 -789,1087 -1208,1610 -228,284 -634,799 -1061,633 -249,-97 -423,-369 -555,-587 -290,-481 -501,-1014 -746,-1519 -234,-483 -483,-988 -842,-1391 -182,-204 -404,-391 -676,-456 -628,-149.99998 -1101,447 -1564,760 -257,174 -492,235 -793,136 -328,-108 -614,-315 -953,-399 -1267,-315 -1988,1126 -2732,1865 -196,195 -452,409 -749,317 -237,-74 -422,-295 -571,-483 -460,-580 -782,-1279 -1305,-1809 -130,-131 -279,-263 -455,-327 -521,-186.99998 -846,411 -1023,797 -218,473 -363,982 -504,1481 -252,897 -440,1830 -786,2696 -148,369 -446,1090.9998 -968,944.9998 -283,-79 -515,-354 -692,-572.9998 -437,-541 -761,-1165 -1172,-1724 -211,-288 -591,-819 -1016,-646 -245,99 -423,368 -561,580 -509,783 -840,1693 -1473,2393.9998 -241,268 -547,518 -922,545 -533,37 -920,-391 -1336,-648 -258,-159 -487,-206 -776,-103 -393,141 -722,411 -1152,449 -828,74 -1418,-726 -1839,-1324.9998 -262,-372 -495,-782 -801,-1120 -107,-118 -228,-236 -375,-302 -405,-179 -755,207 -990,486 -407,482 -724,1035 -1146,1505.9998 -265,296 -695,719 -1118,450 -271,-172 -436,-516.9998 -560,-799.9998 -278,-634 -447,-1321 -633,-1986 -185,-659 -357,-1341 -643,-1964 -176,-382 -489,-965 -1003,-820 -275,77 -505,316 -690,522 -407,455 -714,989 -1114,1449 -117,136 -245,272 -399,368 -60,37 -128,58 -192,87"
     id="path7016"
     style="fill:none;stroke:#92b03c;stroke-width:76.19999695;filter:url(#filter9340)"
     inkscape:connector-curvature="0"
     transform="matrix(1.1976488,0,0,1.102802,-12215.056,-483.47843)" /><path
     class="fil1 str1"
     d="m 113268.13,3821.5539 c -280,-429 -526,-878 -802,-1308 -390,-608 -978,-1446 -1813,-1294 -421,77 -732,376 -1117,533 -283,116 -512,71 -776,-71 -309,-165 -585,-397 -934,-480 -827,-196 -1430,597 -1837,1195 -289,425 -533,881 -830,1300 -207,292 -530,734 -945,556 -254,-109 -451,-370 -611,-585 -405,-543 -720,-1151 -1145,-1679 -247,-306 -684,-805 -1118,-521 -277,181 -439,551 -560,844 -280,678 -447,1407 -634,2115 -184.008,702 -354.008,1427 -643.008,2093.9998 -164,381 -479,1030 -1003,857 -282,-94 -509,-363 -689,-586 -412,-511.9998 -716,-1099.9998 -1114,-1620.9998 -219,-287 -555,-702 -965,-525 -236,103 -418,337 -573,534 -437,556 -789,1192 -1324,1665.9998 -267,236 -582,426 -947,443 -450,20 -804,-239 -1191,-423 -271,-128 -506,-171 -786,-41 -447,208 -789,634 -1305,690 -471,52 -847,-255 -1132,-594 -607,-720.9998 -918,-1629.9998 -1421,-2415.9998 -204,-318 -514,-750 -949,-567 -262,111 -472,367 -647,583 -417,514 -751,1096 -1194,1588 -267,297 -693,706.9998 -1104,403.9998 -263,-193.9998 -419,-549.9998 -540,-841.9998 -266,-639 -438,-1320 -634,-1982 -148,-499 -297,-1003 -499,-1483 -195,-466 -577,-1302.99998 -1224,-1083 -171,58 -320,175 -451,295 -488,445 -801,1047 -1260,1517 -109,111 -230,220 -372,286 -519,244 -1009,-348 -1347,-659 -466,-428 -987,-869 -1659,-845 -475,16 -850,271 -1280,433 -307,115 -560,112 -831,-88 -468,-345 -746,-923 -1272,-1199.99998 -303,-158.99999 -604,-135.99999 -879,71 -397,297.99998 -652,807.99998 -859,1245.99998 -350,742 -596,1528 -932,2275 -134,297 -289,651 -540,869 -502,438 -1012,-296 -1272,-659 -421,-587 -760,-1239 -1218,-1799 -251,-307 -672,-766 -1081,-427 -261,216 -411,594 -532,900 -457,1150 -672,2393 -1200,3515.9998 -222,472 -637,1226 -1273,938 -79,-36 -152,-85 -221,-137 -579,-442 -870,-1166.9998 -1380,-1673.9998 -100,-100 -213,-194 -347,-246 -413,-160 -828,218 -1137,443 -499,362.9998 -1021,704.9998 -1668,613.9998 -493,-69 -874,-365.9998 -1309,-573.9998 -304,-145 -574,-188 -869,5 -278,183 -493,469.9998 -713,715.9998 -355,397 -899,1016 -1488,681 -396,-226 -643,-720 -828,-1114.9998 -418,-896 -656,-1863 -1049,-2768 -127,-293 -280,-642 -533,-851 -499,-412 -1028,266 -1308,621 -418,530 -761,1128 -1219,1625 -131,141 -276,287 -450,374 -592,299 -946,-490 -1137,-911 -331,-729 -565,-1499 -897,-2228 -284,-624 -835,-1780.99997 -1710,-1386.99998 -541,244.99998 -849,814.99998 -1321,1151.99998 -275,196 -529,210 -839,88 -350,-138 -660,-355 -1031,-446 -536,-132 -1010,30 -1454,335 -241,166 -456,364 -677,554 -300,259 -706,657 -1134,442 -224,-112 -395,-331 -543,-525 -346,-453 -626,-969 -1027,-1378 -128,-132 -273,-261.99998 -445,-333.99998 -650,-273.99999 -1050,582.99998 -1249,1048.99998 -499,1168 -699,2441 -1162,3621 -120,304 -271,684 -535,894 -416,330.9998 -844,-145 -1093,-450 -454,-557 -789,-1202 -1208,-1783 -178,-247 -389,-543 -663,-692 -571,-309 -944,524 -1135,917 -400,829 -689,1721 -1187,2499.9998 -286,449 -733,1001 -1335,826 -230,-67 -427,-224 -603,-381 -369,-328 -749,-908.9998 -1314,-805 -259,48 -498,192 -742,287 -474,185 -921,217 -1386,-22 -550,-283 -940,-793.9998 -1358,-1233.9998 -294,-309 -677,-714 -1134,-461 -148,82 -272,206 -385,330 -465,508 -793,1142.9998 -1306,1608.9998 -132,119 -282,237 -455,290 -510,159 -834,-375 -1023,-760 -216,-440.9998 -362,-918.9998 -503,-1387.9998 -253,-841 -444,-1719 -787,-2530 -158,-373 -454,-1026 -967,-909 -277,64 -511,307 -693,510 -433,483 -760,1051 -1172,1551 -231,281 -602,719 -1015,543 -248,-106 -407,-352 -562,-558"
     id="path7018"
     style="fill:none;stroke:#92b03c;stroke-width:76.19999695;filter:url(#filter9322)"
     inkscape:connector-curvature="0"
     transform="matrix(1.1976488,0,0,1.102802,-12215.056,-483.47843)" /></svg>