<?xml version="1.0" encoding="UTF-8" standalone="no"?>
<svg
   xmlns:dc="http://purl.org/dc/elements/1.1/"
   xmlns:cc="http://creativecommons.org/ns#"
   xmlns:rdf="http://www.w3.org/1999/02/22-rdf-syntax-ns#"
   xmlns:svg="http://www.w3.org/2000/svg"
   xmlns="http://www.w3.org/2000/svg"
   height="225.35129"
   width="361.44385"
   id="svg2"
   viewBox="0 0 361.44385 225.35129"
   version="1.1">
  <metadata
     id="metadata40">
    <rdf:RDF>
      <cc:Work
         rdf:about="">
        <dc:format>image/svg+xml</dc:format>
        <dc:type
           rdf:resource="http://purl.org/dc/dcmitype/StillImage" />
        <dc:title></dc:title>
      </cc:Work>
    </rdf:RDF>
  </metadata>
  <defs
     id="defs38" />
  <g
     id="g4"
     transform="translate(-537.90519,407.19903)">
    <g
       style="fill:none;stroke:#000000;stroke-width:6.78459978"
       id="g6"
       transform="matrix(-0.61905,0,0,0.61905,923.68,-447.59)">
      <path
         id="path8"
         d="m 399.94,425.88 -357.24,0 0,-357.24 357.24,0" />
      <path
         id="path10"
         d="m 482.38,288.48 137.4,0 0,137.4 -137.4,0" />
      <path
         id="path12"
         d="m 482.38,343.44 0,82.441 -82.441,0 0,-82.441" />
      <path
         id="path14"
         d="m 454.9,343.44 -54.961,0 0,-54.961 54.961,0" />
      <path
         id="path16"
         d="m 454.9,315.96 0,-27.48 27.48,0 0,27.48" />
      <path
         id="path18"
         d="m 454.9,315.96 27.48,0 0,27.48 -27.48,0 z" />
      <path
         id="path20"
         d="m -315.96,482.38 c -7.2882,0 -14.278,-2.8952 -19.432,-8.0488 -5.154,-5.1536 -8.0488,-12.143 -8.0488,-19.432"
         transform="matrix(0,-1,1,0,0,0)" />
      <path
         id="path22"
         d="m 315.96,482.38 c -7.2882,0 -14.278,-2.8952 -19.432,-8.0488 -5.154,-5.1536 -8.0488,-12.143 -8.0488,-19.432"
         transform="matrix(0,1,1,0,0,0)" />
      <path
         id="path24"
         d="m 343.44,-399.94 c -14.576,0 -28.556,-5.7905 -38.863,-16.098 -10.307,-10.3075 -16.098,-24.287 -16.098,-38.863"
         transform="matrix(0,1,-1,0,0,0)" />
      <path
         id="path26"
         d="m -343.44,-399.94 c -21.865,0 -42.834,-8.6857 -58.295,-24.146 -15.461,-15.461 -24.146,-36.43 -24.146,-58.295"
         transform="matrix(0,-1,-1,0,0,0)" />
      <path
         id="path28"
         d="m -288.48,619.78 c -36.441,0 -71.39,-14.476 -97.158,-40.244 -25.768,-25.768 -40.244,-60.717 -40.244,-97.158"
         transform="matrix(0,-1,1,0,0,0)" />
      <path
         id="path30"
         d="m 288.48,619.78 c -58.306,0 -114.22,-23.162 -155.45,-64.391 C 91.801,514.16 68.639,458.243 68.639,399.939"
         transform="matrix(0,1,1,0,0,0)" />
      <path
         id="path32"
         d="m 425.88,-42.696 c -94.747,3e-6 -185.61,-37.638 -252.61,-104.63 -66.996,-66.996 -104.63,-157.86 -104.63,-252.61"
         transform="matrix(0,1,-1,0,0,0)" />
      <path
         id="path34"
         d="m 399.94,288.48 0,-219.84 219.84,0 0,219.84" />
    </g>
  </g>
</svg>
