<?xml version="1.0" encoding="UTF-8" standalone="no"?>
<svg
   xmlns:dc="http://purl.org/dc/elements/1.1/"
   xmlns:cc="http://creativecommons.org/ns#"
   xmlns:rdf="http://www.w3.org/1999/02/22-rdf-syntax-ns#"
   xmlns:svg="http://www.w3.org/2000/svg"
   xmlns="http://www.w3.org/2000/svg"
   style="clip-rule:evenodd;fill-rule:evenodd;image-rendering:optimizeQuality;shape-rendering:geometricPrecision;text-rendering:geometricPrecision"
   id="svg2"
   xml:space="preserve"
   viewBox="0 0 7765.0061 7647.0054"
   version="1.1"
   height="76.350441mm"
   width="77.528603mm"><metadata
     id="metadata104"><rdf:RDF><cc:Work
         rdf:about=""><dc:format>image/svg+xml</dc:format><dc:type
           rdf:resource="http://purl.org/dc/dcmitype/StillImage" /><dc:title></dc:title></cc:Work></rdf:RDF></metadata><defs
     id="defs102" /><g
     transform="translate(-2114.9969,-2249.9975)"
     style="fill:none;stroke:#686055;stroke-width:10.01500034;stroke-linecap:round;stroke-linejoin:round"
     id="g6"><polygon
       id="polygon8"
       points="8508,6151 8525,6177 8529,6203 8518,6231 8493,6260 8454,6290 8402,6321 8339,6350 8264,6379 8181,6403 8090,6424 7994,6439 7894,6449 7793,6452 7692,6449 7597,6442 7509,6432 7431,6421 7365,6411 7314,6404 7277,6402 7254,6406 7246,6418 7250,6438 7264,6466 7285,6503 7311,6546 7338,6594 7372,6655 7416,6737 7448,6813 7467,6881 7472,6939 7463,6986 7440,7021 7406,7045 7360,7059 7306,7062 7244,7057 7178,7046 7109,7031 7039,7013 6970,6995 6915,6992 6859,6988 6802,6982 6745,6977 6692,6974 6644,6975 6602,6983 6568,6998 6544,7023 6527,7059 6520,7105 6519,7162 6525,7228 6535,7303 6546,7383 6557,7467 6590,7566 6621,7666 6641,7758 6650,7839 6648,7906 6636,7959 6615,7996 6586,8018 6553,8024 6516,8018 6477,7999 6439,7973 6403,7940 6369,7905 6339,7870 6312,7839 6289,7816 6268,7800 6249,7795 6230,7801 6210,7819 6189,7850 6165,7895 6140,7953 6112,8023 6083,8105 6054,8198 6025,8300 5997,8407 5972,8457 5947,8496 5923,8524 5898,8541 5872,8544 5845,8533 5816,8508 5786,8469 5755,8418 5725,8354 5696,8280 5671,8197 5649,8106 5633,8010 5624,7909 5620,7807 5623,7706 5630,7610 5640,7522 5651,7444 5661,7378 5669,7327 5672,7290 5669,7268 5659,7260 5640,7264 5613,7279 5578,7301 5531,7332 5449,7383 5366,7429 5287,7467 5213,7493 5148,7507 5091,7509 5046,7497 5011,7472 4987,7435 4974,7388 4970,7333 4973,7270 4983,7203 4997,7133 5013,7063 5026,6996 5027,6942 5031,6885 5036,6826 5042,6767 5047,6712 5048,6662 5043,6619 5032,6584 5011,6558 4981,6541 4940,6534 4888,6535 4827,6543 4757,6555 4660,6593 4553,6639 4448,6677 4347,6705 4256,6724 4175,6731 4107,6728 4054,6715 4016,6694 3995,6665 3987,6631 3994,6594 4011,6556 4038,6518 4069,6482 4104,6449 4138,6419 4168,6393 4191,6371 4205,6351 4210,6333 4203,6315 4185,6295 4154,6274 4110,6250 4053,6223 3984,6195 3903,6164 3813,6133 3714,6102 3610,6073 3560,6046 3519,6021 3489,5995 3472,5970 3468,5943 3479,5916 3504,5887 3543,5857 3595,5826 3659,5796 3733,5768 3817,5743 3908,5723 4004,5707 4104,5698 4206,5695 4307,5698 4402,5705 4491,5715 4569,5726 4634,5736 4686,5743 4723,5745 4745,5741 4753,5729 4749,5709 4735,5681 4714,5644 4688,5601 4660,5553 4626,5492 4582,5410 4550,5334 4531,5266 4525,5208 4534,5161 4557,5125 4591,5101 4637,5088 4691,5085 4752,5089 4818,5100 4887,5115 4957,5133 5026,5150 5081,5155 5137,5158 5194,5164 5250,5169 5304,5171 5352,5170 5394,5163 5427,5147 5452,5122 5468,5087 5476,5041 5476,4984 5471,4918 5461,4844 5449,4763 5437,4679 5401,4578 5370,4478 5350,4386 5341,4305 5343,4238 5356,4185 5377,4148 5405,4126 5439,4119 5476,4126 5515,4144 5553,4170 5590,4202 5624,4237 5654,4272 5681,4302 5705,4326 5726,4341 5746,4346 5765,4340 5785,4322 5806,4291 5830,4247 5856,4189 5883,4119 5912,4037 5942,3944 5970,3843 5997,3739 6023,3693 6047,3654 6071,3626 6096,3609 6121,3606 6149,3617 6178,3642 6208,3681 6239,3732 6269,3796 6298,3870 6323,3954 6344,4045 6360,4141 6369,4242 6372,4344 6370,4446 6362,4542 6352,4631 6341,4709 6330,4775 6322,4826 6318,4863 6321,4885 6331,4893 6349,4888 6376,4873 6411,4850 6462,4816 6546,4763 6629,4717 6708,4680 6782,4653 6848,4639 6904,4637 6950,4649 6985,4674 7009,4710 7023,4758 7027,4813 7023,4876 7014,4943 7000,5013 6984,5084 6970,5151 6969,5205 6966,5263 6960,5322 6954,5380 6950,5435 6949,5485 6954,5528 6966,5563 6987,5589 7017,5605 7058,5613 7110,5612 7172,5604 7242,5592 7338,5553 7446,5508 7551,5470 7651,5441 7743,5423 7823,5415 7891,5418 7944,5431 7981,5453 8003,5481 8010,5515 8004,5552 7987,5591 7961,5629 7929,5665 7894,5698 7861,5728 7831,5753 7808,5776 7794,5796 7789,5814 7796,5832 7814,5852 7846,5873 7890,5897 7946,5923 8015,5952 8096,5983 8186,6014 8284,6044 8389,6073 8438,6100 8479,6126 " /><polygon
       id="polygon10"
       points="8653,6147 8609,6174 8551,6203 8480,6232 8398,6262 8308,6291 8211,6319 8111,6343 8010,6364 7910,6380 7814,6391 7723,6398 7641,6401 7568,6402 7507,6401 7460,6402 7427,6406 7409,6413 7404,6427 7412,6447 7430,6474 7455,6508 7485,6548 7516,6592 7545,6640 7568,6689 7584,6735 7588,6777 7587,6820 7584,6871 7566,6910 7534,6938 7489,6954 7434,6960 7371,6957 7302,6947 7231,6933 7158,6917 7088,6900 7020,6886 6956,6874 6898,6868 6845,6867 6802,6875 6762,6887 6728,6905 6700,6929 6680,6961 6667,7001 6662,7050 6664,7107 6672,7173 6683,7245 6697,7323 6710,7403 6721,7483 6726,7559 6724,7629 6714,7690 6713,7752 6706,7803 6689,7840 6662,7861 6628,7867 6589,7860 6548,7841 6506,7814 6465,7782 6427,7747 6394,7713 6365,7683 6341,7661 6321,7648 6304,7647 6290,7658 6277,7684 6263,7722 6248,7774 6230,7839 6210,7914 6186,8001 6160,8095 6132,8196 6103,8301 6074,8407 6046,8512 6020,8612 5997,8704 5975,8711 5952,8698 5927,8669 5901,8625 5873,8566 5844,8494 5815,8412 5785,8321 5758,8225 5733,8125 5712,8024 5696,7924 5683,7827 5676,7737 5672,7654 5671,7581 5671,7520 5670,7473 5666,7440 5659,7422 5646,7418 5626,7426 5600,7444 5567,7470 5527,7501 5483,7532 5436,7562 5389,7587 5339,7606 5271,7629 5210,7637 5160,7630 5121,7609 5094,7573 5077,7526 5070,7468 5072,7403 5080,7332 5093,7259 5108,7185 5123,7112 5136,7043 5146,6979 5152,6920 5151,6868 5142,6824 5129,6783 5112,6748 5090,6720 5060,6699 5023,6686 4977,6681 4923,6684 4861,6693 4792,6706 4719,6721 4642,6737 4566,6750 4492,6757 4410,6777 4331,6793 4264,6797 4212,6789 4175,6771 4153,6743 4146,6709 4152,6669 4170,6627 4196,6585 4228,6544 4262,6507 4295,6473 4324,6444 4346,6421 4359,6401 4359,6385 4347,6372 4322,6360 4283,6347 4231,6332 4166,6315 4090,6294 4005,6271 3911,6244 3811,6215 3707,6185 3603,6155 3500,6126 3402,6098 3312,6073 3306,6050 3317,6026 3345,6000 3388,5973 3447,5944 3518,5915 3600,5885 3690,5855 3787,5828 3887,5804 3988,5783 4088,5767 4185,5756 4276,5749 4359,5746 4431,5745 4492,5745 4539,5745 4572,5741 4590,5733 4595,5720 4587,5700 4569,5673 4544,5639 4514,5599 4483,5554 4454,5507 4430,5458 4415,5412 4410,5370 4411,5327 4413,5276 4431,5237 4464,5209 4508,5193 4564,5187 4627,5190 4695,5199 4766,5213 4838,5229 4909,5246 4977,5261 5040,5272 5098,5278 5151,5279 5194,5271 5234,5258 5268,5240 5296,5216 5316,5185 5329,5145 5334,5096 5332,5039 5324,4973 5312,4901 5299,4824 5285,4744 5275,4664 5269,4588 5271,4518 5280,4456 5278,4393 5285,4341 5302,4305 5329,4284 5363,4277 5402,4284 5444,4302 5486,4329 5527,4361 5565,4395 5598,4429 5627,4458 5652,4480 5672,4493 5689,4494 5703,4482 5717,4457 5731,4419 5746,4367 5764,4303 5785,4227 5809,4141 5835,4047 5863,3947 5891,3842 5920,3736 5948,3631 5974,3531 5997,3443 6019,3439 6042,3451 6067,3480 6093,3525 6121,3584 6150,3656 6179,3738 6208,3829 6236,3926 6261,4026 6282,4128 6298,4228 6310,4325 6317,4416 6321,4499 6322,4572 6322,4633 6322,4680 6325,4713 6333,4731 6345,4735 6365,4727 6391,4708 6424,4682 6463,4651 6507,4618 6554,4588 6601,4563 6654,4541 6724,4517 6785,4509 6835,4516 6874,4537 6902,4573 6919,4620 6926,4678 6924,4744 6916,4814 6903,4888 6888,4962 6873,5035 6860,5104 6850,5168 6845,5228 6845,5280 6854,5324 6867,5364 6884,5399 6907,5427 6937,5448 6975,5461 7021,5465 7075,5463 7137,5454 7205,5441 7279,5425 7356,5410 7432,5397 7506,5389 7588,5370 7668,5353 7734,5349 7786,5357 7823,5376 7845,5403 7852,5438 7846,5477 7828,5519 7802,5561 7770,5602 7736,5640 7703,5673 7674,5702 7653,5726 7641,5746 7640,5761 7652,5775 7678,5787 7717,5800 7769,5815 7833,5832 7909,5852 7994,5876 8088,5903 8187,5932 8291,5962 8395,5992 8498,6021 8596,6049 8685,6073 8691,6097 8680,6121 " /><polygon
       id="polygon12"
       points="8533,6151 8438,6180 8337,6210 8233,6240 8130,6268 8030,6293 7936,6316 7848,6335 7770,6350 7703,6362 7648,6371 7606,6380 7578,6389 7564,6401 7563,6416 7573,6435 7594,6460 7622,6491 7654,6526 7688,6567 7719,6610 7744,6654 7761,6698 7767,6739 7760,6773 7738,6800 7702,6817 7650,6823 7591,6823 7534,6831 7468,6830 7397,6821 7322,6808 7247,6792 7175,6776 7106,6763 7044,6753 6988,6749 6940,6752 6899,6763 6864,6780 6837,6805 6814,6835 6800,6873 6791,6917 6789,6969 6793,7028 6803,7093 6815,7163 6830,7237 6845,7313 6857,7388 6864,7461 6864,7528 6856,7587 6838,7635 6809,7670 6768,7690 6717,7694 6676,7696 6635,7689 6591,7672 6545,7646 6500,7614 6458,7581 6420,7549 6389,7521 6363,7501 6344,7491 6330,7493 6320,7509 6314,7540 6309,7584 6304,7642 6297,7713 6287,7793 6273,7882 6256,7978 6234,8079 6209,8182 6181,8284 6153,8383 6123,8477 6095,8563 6067,8638 6042,8700 6018,8747 5997,8777 5975,8716 5950,8638 5924,8549 5896,8452 5867,8350 5838,8246 5811,8143 5785,8042 5763,7947 5743,7860 5728,7782 5715,7715 5704,7660 5694,7618 5684,7591 5672,7577 5656,7576 5636,7587 5611,7608 5581,7636 5545,7669 5505,7703 5463,7735 5419,7761 5375,7779 5335,7786 5301,7779 5275,7758 5256,7724 5227,7689 5207,7641 5198,7581 5198,7513 5204,7438 5216,7361 5230,7283 5244,7208 5256,7136 5265,7071 5268,7014 5264,6963 5254,6921 5236,6886 5212,6858 5181,6836 5144,6822 5100,6814 5049,6812 4992,6817 4929,6828 4862,6842 4790,6858 4717,6874 4644,6887 4574,6896 4510,6898 4454,6891 4409,6874 4378,6845 4348,6822 4326,6796 4319,6761 4324,6720 4341,6674 4366,6628 4396,6582 4428,6540 4460,6502 4487,6470 4506,6444 4516,6424 4513,6410 4497,6400 4466,6394 4421,6389 4364,6385 4294,6378 4213,6369 4124,6356 4028,6339 3928,6317 3825,6292 3723,6265 3624,6235 3531,6205 3446,6176 3373,6148 3312,6121 3267,6096 3239,6073 3301,6050 3377,6024 3465,5996 3560,5967 3661,5937 3765,5907 3868,5879 3968,5853 4063,5831 4151,5812 4229,5797 4296,5785 4351,5775 4393,5767 4421,5757 4436,5746 4437,5731 4426,5712 4405,5687 4377,5656 4344,5621 4311,5580 4280,5537 4254,5493 4237,5449 4231,5409 4238,5374 4260,5347 4296,5330 4348,5325 4407,5324 4464,5316 4530,5317 4601,5326 4676,5339 4750,5355 4823,5370 4891,5384 4953,5393 5009,5397 5057,5394 5098,5383 5132,5366 5159,5341 5181,5311 5196,5273 5205,5228 5207,5177 5203,5118 5193,5054 5181,4984 5166,4910 5151,4834 5139,4759 5132,4686 5131,4619 5139,4560 5157,4512 5186,4477 5227,4457 5277,4452 5315,4448 5355,4454 5400,4472 5446,4497 5491,4528 5533,4561 5570,4593 5602,4620 5628,4640 5648,4650 5662,4647 5672,4631 5679,4601 5684,4556 5690,4498 5697,4428 5707,4348 5721,4259 5739,4164 5760,4063 5785,3961 5813,3859 5841,3760 5871,3666 5899,3580 5926,3505 5952,3443 5975,3397 5997,3369 6019,3434 6043,3512 6070,3601 6098,3698 6127,3800 6156,3905 6184,4008 6209,4109 6232,4204 6251,4292 6267,4370 6279,4438 6290,4493 6299,4534 6309,4562 6321,4576 6336,4577 6356,4566 6380,4544 6411,4515 6446,4482 6486,4448 6529,4416 6573,4389 6616,4371 6656,4364 6690,4370 6716,4391 6738,4422 6768,4457 6788,4505 6797,4565 6798,4633 6791,4708 6780,4786 6766,4864 6752,4940 6740,5011 6731,5076 6728,5134 6732,5184 6742,5227 6760,5262 6784,5290 6815,5312 6852,5326 6896,5334 6947,5335 7004,5330 7067,5320 7135,5305 7207,5289 7280,5273 7353,5259 7423,5250 7487,5248 7543,5255 7588,5272 7620,5301 7650,5324 7672,5350 7679,5385 7674,5427 7658,5472 7633,5519 7603,5564 7570,5607 7539,5645 7512,5677 7493,5703 7484,5723 7487,5737 7503,5746 7533,5753 7578,5757 7636,5762 7706,5768 7786,5778 7875,5791 7970,5808 8071,5829 8173,5854 8275,5882 8373,5911 8466,5941 8551,5971 8625,5999 8685,6026 8730,6050 8759,6073 8696,6097 8620,6123 " /><polygon
       id="polygon14"
       points="8239,6160 8140,6190 8048,6220 7965,6248 7892,6273 7832,6295 7783,6314 7748,6331 7725,6347 7715,6363 7717,6380 7731,6399 7753,6422 7783,6450 7817,6481 7851,6516 7883,6555 7909,6595 7927,6635 7933,6673 7926,6707 7904,6735 7867,6756 7814,6766 7747,6765 7667,6753 7576,6730 7477,6695 7381,6662 7303,6647 7228,6632 7158,6619 7097,6611 7044,6609 7000,6615 6966,6630 6941,6653 6923,6685 6912,6725 6906,6770 6903,6820 6902,6872 6901,6924 6910,6987 6924,7055 6940,7127 6955,7199 6968,7271 6977,7340 6980,7403 6974,7460 6959,7508 6933,7544 6896,7567 6848,7576 6789,7571 6721,7552 6645,7520 6564,7476 6507,7441 6461,7410 6421,7381 6387,7356 6360,7339 6341,7333 6329,7339 6324,7359 6325,7393 6328,7443 6334,7506 6339,7582 6343,7668 6342,7762 6337,7861 6327,7961 6311,8062 6290,8160 6266,8254 6238,8341 6208,8419 6178,8487 6148,8543 6120,8585 6093,8612 6068,8625 6044,8621 6020,8603 5997,8572 5972,8468 5945,8360 5916,8254 5887,8153 5859,8060 5832,7976 5807,7903 5785,7842 5765,7794 5747,7759 5730,7737 5714,7727 5695,7730 5675,7744 5651,7767 5623,7798 5591,7832 5555,7866 5516,7899 5476,7925 5436,7944 5398,7950 5364,7944 5337,7922 5317,7885 5308,7833 5309,7766 5323,7686 5344,7598 5350,7520 5360,7438 5372,7356 5385,7278 5396,7204 5402,7138 5403,7081 5397,7034 5383,6996 5360,6968 5329,6948 5291,6936 5247,6928 5198,6925 5148,6924 5095,6925 5032,6937 4964,6953 4894,6970 4823,6987 4753,7001 4686,7011 4624,7014 4569,7010 4524,6995 4491,6969 4471,6931 4465,6882 4475,6822 4500,6752 4521,6695 4544,6645 4571,6596 4600,6549 4629,6508 4652,6472 4668,6445 4674,6424 4668,6412 4647,6406 4613,6405 4563,6408 4500,6414 4424,6419 4339,6422 4245,6422 4147,6418 4047,6408 3947,6392 3849,6372 3755,6347 3668,6320 3589,6290 3521,6260 3466,6231 3424,6202 3397,6174 3386,6148 3391,6123 3411,6098 3445,6073 3549,6047 3655,6017 3759,5987 3859,5956 3951,5927 4034,5899 4107,5874 4168,5852 4216,5832 4252,5815 4274,5800 4284,5784 4282,5767 4268,5748 4245,5724 4216,5697 4182,5666 4147,5630 4115,5592 4089,5552 4071,5512 4065,5474 4072,5440 4094,5412 4131,5392 4184,5381 4251,5382 4331,5394 4422,5417 4521,5452 4617,5485 4695,5500 4770,5515 4840,5528 4901,5536 4954,5537 4997,5531 5031,5517 5056,5493 5074,5461 5085,5422 5091,5376 5093,5326 5094,5274 5095,5222 5086,5159 5072,5091 5057,5020 5041,4948 5028,4876 5019,4808 5016,4744 5022,4687 5037,4640 5063,4604 5100,4581 5148,4571 5207,4576 5275,4595 5350,4627 5430,4670 5483,4702 5528,4732 5569,4761 5603,4785 5630,4802 5649,4808 5661,4802 5667,4782 5667,4747 5663,4698 5658,4634 5653,4559 5650,4473 5651,4379 5656,4281 5667,4181 5683,4081 5703,3983 5728,3889 5756,3802 5786,3724 5816,3656 5845,3600 5874,3558 5900,3531 5926,3519 5950,3522 5974,3540 5997,3575 6022,3682 6050,3790 6079,3897 6108,3998 6137,4091 6163,4176 6188,4249 6210,4310 6230,4359 6247,4394 6264,4416 6280,4425 6298,4422 6319,4408 6342,4384 6370,4354 6402,4320 6437,4285 6476,4252 6516,4225 6556,4206 6594,4199 6627,4206 6655,4227 6674,4264 6684,4316 6682,4383 6668,4463 6649,4549 6645,4627 6636,4709 6623,4790 6611,4869 6600,4943 6593,5009 6592,5066 6599,5114 6613,5152 6636,5180 6667,5200 6705,5212 6749,5219 6798,5223 6848,5224 6901,5223 6964,5210 7032,5195 7102,5177 7173,5161 7243,5146 7311,5136 7373,5132 7428,5137 7473,5152 7506,5178 7527,5215 7532,5264 7523,5324 7499,5394 7477,5451 7455,5501 7428,5550 7398,5597 7370,5639 7347,5674 7331,5702 7325,5722 7332,5735 7352,5741 7387,5741 7436,5738 7499,5733 7575,5728 7660,5724 7753,5724 7851,5729 7951,5739 8051,5755 8149,5775 8243,5799 8330,5827 8408,5856 8476,5886 8531,5916 8573,5945 8600,5972 8611,5999 8607,6024 8587,6049 8553,6073 8449,6100 8343,6129 " /><polygon
       id="polygon16"
       points="7993,6167 7941,6197 7902,6225 7876,6250 7863,6273 7861,6295 7869,6315 7885,6336 7909,6358 7938,6382 7970,6410 8004,6441 8035,6475 8061,6511 8078,6548 8084,6584 8076,6618 8054,6647 8017,6671 7964,6686 7896,6693 7815,6690 7722,6677 7622,6654 7516,6622 7408,6583 7302,6539 7200,6492 7116,6458 7065,6458 7026,6466 6999,6484 6983,6511 6977,6549 6979,6595 6987,6649 6999,6709 7012,6773 7025,6838 7036,6902 7043,6963 7044,7018 7039,7067 7051,7132 7061,7197 7066,7259 7064,7314 7052,7361 7031,7398 6998,7424 6955,7439 6902,7441 6839,7431 6768,7409 6691,7378 6610,7339 6528,7294 6447,7247 6370,7200 6333,7179 6315,7176 6307,7186 6307,7210 6314,7248 6326,7302 6343,7369 6361,7450 6378,7540 6392,7639 6403,7742 6407,7847 6405,7950 6396,8047 6380,8137 6358,8217 6332,8287 6302,8346 6271,8393 6239,8427 6208,8449 6179,8457 6151,8454 6125,8438 6100,8411 6075,8376 6050,8335 6025,8289 5998,8242 5969,8154 5939,8074 5910,8006 5881,7953 5855,7913 5830,7887 5807,7873 5785,7871 5764,7880 5742,7897 5719,7922 5693,7952 5664,7985 5632,8019 5597,8051 5560,8077 5523,8095 5486,8101 5452,8094 5423,8072 5400,8034 5385,7981 5379,7913 5383,7832 5397,7740 5421,7639 5454,7533 5496,7425 5538,7323 5548,7247 5553,7181 5551,7125 5542,7080 5524,7047 5497,7026 5461,7015 5416,7012 5364,7017 5307,7026 5245,7038 5183,7050 5121,7060 5062,7066 5008,7068 4957,7068 4890,7084 4825,7096 4764,7102 4710,7100 4664,7089 4628,7067 4603,7034 4591,6990 4592,6934 4605,6869 4631,6796 4668,6716 4713,6633 4766,6548 4799,6492 4819,6455 4830,6426 4832,6407 4821,6396 4797,6394 4758,6399 4705,6410 4637,6425 4557,6442 4467,6458 4369,6472 4266,6482 4162,6486 4060,6484 3963,6475 3874,6459 3794,6438 3723,6412 3664,6382 3617,6352 3582,6321 3560,6290 3551,6261 3555,6233 3571,6207 3597,6181 3633,6156 3677,6130 3725,6102 3775,6073 3864,6042 3941,6011 4006,5979 4058,5950 4097,5922 4123,5896 4136,5873 4138,5852 4130,5831 4114,5811 4090,5789 4061,5764 4028,5737 3994,5706 3963,5672 3937,5636 3920,5599 3914,5562 3921,5529 3943,5499 3981,5476 4034,5461 4102,5454 4184,5457 4276,5470 4376,5493 4482,5525 4591,5564 4697,5608 4799,5655 4883,5689 4934,5689 4973,5681 5000,5663 5015,5635 5021,5598 5019,5551 5011,5497 4998,5437 4985,5373 4971,5308 4960,5244 4954,5183 4952,5128 4957,5079 4947,5016 4936,4950 4931,4889 4933,4834 4944,4787 4966,4750 4998,4723 5041,4709 5094,4707 5157,4716 5228,4738 5305,4769 5386,4808 5468,4852 5549,4900 5623,4945 5656,4962 5674,4965 5682,4955 5683,4931 5676,4892 5664,4839 5648,4771 5631,4691 5614,4601 5600,4503 5590,4400 5585,4295 5588,4193 5597,4095 5613,4006 5635,3926 5662,3857 5692,3798 5723,3751 5755,3716 5786,3695 5815,3686 5843,3690 5869,3705 5895,3732 5919,3767 5944,3808 5970,3854 5998,3904 6027,3997 6057,4077 6086,4145 6115,4199 6141,4239 6166,4265 6188,4279 6210,4281 6231,4272 6252,4255 6275,4230 6301,4200 6329,4166 6361,4132 6396,4099 6433,4073 6470,4055 6506,4049 6540,4056 6569,4078 6592,4115 6607,4169 6613,4237 6609,4318 6594,4410 6570,4511 6536,4617 6494,4725 6455,4825 6447,4900 6443,4967 6445,5023 6454,5067 6472,5100 6499,5122 6535,5133 6580,5136 6632,5131 6689,5122 6751,5110 6814,5098 6876,5087 6935,5081 6989,5079 7039,5080 7107,5064 7172,5051 7232,5045 7286,5047 7333,5058 7369,5080 7394,5113 7406,5157 7406,5212 7392,5277 7367,5351 7330,5430 7285,5514 7233,5599 7200,5655 7181,5692 7169,5720 7167,5740 7178,5751 7202,5753 7241,5748 7295,5737 7362,5722 7442,5705 7532,5689 7630,5675 7732,5665 7836,5661 7938,5663 8035,5672 8124,5687 8204,5709 8274,5735 8333,5764 8380,5795 8415,5826 8437,5857 8446,5886 8443,5913 8427,5940 8401,5965 8365,5991 8321,6017 8274,6044 8224,6073 8135,6104 8058,6136 " /><polygon
       id="polygon18"
       points="7979,6168 7990,6195 8009,6221 8034,6246 8064,6269 8096,6293 8128,6318 8157,6345 8183,6374 8203,6405 8216,6439 8219,6474 8211,6508 8188,6540 8150,6567 8097,6588 8029,6603 7948,6609 7856,6607 7756,6596 7650,6578 7543,6552 7436,6521 7335,6487 7241,6452 7157,6418 7085,6388 7027,6365 6995,6364 7000,6405 7015,6457 7038,6517 7066,6584 7096,6656 7126,6731 7153,6806 7174,6879 7188,6946 7194,7007 7191,7059 7178,7102 7156,7134 7125,7156 7115,7198 7099,7236 7073,7266 7037,7286 6991,7295 6935,7294 6872,7283 6802,7264 6728,7238 6652,7207 6576,7174 6504,7142 6436,7113 6376,7090 6324,7076 6281,7073 6285,7107 6307,7163 6335,7234 6365,7317 6396,7410 6425,7512 6451,7618 6470,7725 6483,7831 6488,7931 6484,8023 6473,8104 6454,8172 6430,8225 6400,8263 6367,8287 6333,8299 6299,8300 6267,8291 6237,8273 6209,8248 6183,8217 6158,8182 6134,8146 6109,8112 6084,8081 6057,8056 6028,8041 5998,8037 5967,8011 5938,7995 5909,7993 5883,8002 5858,8020 5833,8046 5810,8076 5785,8108 5759,8141 5732,8171 5701,8198 5668,8219 5634,8232 5598,8236 5563,8228 5532,8205 5504,8167 5482,8114 5468,8046 5462,7965 5464,7873 5476,7772 5495,7666 5522,7558 5554,7452 5590,7350 5627,7256 5664,7172 5691,7105 5672,7077 5641,7063 5600,7061 5551,7069 5493,7086 5428,7108 5359,7133 5287,7159 5215,7183 5145,7202 5080,7215 5021,7220 4971,7216 4929,7203 4898,7181 4871,7156 4825,7151 4786,7135 4757,7109 4738,7072 4729,7025 4731,6967 4744,6901 4766,6829 4795,6752 4831,6672 4869,6594 4909,6518 4945,6449 4976,6386 4973,6365 4944,6368 4902,6379 4845,6399 4774,6423 4691,6451 4598,6480 4497,6508 4391,6532 4284,6550 4179,6562 4079,6566 3988,6563 3907,6551 3840,6533 3787,6508 3748,6478 3724,6446 3711,6413 3709,6380 3718,6349 3735,6319 3760,6292 3790,6266 3824,6241 3860,6217 3896,6192 3928,6165 3955,6136 3973,6106 3981,6073 4007,6040 4020,6009 4020,5979 4010,5951 3990,5925 3964,5901 3934,5878 3902,5854 3870,5829 3840,5802 3815,5773 3794,5741 3782,5708 3778,5673 3787,5639 3809,5607 3848,5580 3901,5559 3969,5544 4050,5538 4142,5540 4242,5551 4348,5569 4456,5595 4562,5626 4664,5660 4759,5695 4843,5729 4914,5758 4973,5782 5005,5783 4999,5741 4984,5690 4960,5630 4932,5563 4901,5490 4871,5415 4844,5340 4823,5268 4808,5200 4802,5139 4805,5087 4818,5044 4840,5012 4871,4990 4883,4950 4898,4911 4924,4882 4959,4862 5005,4852 5061,4853 5124,4864 5194,4882 5268,4908 5344,4939 5419,4972 5492,5004 5560,5033 5620,5056 5672,5070 5712,5072 5703,5034 5682,4978 5655,4908 5625,4825 5594,4731 5565,4630 5541,4524 5521,4417 5509,4312 5504,4212 5508,4120 5520,4040 5538,3972 5563,3919 5593,3880 5627,3856 5661,3844 5694,3843 5727,3852 5757,3870 5785,3895 5812,3926 5837,3960 5861,3996 5886,4031 5912,4062 5939,4086 5968,4102 5998,4110 6029,4140 6059,4156 6087,4159 6113,4149 6138,4131 6162,4106 6185,4075 6209,4043 6235,4010 6262,3979 6293,3952 6325,3931 6360,3918 6395,3913 6430,3922 6461,3944 6489,3982 6510,4036 6524,4104 6530,4185 6527,4278 6516,4379 6496,4485 6469,4593 6436,4700 6400,4802 6362,4896 6325,4980 6302,5043 6324,5070 6355,5085 6395,5087 6445,5078 6503,5062 6568,5040 6637,5014 6709,4988 6781,4964 6851,4945 6917,4932 6975,4926 7026,4930 7068,4943 7099,4965 7125,4991 7171,4997 7210,5012 7239,5038 7259,5075 7267,5122 7265,5180 7253,5245 7232,5318 7202,5395 7167,5474 7129,5553 7090,5628 7054,5698 7023,5760 7027,5782 7055,5779 7097,5767 7154,5748 7225,5723 7308,5695 7401,5666 7502,5639 7608,5615 7714,5596 7819,5585 7919,5580 8010,5584 8090,5595 8158,5614 8211,5639 8249,5668 8273,5701 8286,5734 8288,5767 8280,5798 8263,5828 8238,5855 8208,5881 8174,5905 8138,5930 8103,5955 8071,5982 8044,6010 8026,6041 8019,6073 7992,6106 7979,6138 " /><polygon
       id="polygon20"
       points="8209,6161 8250,6186 8288,6212 8320,6237 8345,6263 8360,6291 8365,6320 8359,6351 8341,6383 8311,6415 8269,6445 8215,6473 8148,6496 8069,6513 7978,6523 7880,6525 7776,6520 7671,6508 7566,6491 7467,6471 7375,6448 7293,6426 7224,6406 7169,6391 7128,6382 7102,6382 7089,6391 7089,6410 7109,6452 7156,6530 7203,6611 7246,6694 7284,6774 7313,6851 7332,6921 7339,6983 7335,7034 7319,7075 7292,7105 7254,7124 7208,7132 7154,7132 7094,7124 7054,7136 7009,7143 6956,7143 6896,7136 6831,7123 6763,7106 6696,7087 6630,7068 6568,7052 6513,7042 6466,7039 6427,7046 6398,7064 6379,7094 6368,7137 6364,7192 6399,7279 6443,7381 6483,7488 6518,7597 6545,7703 6563,7804 6572,7897 6571,7978 6561,8046 6543,8100 6518,8138 6487,8160 6454,8167 6418,8162 6381,8145 6346,8119 6314,8090 6284,8057 6257,8025 6233,7994 6210,7968 6187,7947 6164,7934 6140,7931 6115,7939 6087,7960 6058,7995 6028,8046 5998,8110 5969,8146 5941,8183 5915,8223 5890,8264 5865,8301 5840,8333 5814,8358 5786,8374 5755,8380 5724,8375 5691,8357 5658,8328 5627,8286 5599,8232 5575,8165 5558,8085 5549,7994 5546,7896 5551,7791 5563,7685 5581,7581 5602,7481 5626,7389 5649,7307 5671,7238 5688,7183 5698,7143 5701,7117 5688,7109 5628,7138 5558,7174 5483,7213 5404,7253 5325,7291 5247,7323 5174,7348 5106,7364 5047,7369 4997,7363 4957,7346 4928,7318 4909,7280 4900,7233 4900,7179 4902,7125 4886,7088 4878,7041 4878,6986 4886,6924 4899,6857 4918,6787 4940,6717 4962,6648 4982,6584 4998,6527 5007,6477 5007,6438 4995,6409 4972,6389 4911,6410 4826,6450 4732,6491 4629,6532 4522,6569 4414,6601 4308,6627 4207,6643 4115,6651 4034,6650 3966,6639 3912,6621 3874,6596 3852,6566 3844,6532 3849,6496 3866,6460 3890,6426 3919,6395 3950,6366 3982,6340 4012,6316 4038,6294 4058,6272 4071,6249 4075,6224 4068,6197 4048,6169 4015,6138 3968,6106 3907,6073 3872,6042 3832,6013 3790,5986 3748,5960 3710,5935 3678,5910 3653,5884 3637,5856 3632,5827 3638,5796 3656,5764 3686,5732 3728,5701 3782,5674 3849,5650 3929,5634 4020,5624 4118,5622 4222,5627 4328,5639 4432,5655 4532,5676 4624,5699 4706,5721 4775,5741 4830,5756 4871,5764 4898,5765 4910,5755 4911,5737 4890,5695 4843,5617 4796,5536 4752,5453 4714,5372 4685,5296 4666,5226 4658,5164 4662,5112 4678,5071 4705,5042 4742,5023 4789,5014 4842,5014 4902,5022 4943,5012 4988,5004 5041,5004 5101,5011 5165,5023 5233,5040 5300,5059 5366,5078 5427,5093 5482,5104 5530,5107 5568,5100 5597,5082 5617,5052 5628,5009 5629,4953 5590,4863 5546,4761 5507,4654 5473,4546 5446,4440 5428,4339 5420,4247 5421,4165 5431,4097 5450,4044 5475,4006 5505,3984 5539,3976 5575,3982 5612,3999 5647,4024 5680,4053 5710,4085 5737,4117 5762,4148 5785,4174 5808,4195 5831,4208 5855,4211 5881,4203 5909,4182 5938,4147 5968,4097 5998,4036 6027,4005 6054,3968 6080,3928 6105,3887 6129,3850 6154,3817 6180,3792 6208,3776 6238,3770 6270,3775 6302,3792 6335,3822 6366,3864 6394,3918 6418,3985 6434,4065 6444,4156 6446,4255 6441,4360 6428,4466 6411,4571 6389,4671 6365,4764 6341,4845 6319,4915 6301,4970 6291,5010 6288,5035 6305,5039 6368,5010 6438,4974 6513,4934 6591,4894 6671,4856 6748,4824 6822,4799 6890,4783 6949,4777 7000,4783 7040,4800 7069,4828 7088,4866 7097,4913 7097,4967 7094,5023 7110,5060 7118,5106 7118,5161 7111,5223 7097,5290 7079,5360 7058,5430 7036,5499 7016,5563 7000,5620 6992,5669 6992,5709 7004,5738 7028,5757 7089,5737 7173,5697 7267,5656 7370,5615 7476,5577 7584,5545 7690,5520 7791,5503 7883,5495 7964,5497 8032,5507 8085,5526 8123,5551 8146,5581 8153,5615 8148,5650 8132,5686 8107,5721 8079,5752 8048,5781 8017,5807 7987,5830 7961,5853 7941,5875 7928,5898 7924,5923 7932,5949 7951,5978 7984,6009 8031,6041 8092,6073 8127,6104 8166,6133 " /><polygon
       id="polygon22"
       points="9289,6127 9288,6150 9276,6178 9253,6209 9217,6245 9169,6284 9111,6328 9044,6373 8968,6419 8886,6465 8799,6508 8708,6549 8615,6584 8520,6613 8425,6637 8334,6658 8250,6675 8174,6691 8111,6708 8060,6728 8022,6753 7998,6783 7987,6821 7987,6866 7996,6919 8011,6979 8030,7045 8049,7115 8067,7190 8083,7268 8087,7339 8078,7400 8055,7449 8019,7486 7970,7511 7910,7522 7840,7522 7762,7511 7678,7491 7590,7464 7500,7432 7411,7397 7323,7361 7282,7370 7244,7386 7202,7400 7161,7416 7122,7435 7087,7459 7057,7489 7034,7528 7019,7577 7011,7637 7011,7708 7016,7789 7026,7880 7039,7978 7053,8083 7064,8190 7078,8301 7083,8407 7077,8504 7059,8589 7030,8659 6991,8713 6942,8751 6886,8772 6825,8777 6761,8767 6695,8746 6630,8714 6567,8676 6507,8635 6451,8594 6399,8557 6353,8529 6312,8512 6275,8508 6240,8518 6208,8542 6176,8582 6146,8637 6116,8707 6087,8792 6060,8891 6035,9002 6013,9123 5996,9251 5981,9279 5964,9298 5944,9308 5921,9308 5894,9296 5862,9273 5826,9237 5787,9189 5743,9131 5698,9064 5651,8989 5605,8907 5562,8820 5521,8730 5486,8636 5457,8540 5433,8444 5413,8353 5395,8268 5379,8193 5362,8129 5343,8078 5319,8040 5289,8017 5251,8006 5206,8007 5153,8016 5093,8033 5025,8054 4942,8081 4861,8103 4785,8116 4716,8118 4657,8108 4608,8085 4571,8049 4546,8000 4533,7940 4532,7870 4541,7791 4559,7707 4584,7619 4614,7529 4648,7439 4673,7361 4655,7326 4639,7286 4624,7244 4609,7201 4590,7161 4567,7125 4538,7095 4501,7073 4454,7058 4397,7051 4328,7052 4248,7060 4159,7073 4060,7089 3949,7115 3833,7138 3720,7153 3614,7158 3517,7152 3432,7134 3362,7105 3307,7066 3269,7018 3247,6962 3242,6901 3251,6837 3272,6771 3303,6706 3340,6643 3381,6584 3421,6528 3457,6478 3484,6432 3499,6392 3503,6355 3492,6322 3468,6289 3428,6258 3373,6228 3303,6198 3219,6168 3121,6140 3011,6114 2891,6091 2764,6073 2737,6058 2717,6040 2707,6020 2707,5996 2718,5969 2742,5938 2778,5902 2826,5862 2884,5819 2951,5774 3027,5727 3109,5682 3197,5638 3287,5598 3381,5563 3476,5534 3572,5509 3663,5489 3748,5472 3823,5456 3887,5439 3938,5419 3976,5395 4000,5364 4011,5327 4011,5281 4002,5228 3987,5168 3968,5102 3949,5032 3930,4957 3914,4879 3910,4809 3919,4748 3941,4698 3977,4661 4026,4637 4086,4625 4156,4625 4234,4636 4319,4655 4406,4682 4496,4714 4585,4749 4673,4785 4716,4778 4754,4763 4795,4748 4836,4732 4875,4713 4910,4689 4939,4658 4962,4619 4977,4570 4985,4511 4985,4440 4979,4359 4969,4269 4956,4170 4942,4065 4930,3958 4915,3846 4910,3740 4916,3644 4934,3559 4963,3489 5002,3434 5051,3397 5107,3376 5168,3370 5232,3380 5298,3401 5363,3432 5426,3470 5486,3511 5542,3552 5594,3588 5640,3616 5681,3632 5719,3636 5753,3626 5786,3602 5817,3562 5847,3507 5877,3437 5906,3352 5933,3253 5958,3142 5979,3022 5996,2896 6011,2870 6028,2851 6048,2840 6071,2840 6098,2852 6129,2875 6165,2911 6206,2958 6249,3016 6295,3083 6342,3158 6388,3241 6431,3328 6472,3418 6507,3512 6536,3608 6560,3704 6580,3796 6597,3881 6613,3956 6630,4020 6649,4071 6673,4109 6703,4132 6740,4143 6785,4142 6839,4132 6899,4115 6969,4092 7053,4064 7134,4042 7210,4029 7279,4026 7339,4036 7388,4059 7426,4095 7451,4144 7464,4204 7466,4274 7457,4352 7439,4437 7414,4525 7384,4615 7351,4705 7323,4786 7341,4821 7357,4861 7372,4903 7388,4946 7406,4986 7429,5021 7459,5051 7496,5074 7543,5089 7601,5095 7669,5094 7749,5086 7839,5073 7937,5057 8049,5031 8164,5008 8276,4993 8383,4988 8480,4994 8564,5012 8635,5041 8689,5080 8727,5128 8749,5184 8754,5245 8745,5310 8724,5375 8693,5440 8656,5503 8615,5563 8575,5619 8539,5669 8513,5714 8497,5755 8494,5791 8505,5825 8529,5857 8569,5888 8624,5919 8694,5949 8778,5979 8876,6007 8985,6033 9105,6056 9232,6073 9258,6089 9278,6107 " /><polygon
       id="polygon24"
       points="9433,6123 9372,6148 9298,6177 9214,6210 9121,6247 9022,6286 8920,6326 8816,6366 8714,6405 8615,6441 8522,6476 8438,6507 8362,6536 8295,6563 8240,6590 8198,6618 8168,6648 8153,6683 8150,6724 8158,6771 8175,6825 8199,6885 8226,6951 8253,7021 8277,7093 8294,7165 8302,7235 8298,7299 8282,7356 8251,7402 8205,7436 8145,7456 8072,7464 7990,7460 7901,7446 7806,7424 7710,7397 7615,7366 7521,7335 7432,7304 7347,7276 7270,7252 7199,7232 7169,7254 7146,7285 7128,7323 7115,7368 7109,7422 7110,7484 7117,7556 7130,7637 7147,7727 7167,7824 7188,7925 7207,8030 7222,8134 7231,8235 7231,8329 7221,8414 7201,8487 7169,8545 7125,8586 7071,8611 7010,8620 6944,8614 6875,8596 6806,8568 6737,8534 6672,8496 6611,8459 6555,8425 6505,8397 6458,8378 6416,8370 6377,8376 6341,8397 6307,8434 6274,8487 6241,8555 6207,8637 6174,8732 6141,8837 6109,8950 6078,9070 6051,9193 6027,9316 6008,9435 5995,9548 5984,9533 5968,9501 5947,9453 5923,9392 5894,9318 5861,9234 5825,9141 5786,9042 5746,8939 5706,8835 5667,8732 5630,8634 5596,8541 5564,8457 5535,8380 5507,8314 5481,8258 5453,8215 5422,8186 5387,8171 5347,8168 5300,8177 5246,8195 5186,8219 5120,8247 5050,8275 4977,8300 4904,8318 4832,8328 4764,8327 4705,8311 4659,8280 4624,8234 4603,8174 4594,8102 4595,8020 4607,7930 4626,7836 4651,7740 4679,7643 4709,7549 4738,7459 4764,7374 4786,7296 4797,7233 4770,7207 4738,7185 4701,7166 4656,7154 4604,7148 4542,7150 4472,7158 4392,7173 4304,7193 4208,7216 4107,7240 4003,7262 3898,7280 3796,7292 3698,7298 3611,7292 3537,7273 3478,7241 3436,7198 3411,7146 3401,7085 3405,7020 3422,6951 3449,6882 3482,6814 3519,6749 3556,6688 3589,6633 3617,6582 3635,6536 3643,6494 3636,6456 3614,6421 3577,6388 3523,6355 3455,6322 3373,6289 3279,6255 3174,6222 3061,6189 2942,6159 2820,6131 2698,6107 2579,6087 2467,6073 2483,6061 2515,6045 2562,6024 2623,5999 2697,5970 2781,5937 2874,5900 2973,5861 3076,5821 3180,5781 3282,5742 3381,5705 3474,5671 3559,5639 3635,5610 3702,5583 3757,5557 3800,5529 3829,5499 3845,5464 3848,5423 3840,5376 3822,5323 3798,5262 3771,5197 3744,5127 3720,5055 3703,4982 3695,4913 3698,4849 3715,4792 3745,4745 3792,4712 3852,4691 3924,4683 4006,4687 4096,4701 4190,4723 4286,4750 4382,4780 4475,4812 4565,4843 4649,4871 4726,4894 4797,4914 4829,4894 4851,4863 4869,4825 4882,4780 4888,4726 4887,4664 4880,4592 4867,4511 4849,4421 4829,4325 4808,4223 4788,4119 4773,4015 4764,3914 4764,3820 4773,3735 4793,3662 4825,3604 4869,3562 4922,3537 4983,3528 5049,3533 5118,3551 5187,3578 5255,3612 5320,3649 5381,3686 5437,3720 5488,3748 5535,3766 5577,3774 5616,3769 5652,3747 5686,3710 5719,3657 5753,3589 5786,3507 5819,3413 5852,3308 5884,3194 5914,3074 5941,2952 5964,2829 5983,2710 5995,2599 6007,2616 6023,2648 6043,2695 6068,2756 6097,2830 6130,2914 6167,3007 6206,3106 6246,3209 6287,3313 6326,3416 6363,3515 6397,3607 6429,3692 6458,3769 6485,3836 6512,3891 6540,3934 6570,3963 6605,3978 6645,3981 6692,3972 6746,3954 6806,3929 6872,3901 6943,3872 7016,3847 7090,3828 7162,3818 7231,3818 7289,3833 7336,3864 7371,3910 7393,3970 7402,4042 7401,4124 7390,4214 7371,4308 7346,4405 7318,4501 7289,4595 7260,4686 7234,4771 7212,4849 7199,4915 7226,4940 7258,4963 7296,4981 7340,4993 7393,4999 7454,4997 7525,4988 7605,4973 7693,4954 7789,4931 7890,4907 7994,4884 8099,4865 8201,4853 8298,4848 8386,4854 8460,4873 8518,4904 8560,4947 8586,5000 8596,5061 8591,5126 8574,5195 8547,5264 8514,5332 8477,5397 8441,5458 8407,5514 8380,5565 8362,5610 8354,5652 8360,5690 8382,5726 8420,5759 8474,5792 8542,5825 8624,5858 8718,5892 8822,5925 8935,5957 9054,5988 9176,6016 9297,6040 9416,6060 9528,6073 9512,6086 9480,6102 " /><polygon
       id="polygon26"
       points="9313,6126 9200,6154 9084,6184 8968,6217 8854,6252 8745,6288 8644,6323 8553,6357 8474,6391 8408,6423 8356,6456 8320,6489 8299,6525 8291,6562 8295,6604 8311,6651 8335,6703 8366,6760 8400,6823 8434,6891 8464,6961 8488,7031 8502,7101 8504,7167 8492,7226 8464,7277 8420,7317 8360,7344 8286,7359 8201,7362 8107,7355 8007,7340 7905,7318 7803,7292 7705,7265 7611,7240 7524,7217 7444,7199 7373,7186 7310,7181 7256,7182 7209,7189 7168,7200 7167,7251 7175,7315 7190,7387 7209,7467 7232,7554 7258,7646 7285,7743 7310,7843 7332,7942 7348,8039 7355,8131 7353,8214 7339,8286 7313,8345 7275,8390 7224,8418 7164,8431 7098,8431 7027,8418 6954,8396 6882,8367 6813,8335 6748,8303 6689,8275 6636,8253 6589,8241 6547,8239 6511,8251 6478,8276 6446,8315 6416,8366 6384,8430 6351,8506 6317,8594 6281,8691 6244,8795 6207,8904 6169,9015 6133,9125 6100,9232 6070,9332 6044,9424 6023,9504 6006,9570 5995,9621 5984,9538 5966,9440 5944,9333 5918,9220 5888,9103 5855,8986 5821,8871 5786,8762 5751,8661 5716,8570 5683,8491 5650,8425 5616,8374 5582,8338 5547,8317 5508,8309 5466,8314 5420,8329 5367,8354 5310,8385 5247,8420 5179,8454 5109,8486 5038,8510 4968,8525 4902,8528 4841,8517 4790,8489 4749,8446 4720,8388 4702,8315 4696,8231 4701,8138 4713,8039 4732,7937 4755,7835 4779,7735 4802,7641 4823,7553 4839,7472 4850,7400 4855,7337 4853,7282 4846,7234 4828,7201 4772,7205 4709,7215 4637,7230 4559,7251 4473,7277 4381,7305 4285,7334 4186,7362 4087,7387 3990,7406 3898,7416 3814,7416 3741,7405 3681,7380 3636,7343 3606,7295 3592,7237 3591,7172 3602,7102 3623,7030 3651,6959 3681,6890 3712,6826 3740,6766 3761,6713 3773,6666 3773,6625 3762,6589 3736,6556 3698,6525 3647,6494 3583,6463 3506,6430 3418,6397 3321,6361 3217,6324 3108,6287 2997,6249 2887,6213 2781,6180 2681,6150 2590,6124 2510,6102 2444,6085 2393,6073 2478,6061 2575,6043 2682,6020 2795,5993 2911,5963 3028,5929 3142,5894 3251,5859 3352,5824 3443,5789 3523,5756 3589,5723 3641,5691 3677,5657 3698,5622 3706,5584 3702,5543 3686,5496 3662,5444 3631,5387 3597,5324 3563,5257 3533,5187 3509,5116 3494,5047 3492,4981 3504,4922 3532,4871 3576,4831 3636,4803 3710,4789 3796,4785 3890,4792 3989,4808 4091,4829 4193,4855 4292,4882 4386,4907 4473,4930 4552,4948 4623,4960 4686,4966 4740,4965 4787,4957 4828,4946 4831,4897 4822,4833 4808,4761 4788,4681 4765,4595 4739,4502 4712,4406 4686,4306 4664,4207 4648,4110 4640,4019 4642,3935 4656,3863 4681,3804 4720,3759 4770,3731 4830,3717 4896,3717 4966,3729 5039,3751 5110,3779 5179,3811 5244,3842 5303,3870 5357,3891 5404,3904 5445,3905 5482,3893 5515,3868 5547,3829 5578,3778 5609,3715 5642,3638 5676,3551 5712,3454 5749,3350 5786,3241 5823,3130 5859,3020 5892,2913 5921,2813 5947,2721 5968,2641 5984,2575 5995,2526 6007,2611 6024,2708 6047,2815 6074,2929 6104,3046 6137,3163 6172,3277 6207,3386 6242,3488 6277,3579 6311,3658 6344,3724 6377,3775 6411,3811 6446,3832 6484,3840 6526,3835 6573,3819 6625,3794 6683,3763 6746,3728 6813,3693 6884,3661 6955,3636 7025,3621 7092,3618 7152,3629 7204,3656 7245,3699 7275,3757 7292,3829 7299,3914 7295,4007 7282,4106 7264,4208 7241,4310 7218,4409 7194,4504 7174,4593 7158,4673 7147,4745 7143,4809 7144,4864 7152,4911 7168,4946 7224,4942 7288,4932 7359,4917 7438,4896 7523,4870 7615,4842 7711,4812 7810,4784 7909,4759 8006,4740 8098,4730 8182,4729 8255,4741 8315,4766 8360,4802 8390,4851 8405,4909 8406,4974 8395,5044 8374,5116 8346,5187 8316,5256 8285,5321 8258,5380 8237,5433 8225,5480 8224,5521 8236,5558 8261,5591 8299,5622 8350,5653 8414,5684 8491,5716 8578,5750 8675,5785 8779,5822 8888,5860 8998,5897 9108,5933 9214,5967 9314,5997 9405,6023 9485,6045 9551,6062 9602,6073 9517,6086 9419,6104 " /><polygon
       id="polygon28"
       points="9019,6136 8903,6164 8796,6194 8699,6226 8616,6257 8546,6289 8492,6321 8453,6354 8429,6388 8420,6424 8426,6464 8445,6508 8475,6557 8510,6611 8549,6669 8588,6732 8624,6797 8653,6865 8672,6932 8679,6997 8671,7058 8648,7113 8608,7159 8551,7194 8479,7218 8393,7230 8295,7230 8187,7217 8076,7197 7970,7178 7866,7158 7769,7138 7680,7121 7600,7110 7530,7104 7471,7107 7421,7117 7379,7135 7345,7159 7318,7188 7294,7221 7274,7256 7254,7289 7278,7366 7309,7453 7340,7545 7371,7638 7398,7732 7420,7823 7435,7910 7440,7990 7434,8062 7417,8122 7387,8169 7344,8203 7290,8222 7225,8228 7151,8219 7071,8200 6995,8176 6924,8152 6857,8127 6796,8106 6742,8092 6696,8087 6657,8093 6624,8113 6597,8146 6573,8193 6551,8253 6530,8324 6506,8405 6480,8492 6449,8584 6414,8678 6376,8775 6335,8872 6292,8967 6248,9057 6206,9142 6166,9218 6129,9285 6097,9340 6068,9382 6045,9410 6025,9425 6008,9426 5995,9416 5981,9290 5961,9162 5937,9038 5909,8921 5880,8812 5849,8715 5818,8632 5786,8562 5753,8508 5720,8469 5686,8445 5648,8437 5608,8444 5563,8464 5513,8494 5459,8530 5400,8570 5338,8609 5272,8645 5205,8674 5137,8694 5072,8701 5011,8694 4956,8671 4910,8632 4874,8575 4850,8504 4838,8417 4838,8320 4843,8218 4855,8112 4870,8006 4888,7903 4905,7805 4919,7714 4928,7633 4932,7562 4929,7500 4918,7449 4900,7407 4877,7372 4848,7344 4816,7321 4782,7300 4742,7290 4660,7321 4573,7354 4482,7388 4390,7420 4297,7450 4206,7474 4119,7491 4039,7498 3967,7495 3907,7479 3859,7449 3826,7407 3807,7353 3803,7287 3810,7216 3824,7144 3844,7072 3867,7002 3890,6935 3910,6875 3923,6821 3927,6775 3920,6736 3900,6703 3867,6675 3820,6651 3760,6629 3689,6607 3609,6584 3522,6557 3431,6527 3336,6492 3240,6454 3143,6413 3048,6370 2957,6327 2872,6285 2795,6245 2729,6208 2674,6176 2632,6148 2604,6124 2589,6104 2588,6087 2599,6073 2726,6058 2853,6036 2977,6011 3093,5983 3201,5953 3297,5921 3381,5889 3450,5857 3505,5825 3544,5793 3568,5759 3577,5722 3571,5683 3551,5638 3522,5589 3486,5536 3447,5477 3408,5415 3372,5350 3343,5282 3324,5215 3317,5150 3325,5089 3348,5035 3388,4989 3445,4953 3517,4929 3604,4918 3702,4918 3810,4930 3921,4950 4027,4969 4131,4990 4228,5010 4317,5026 4397,5038 4467,5042 4526,5040 4576,5030 4617,5012 4651,4988 4679,4958 4702,4925 4723,4890 4742,4857 4721,4783 4690,4696 4658,4604 4627,4511 4600,4418 4577,4327 4562,4240 4557,4159 4562,4088 4579,4028 4609,3980 4651,3946 4705,3927 4770,3921 4843,3929 4923,3948 4998,3970 5069,3995 5135,4019 5196,4039 5250,4053 5296,4058 5335,4051 5368,4031 5395,3998 5419,3951 5441,3892 5463,3821 5487,3740 5513,3653 5544,3561 5579,3467 5617,3371 5658,3274 5701,3179 5744,3089 5786,3004 5826,2927 5863,2861 5895,2806 5923,2764 5946,2735 5966,2720 5982,2718 5995,2731 6010,2859 6031,2987 6056,3111 6083,3229 6113,3337 6144,3434 6176,3518 6208,3588 6240,3642 6273,3681 6308,3704 6345,3712 6385,3705 6430,3685 6480,3654 6534,3618 6592,3578 6655,3539 6721,3502 6788,3472 6856,3452 6921,3445 6983,3451 7037,3474 7084,3514 7120,3570 7144,3642 7156,3728 7156,3825 7151,3927 7140,4033 7125,4139 7108,4243 7091,4341 7077,4431 7068,4512 7064,4584 7068,4645 7079,4697 7096,4739 7120,4773 7150,4801 7182,4825 7216,4845 7254,4857 7336,4826 7423,4793 7514,4759 7607,4726 7700,4697 7791,4672 7877,4655 7958,4648 8029,4651 8090,4667 8137,4697 8171,4739 8190,4793 8194,4859 8187,4929 8173,5001 8153,5074 8130,5144 8107,5211 8088,5271 8075,5325 8070,5371 8077,5411 8097,5444 8131,5472 8177,5496 8237,5518 8308,5539 8388,5563 8475,5589 8565,5620 8659,5655 8756,5693 8853,5734 8948,5777 9038,5820 9123,5862 9199,5902 9266,5938 9321,5971 9363,5999 9391,6023 9406,6043 9407,6060 9396,6073 9269,6089 9142,6110 " /><polygon
       id="polygon30"
       points="8773,6143 8704,6171 8650,6199 8611,6228 8586,6258 8576,6289 8577,6322 8590,6359 8613,6399 8643,6444 8678,6494 8718,6550 8756,6610 8788,6673 8811,6737 8821,6800 8817,6861 8798,6917 8762,6968 8709,7010 8641,7044 8558,7067 8463,7080 8359,7082 8248,7075 8134,7060 8020,7039 7910,7014 7811,6993 7732,6989 7665,6991 7610,7002 7566,7021 7533,7049 7509,7085 7491,7126 7478,7173 7468,7222 7459,7272 7448,7320 7434,7364 7416,7402 7392,7432 7418,7510 7446,7595 7467,7677 7479,7753 7482,7822 7473,7881 7453,7931 7421,7969 7377,7995 7322,8009 7258,8012 7187,8005 7111,7990 7033,7970 6954,7946 6877,7923 6821,7914 6778,7918 6743,7932 6716,7960 6696,8001 6682,8056 6670,8124 6660,8204 6650,8293 6637,8389 6620,8488 6597,8588 6569,8686 6534,8778 6492,8860 6445,8934 6396,9000 6346,9058 6297,9106 6249,9144 6206,9171 6166,9189 6131,9195 6101,9192 6075,9181 6052,9162 6032,9138 6013,9112 5996,9086 5978,8976 5955,8876 5930,8790 5903,8720 5876,8665 5847,8626 5817,8602 5786,8591 5752,8594 5715,8607 5674,8631 5628,8662 5576,8699 5520,8739 5459,8778 5397,8810 5333,8833 5269,8843 5208,8840 5152,8820 5101,8785 5059,8732 5025,8664 5002,8581 4989,8486 4987,8382 4995,8271 5011,8157 5031,8044 5041,7945 5048,7854 5049,7774 5045,7705 5033,7648 5013,7602 4986,7566 4951,7540 4910,7521 4865,7507 4817,7496 4768,7487 4722,7475 4679,7462 4643,7444 4604,7433 4518,7468 4433,7497 4352,7520 4276,7534 4208,7538 4148,7530 4098,7511 4060,7479 4034,7434 4021,7379 4019,7314 4028,7241 4045,7163 4069,7082 4088,7013 4099,6954 4103,6902 4099,6859 4083,6824 4055,6796 4013,6776 3958,6761 3890,6749 3810,6738 3721,6728 3626,6714 3527,6697 3427,6674 3330,6646 3239,6610 3157,6568 3083,6522 3016,6473 2958,6423 2910,6374 2871,6328 2843,6285 2825,6246 2818,6211 2821,6181 2832,6155 2851,6132 2875,6111 2902,6091 2929,6073 3041,6054 3139,6030 3224,6004 3293,5976 3347,5948 3386,5919 3410,5889 3421,5858 3419,5824 3406,5788 3384,5748 3353,5703 3317,5653 3278,5597 3239,5537 3207,5474 3185,5410 3174,5347 3178,5286 3198,5230 3234,5179 3287,5137 3355,5104 3438,5080 3533,5068 3638,5065 3749,5072 3863,5087 3977,5109 4088,5134 4187,5154 4266,5159 4333,5156 4388,5145 4431,5126 4464,5098 4488,5062 4506,5021 4518,4974 4528,4924 4538,4874 4548,4826 4562,4782 4580,4744 4604,4714 4581,4639 4553,4555 4532,4473 4519,4397 4516,4328 4524,4269 4544,4219 4576,4181 4619,4155 4674,4140 4737,4137 4808,4144 4884,4158 4963,4179 5041,4202 5117,4224 5171,4231 5214,4228 5249,4213 5275,4185 5295,4143 5310,4088 5322,4020 5332,3941 5342,3852 5356,3757 5373,3657 5395,3557 5424,3460 5459,3369 5501,3286 5548,3213 5597,3147 5647,3089 5696,3041 5743,3002 5787,2975 5826,2957 5860,2950 5891,2953 5917,2964 5940,2983 5960,3006 5979,3032 5996,3060 6015,3173 6038,3274 6063,3359 6090,3430 6118,3484 6146,3523 6176,3548 6208,3558 6241,3556 6278,3542 6319,3518 6365,3486 6417,3449 6473,3408 6534,3369 6596,3337 6660,3314 6724,3303 6785,3306 6841,3325 6892,3361 6935,3414 6968,3482 6991,3565 7004,3660 7006,3765 6998,3876 6982,3990 6963,4101 6954,4200 6947,4291 6946,4372 6951,4441 6963,4498 6983,4544 7010,4579 7045,4606 7086,4625 7132,4638 7180,4649 7229,4658 7276,4669 7319,4683 7356,4700 7392,4715 7478,4680 7563,4650 7644,4627 7720,4613 7789,4609 7848,4616 7898,4636 7936,4668 7962,4712 7976,4767 7978,4832 7969,4905 7952,4983 7928,5064 7910,5133 7899,5192 7895,5244 7899,5287 7915,5322 7943,5350 7985,5370 8040,5386 8108,5398 8187,5408 8276,5419 8371,5432 8470,5449 8569,5472 8666,5501 8756,5536 8838,5578 8912,5625 8979,5674 9037,5723 9085,5772 9124,5819 9152,5862 9170,5901 9177,5936 9175,5966 9163,5992 9145,6015 9121,6036 9094,6055 9067,6073 8956,6093 8857,6117 " /><polygon
       id="polygon32"
       points="8759,6144 8753,6169 8756,6195 8769,6223 8788,6254 8811,6287 8836,6325 8862,6367 8887,6415 8908,6467 8924,6523 8933,6583 8932,6643 8915,6701 8883,6755 8834,6804 8770,6845 8692,6879 8602,6904 8502,6920 8396,6928 8286,6929 8177,6924 8072,6915 7972,6905 7882,6895 7803,6888 7737,6886 7690,6899 7666,6937 7654,6982 7649,7035 7649,7094 7653,7157 7656,7221 7657,7283 7654,7342 7644,7396 7628,7441 7603,7478 7569,7503 7528,7518 7478,7521 7482,7576 7484,7634 7474,7684 7453,7725 7421,7756 7378,7777 7327,7790 7268,7794 7203,7792 7135,7786 7067,7777 7000,7769 6938,7764 6880,7766 6830,7776 6788,7797 6773,7842 6769,7905 6771,7980 6775,8067 6779,8163 6780,8266 6778,8373 6770,8480 6755,8583 6732,8681 6702,8769 6663,8845 6618,8908 6567,8955 6512,8987 6454,9005 6397,9013 6343,9012 6293,9004 6247,8990 6206,8970 6170,8948 6139,8924 6110,8901 6084,8881 6061,8866 6038,8860 6017,8864 5997,8881 5976,8832 5954,8797 5930,8777 5905,8769 5879,8773 5851,8785 5820,8805 5786,8828 5748,8855 5705,8881 5656,8907 5603,8929 5546,8946 5486,8956 5426,8955 5368,8938 5314,8905 5266,8856 5224,8792 5191,8714 5166,8623 5149,8523 5141,8417 5141,8307 5147,8198 5156,8092 5168,7993 5179,7903 5184,7827 5165,7775 5136,7737 5099,7710 5054,7694 5002,7686 4944,7684 4883,7685 4822,7687 4761,7687 4703,7683 4651,7673 4607,7657 4572,7632 4547,7599 4533,7557 4518,7522 4453,7535 4395,7536 4345,7527 4304,7506 4273,7474 4251,7431 4239,7378 4235,7318 4238,7252 4246,7182 4258,7112 4269,7044 4277,6979 4279,6921 4261,6886 4224,6867 4175,6855 4111,6851 4036,6851 3949,6854 3853,6857 3750,6858 3644,6855 3537,6847 3434,6832 3336,6809 3248,6778 3172,6740 3110,6694 3063,6643 3032,6588 3013,6530 3004,6474 3003,6421 3010,6371 3024,6326 3042,6286 3064,6251 3087,6219 3110,6191 3130,6165 3145,6141 3153,6117 3150,6095 3135,6073 3185,6052 3218,6028 3238,6003 3244,5978 3240,5951 3228,5923 3209,5893 3185,5859 3159,5822 3133,5779 3108,5732 3087,5680 3071,5623 3062,5564 3063,5504 3080,5446 3113,5392 3161,5343 3226,5302 3304,5268 3395,5243 3495,5227 3601,5219 3711,5218 3820,5223 3926,5232 4025,5243 4115,5252 4194,5259 4261,5261 4308,5248 4331,5211 4344,5165 4349,5112 4348,5053 4344,4990 4341,4926 4339,4864 4343,4804 4352,4751 4369,4705 4393,4669 4427,4643 4468,4628 4518,4625 4518,4574 4516,4516 4525,4466 4545,4425 4577,4394 4619,4372 4670,4359 4729,4355 4793,4356 4860,4363 4929,4371 4995,4379 5058,4383 5115,4382 5165,4372 5205,4350 5218,4303 5222,4240 5221,4165 5217,4078 5214,3982 5212,3880 5214,3773 5222,3667 5238,3563 5260,3466 5291,3378 5329,3302 5375,3239 5426,3192 5481,3160 5539,3143 5596,3134 5650,3134 5700,3142 5746,3156 5786,3175 5822,3197 5854,3220 5882,3243 5908,3263 5932,3278 5955,3284 5976,3280 5997,3266 6017,3317 6040,3353 6063,3373 6088,3380 6114,3377 6142,3364 6173,3344 6207,3320 6245,3294 6288,3266 6337,3241 6390,3218 6447,3201 6507,3190 6567,3191 6625,3208 6679,3241 6727,3290 6769,3354 6802,3433 6827,3524 6843,3624 6851,3730 6851,3840 6846,3950 6836,4056 6824,4155 6813,4245 6810,4320 6830,4371 6859,4409 6897,4435 6942,4452 6994,4459 7052,4461 7113,4460 7175,4458 7236,4458 7294,4461 7346,4471 7391,4487 7427,4512 7452,4545 7467,4586 7478,4626 7543,4613 7601,4611 7651,4620 7692,4641 7724,4673 7745,4716 7758,4768 7762,4829 7759,4895 7750,4964 7740,5034 7729,5103 7721,5167 7718,5225 7737,5260 7774,5279 7823,5291 7886,5295 7962,5295 8049,5292 8145,5289 8247,5288 8353,5291 8460,5299 8563,5315 8660,5338 8747,5368 8823,5407 8885,5452 8932,5504 8963,5559 8982,5616 8991,5673 8992,5726 8985,5776 8971,5821 8953,5861 8932,5896 8909,5927 8886,5956 8866,5982 8851,6006 8844,6029 8847,6052 8862,6073 8812,6095 8779,6119 " /><polygon
       id="polygon34"
       points="8989,6136 9013,6160 9035,6186 9054,6215 9068,6248 9075,6285 9074,6327 9064,6374 9045,6424 9016,6476 8977,6530 8929,6582 8869,6631 8796,6675 8711,6711 8617,6740 8517,6762 8414,6778 8312,6788 8213,6795 8120,6799 8037,6803 7965,6809 7906,6819 7860,6835 7828,6859 7808,6891 7799,6932 7804,6987 7823,7061 7841,7137 7857,7212 7867,7285 7869,7351 7862,7410 7844,7460 7815,7498 7775,7525 7725,7539 7666,7542 7599,7534 7526,7516 7448,7489 7422,7514 7394,7541 7356,7561 7311,7575 7260,7584 7206,7589 7150,7593 7095,7598 7044,7606 6997,7620 6957,7642 6924,7673 6900,7715 6883,7770 6874,7837 6872,7916 6887,8014 6905,8123 6920,8234 6927,8347 6927,8456 6918,8559 6899,8652 6871,8732 6833,8799 6788,8849 6735,8884 6678,8901 6617,8904 6555,8892 6493,8868 6433,8837 6378,8803 6328,8769 6283,8738 6243,8711 6207,8690 6175,8678 6145,8675 6117,8685 6090,8708 6064,8746 6040,8799 6017,8869 5996,8954 5977,8967 5957,8985 5936,9007 5913,9031 5887,9054 5858,9073 5824,9087 5786,9095 5744,9094 5697,9085 5646,9066 5593,9038 5540,9000 5487,8952 5438,8892 5395,8818 5359,8732 5329,8638 5307,8538 5292,8434 5282,8331 5276,8232 5272,8139 5269,8056 5263,7984 5254,7925 5238,7880 5215,7848 5181,7831 5121,7836 5053,7847 4981,7862 4907,7878 4834,7891 4764,7899 4699,7900 4641,7892 4593,7873 4555,7844 4529,7805 4514,7755 4510,7696 4518,7629 4535,7555 4548,7490 4514,7472 4486,7442 4466,7404 4452,7358 4443,7306 4438,7250 4435,7193 4431,7137 4425,7084 4414,7036 4395,6996 4367,6963 4327,6939 4275,6924 4199,6931 4106,6949 4004,6967 3896,6984 3784,6997 3672,7004 3563,7003 3460,6994 3367,6975 3287,6946 3220,6909 3169,6863 3135,6811 3117,6754 3114,6693 3126,6631 3149,6570 3180,6510 3212,6456 3244,6407 3274,6363 3300,6323 3320,6288 3332,6256 3334,6227 3325,6198 3302,6171 3266,6144 3213,6119 3145,6095 3062,6073 3049,6053 3030,6032 3007,6010 2983,5987 2960,5961 2941,5932 2927,5899 2920,5862 2921,5820 2931,5773 2950,5723 2979,5670 3017,5617 3066,5564 3126,5515 3200,5472 3285,5436 3379,5407 3479,5385 3582,5369 3685,5359 3785,5352 3877,5348 3961,5344 4033,5338 4092,5328 4138,5312 4170,5288 4190,5256 4199,5216 4194,5160 4175,5086 4156,5010 4140,4935 4130,4863 4128,4796 4135,4737 4153,4688 4182,4649 4221,4622 4271,4608 4330,4605 4397,4613 4471,4630 4548,4657 4577,4635 4605,4608 4642,4588 4687,4574 4737,4565 4791,4559 4846,4555 4901,4550 4952,4541 4999,4528 5039,4506 5071,4475 5096,4432 5112,4378 5121,4311 5122,4232 5105,4132 5087,4024 5073,3912 5065,3800 5066,3691 5075,3588 5094,3496 5122,3415 5160,3349 5206,3298 5258,3264 5315,3246 5376,3243 5438,3255 5500,3279 5560,3310 5615,3343 5665,3376 5710,3407 5750,3434 5786,3454 5818,3466 5848,3468 5876,3459 5903,3436 5929,3398 5954,3345 5976,3275 5996,3193 6015,3182 6035,3164 6057,3142 6080,3118 6105,3095 6135,3075 6168,3061 6206,3053 6249,3053 6296,3062 6347,3081 6400,3109 6453,3147 6506,3194 6555,3255 6598,3329 6634,3415 6664,3509 6685,3610 6701,3714 6711,3817 6716,3916 6720,4009 6723,4093 6728,4165 6738,4223 6753,4269 6776,4300 6813,4316 6874,4310 6942,4298 7014,4283 7088,4267 7162,4254 7232,4246 7297,4245 7355,4253 7404,4271 7442,4299 7469,4339 7484,4389 7488,4448 7481,4515 7465,4588 7448,4658 7482,4676 7510,4705 7530,4743 7544,4789 7553,4841 7559,4896 7562,4953 7566,5009 7572,5062 7584,5110 7602,5151 7631,5183 7670,5207 7723,5222 7799,5215 7891,5197 7993,5179 8102,5162 8213,5149 8325,5142 8434,5143 8536,5152 8629,5171 8710,5200 8776,5237 8826,5283 8861,5335 8878,5393 8881,5453 8869,5515 8846,5577 8816,5636 8784,5691 8752,5740 8722,5784 8696,5823 8676,5858 8664,5890 8662,5920 8672,5948 8695,5976 8731,6002 8783,6028 8851,6052 8935,6073 8947,6093 8966,6114 " /></g><g
     transform="translate(-2114.9969,-2249.9975)"
     style="fill:none;stroke:#377095;stroke-width:10.01500034;stroke-linecap:round;stroke-linejoin:round"
     id="g36"><path
       id="path38"
       d="m 7965,6073 c -228,514 -1008,252 -1008,252 39,684 -712,713 -712,713 0,0 256,644 -252,949 -504,-305 -252,-949 -252,-949 0,0 -747,-29 -703,-713 0,0 -780,262 -1008,-252 228,-513 1008,-252 1008,-252 -44,-683 703,-712 703,-712 0,0 -252,-644 252,-950 508,306 252,950 252,950 0,0 751,29 712,712 0,0 780,-261 1008,252 z" /><path
       id="path40"
       d="m 7806,6073 c -108,245 -340,305 -550,305 -205,1 -371,-62 -371,-62 36,651 -683,680 -661,681 8,1 253,615 -231,906 -480,-291 -239,-905 -231,-906 21,-1 -693,-30 -652,-681 0,0 -167,63 -372,62 -209,0 -441,-60 -549,-305 108,-244 340,-304 549,-304 205,-1 372,62 372,62 -41,-651 673,-681 652,-682 -8,0 -249,-615 231,-905 484,290 239,905 231,905 -22,1 697,31 661,682 0,0 166,-63 371,-62 210,0 442,60 550,304 z" /><path
       id="path42"
       d="m 7647,6073 c -103,233 -314,290 -510,291 -186,3 -325,-57 -325,-57 35,618 -652,648 -609,650 17,1 250,586 -210,862 -456,-276 -226,-861 -210,-862 43,-2 -640,-32 -601,-650 0,0 -138,60 -325,57 -195,-1 -406,-58 -509,-291 103,-232 314,-289 509,-290 187,-3 325,57 325,57 -39,-618 644,-649 601,-650 -16,-1 -246,-586 210,-862 460,276 227,861 210,862 -43,1 644,32 609,650 0,0 139,-60 325,-57 196,1 407,58 510,290 z" /><path
       id="path44"
       d="m 7489,6073 c -98,220 -289,275 -471,276 -168,6 -278,-51 -278,-51 33,585 -622,616 -558,619 25,1 247,556 -189,818 -432,-262 -213,-817 -188,-818 64,-3 -588,-34 -550,-619 0,0 -111,57 -278,51 -182,-1 -373,-56 -471,-276 98,-220 289,-274 471,-276 167,-6 278,52 278,52 -38,-586 614,-616 550,-619 -25,-1 -244,-556 188,-818 436,262 214,817 189,818 -64,3 591,33 558,619 0,0 110,-58 278,-52 182,2 373,56 471,276 z" /><path
       id="path46"
       d="m 7330,6073 c -92,208 -263,260 -431,262 -149,8 -231,-46 -231,-46 31,553 -593,584 -507,587 34,2 245,527 -167,774 -408,-247 -201,-772 -168,-774 86,-3 -535,-34 -499,-587 0,0 -83,54 -231,46 -169,-2 -339,-54 -431,-262 92,-208 262,-259 431,-262 148,-8 231,47 231,47 -36,-553 585,-584 499,-588 -33,-1 -240,-526 168,-774 412,248 201,773 167,774 -86,4 538,35 507,588 0,0 82,-55 231,-47 168,3 339,54 431,262 z" /><path
       id="path48"
       d="m 7171,6073 c -87,196 -236,244 -391,248 -130,11 -185,-42 -185,-42 30,521 -562,553 -455,557 42,2 242,497 -146,730 -384,-233 -188,-728 -146,-730 107,-4 -482,-36 -449,-557 0,0 -54,53 -184,42 -155,-4 -304,-52 -391,-248 87,-195 236,-244 391,-247 130,-11 184,41 184,41 -33,-520 556,-552 449,-556 -42,-2 -238,-498 146,-730 388,232 188,728 146,730 -107,4 485,36 455,556 0,0 55,-52 185,-41 155,3 304,52 391,247 z" /><path
       id="path50"
       d="m 7012,6073 c -81,184 -210,229 -351,234 -112,13 -138,-37 -138,-37 28,488 -532,521 -404,526 51,2 239,468 -125,686 -360,-218 -175,-684 -125,-686 128,-5 -429,-38 -398,-526 0,0 -26,50 -137,37 -141,-5 -270,-50 -352,-234 82,-183 211,-229 352,-233 111,-13 137,37 137,37 -31,-488 526,-521 398,-526 -50,-2 -235,-468 125,-686 364,218 176,684 125,686 -128,5 432,38 404,526 0,0 26,-50 138,-37 141,4 270,50 351,233 z" /><path
       id="path52"
       d="m 6854,6073 c -76,172 -185,214 -312,220 -93,15 -91,-32 -91,-32 26,455 -503,489 -353,495 59,2 236,438 -104,641 -335,-203 -162,-639 -104,-641 150,-6 -376,-40 -347,-495 0,0 3,47 -90,32 -127,-6 -236,-48 -312,-220 76,-171 185,-214 312,-219 93,-15 90,32 90,32 -29,-456 497,-489 347,-495 -58,-2 -231,-438 104,-642 340,204 163,640 104,642 -150,6 379,39 353,495 0,0 -2,-47 91,-32 127,5 236,48 312,219 z" /><path
       id="path54"
       d="m 6695,6073 c -71,159 -159,199 -272,205 -75,18 -44,-26 -44,-26 24,423 -473,456 -302,463 68,3 233,409 -82,598 -312,-189 -150,-595 -83,-598 171,-7 -323,-40 -296,-463 0,0 30,44 -44,26 -113,-6 -202,-46 -272,-205 70,-159 159,-198 272,-205 74,-17 44,27 44,27 -27,-423 467,-457 296,-464 -67,-2 -229,-408 83,-597 315,189 150,595 82,597 -171,7 326,41 302,464 0,0 -31,-44 44,-27 113,7 201,46 272,205 z" /><path
       id="path56"
       d="m 6536,6073 c -65,147 -133,184 -232,191 -56,20 2,-21 2,-21 22,390 -442,424 -250,432 76,3 230,379 -61,554 -288,-175 -137,-551 -62,-554 193,-8 -270,-42 -245,-432 0,0 58,41 3,21 -99,-7 -167,-44 -232,-191 65,-146 133,-183 232,-191 55,-20 -3,22 -3,22 -25,-390 438,-425 245,-432 -75,-3 -226,-380 62,-554 291,174 137,551 61,554 -192,7 272,42 250,432 0,0 -58,-42 -2,-22 99,8 167,45 232,191 z" /><path
       id="path58"
       d="m 6377,6073 c -59,135 -107,169 -192,177 -38,22 49,-17 49,-17 20,358 -413,393 -199,402 85,3 227,350 -40,510 -264,-160 -124,-507 -40,-510 214,-9 -218,-44 -195,-402 0,0 87,39 50,17 -85,-8 -133,-42 -193,-177 60,-134 108,-168 193,-176 37,-23 -50,16 -50,16 -23,-357 409,-392 195,-401 -84,-3 -224,-350 40,-510 267,160 125,507 40,510 -214,9 219,44 199,401 0,0 -87,-39 -49,-16 85,8 133,42 192,176 z" /><path
       id="path60"
       d="m 6219,6073 c -55,123 -82,154 -153,163 -19,25 96,-12 96,-12 18,325 -383,361 -148,370 93,4 224,321 -18,466 -240,-145 -112,-462 -20,-466 235,-9 -165,-45 -144,-370 0,0 115,37 97,12 -72,-9 -99,-40 -153,-163 54,-122 81,-153 153,-162 18,-25 -97,12 -97,12 -21,-326 379,-361 144,-371 -92,-3 -220,-320 20,-466 242,146 111,463 18,466 -235,10 166,45 148,371 0,0 -115,-37 -96,-12 71,9 98,40 153,162 z" /><path
       id="path62"
       d="m 6060,6073 c -49,110 -56,139 -113,149 -1,27 142,-7 142,-7 17,293 -352,329 -96,339 102,4 221,291 3,422 -216,-131 -99,-418 2,-422 256,-10 -112,-46 -94,-339 0,0 143,34 144,7 -58,-10 -64,-39 -113,-149 49,-110 55,-138 113,-148 -1,-27 -144,7 -144,7 -18,-293 350,-329 94,-339 -101,-4 -218,-291 -2,-422 218,131 99,418 -3,422 -256,10 113,46 96,339 0,0 -143,-34 -142,-7 57,10 64,38 113,148 z" /><path
       id="path64"
       d="m 5901,6073 c -43,98 -29,123 -73,135 18,29 189,-2 189,-2 15,260 -323,297 -45,308 110,4 218,261 24,378 -192,-117 -86,-374 23,-378 278,-11 -59,-48 -42,-308 0,0 171,31 190,2 -44,-12 -30,-37 -73,-135 43,-97 29,-123 73,-134 -19,-29 -190,2 -190,2 -17,-260 320,-297 42,-308 -109,-4 -215,-262 -23,-378 194,116 86,374 -24,378 -278,11 60,48 45,308 0,0 -171,-31 -189,-2 44,11 30,37 73,134 z" /><path
       id="path66"
       d="m 5742,6073 c -38,86 -3,108 -33,120 36,32 236,4 236,4 13,227 -293,264 6,276 119,5 215,233 45,334 -168,-101 -73,-329 44,-334 300,-12 -6,-49 9,-276 0,0 199,28 237,-4 -30,-12 4,-34 -34,-120 38,-85 4,-108 34,-120 -38,-31 -237,-3 -237,-3 -15,-228 291,-265 -9,-277 -117,-4 -212,-232 -44,-334 170,102 74,330 -45,334 -299,12 7,49 -6,277 0,0 -200,-28 -236,3 30,12 -5,35 33,120 z" /><path
       id="path68"
       d="m 5584,6073 c -33,74 22,93 6,106 55,34 283,8 283,8 11,196 -263,233 57,246 127,5 212,203 67,290 -144,-87 -61,-285 65,-290 321,-13 47,-50 59,-246 0,0 228,26 284,-8 -16,-13 39,-32 6,-106 33,-73 -22,-92 -6,-105 -56,-34 -284,-9 -284,-9 -12,-195 262,-233 -59,-245 -126,-5 -209,-203 -65,-290 145,87 60,285 -67,290 -320,12 -46,50 -57,245 0,0 -228,-25 -283,9 16,13 -39,32 -6,105 z" /><path
       id="path70"
       d="m 5425,6073 c -27,61 48,78 46,92 74,36 329,13 329,13 9,163 -233,201 109,215 136,5 209,173 88,246 -120,-73 -48,-241 86,-246 342,-14 100,-52 110,-215 0,0 256,23 331,-13 -2,-14 73,-31 46,-92 27,-61 -48,-77 -46,-91 -75,-37 -331,-13 -331,-13 -10,-163 232,-201 -110,-215 -134,-6 -206,-173 -86,-246 121,73 48,240 -88,246 -342,14 -100,52 -109,215 0,0 -255,-24 -329,13 2,14 -73,30 -46,91 z" /><path
       id="path72"
       d="m 5266,6073 c -22,49 74,63 86,78 92,39 376,18 376,18 7,130 -203,169 160,184 144,5 206,143 109,202 -96,-59 -35,-197 108,-202 363,-15 152,-54 160,-184 0,0 284,21 378,-18 12,-15 107,-29 86,-78 21,-49 -74,-62 -86,-77 -94,-39 -378,-18 -378,-18 -8,-130 203,-169 -160,-184 -143,-6 -204,-144 -108,-202 97,58 35,196 -109,202 -363,15 -153,54 -160,184 0,0 -284,-21 -376,18 -12,15 -108,28 -86,77 z" /><path
       id="path74"
       d="m 5107,6073 c -16,37 100,48 126,64 111,41 423,23 423,23 5,97 -173,137 211,152 153,6 203,115 130,158 -72,-43 -22,-152 129,-158 385,-15 205,-55 212,-152 0,0 312,18 424,-23 26,-16 142,-27 125,-64 17,-36 -99,-47 -125,-63 -112,-41 -424,-23 -424,-23 -7,-98 173,-137 -212,-153 -151,-6 -201,-114 -129,-158 73,44 23,152 -130,158 -384,16 -206,55 -211,153 0,0 -312,-18 -423,23 -26,16 -142,27 -126,63 z" /><path
       id="path76"
       d="m 4949,6073 c -11,25 125,33 165,49 129,44 469,28 469,28 4,66 -143,106 263,122 161,6 200,85 152,114 -48,-29 -10,-108 149,-114 407,-16 259,-56 263,-122 0,0 340,16 471,-28 39,-16 176,-24 165,-49 11,-24 -126,-32 -165,-49 -131,-43 -471,-28 -471,-28 -4,-65 144,-105 -263,-121 -159,-7 -197,-85 -149,-114 48,29 9,107 -152,114 -406,16 -259,56 -263,121 0,0 -340,-15 -469,28 -40,17 -176,25 -165,49 z" /><path
       id="path78"
       d="m 4790,6073 c -5,13 152,17 205,35 148,46 516,33 516,33 2,33 -113,74 315,91 169,6 196,55 172,70 -24,-15 4,-64 171,-70 428,-17 311,-58 313,-91 0,0 368,13 518,-33 53,-18 210,-22 205,-35 5,-12 -152,-17 -205,-35 -150,-45 -518,-33 -518,-33 -2,-32 115,-73 -313,-90 -167,-7 -195,-55 -171,-70 24,15 -3,63 -172,70 -428,17 -313,58 -315,90 0,0 -368,-12 -516,33 -53,18 -210,23 -205,35 z" /><path
       id="path80"
       d="m 4631,6073 c 0,0 178,2 245,21 166,48 563,38 563,38 0,0 -84,41 366,59 177,7 193,26 193,26 0,0 17,-19 192,-26 449,-18 364,-59 364,-59 0,0 397,10 565,-38 67,-19 245,-21 245,-21 0,0 -178,-2 -245,-20 -168,-48 -565,-38 -565,-38 0,0 85,-42 -364,-60 -175,-7 -192,-26 -192,-26 0,0 -16,19 -193,26 -450,18 -366,60 -366,60 0,0 -397,-10 -563,38 -67,18 -245,20 -245,20 z" /></g><path
     style="fill:none;stroke:#686055;stroke-width:10.01500034;stroke-linecap:round;stroke-linejoin:round"
     id="path82"
     d="m 7760.0031,3823.0025 c 0,0 -504,52 -694,550 -473,1275 -1598,1008 -1598,1008 0,0 236,1094 -1038,1572 -504,185 -550,689 -550,689 0,0 -46,-504 -545,-689 -1274,-478 -1033,-1572 -1033,-1572 0,0 -1125,267 -1602.99999,-1008 -191,-498 -694.0000022,-550 -694.0000022,-550 0,0 503.0000022,-51 694.0000022,-550 477.99999,-1274 1602.99999,-1007 1602.99999,-1007 0,0 -241,-1094 1033,-1571.99998 499,-185 545,-688.9999957 545,-688.9999957 0,0 46,503.9999957 550,688.9999957 1274,477.99998 1038,1571.99998 1038,1571.99998 0,0 1125,-267 1598,1007 190,499 694,550 694,550 z" /><g
     transform="translate(-2114.9969,-2249.9975)"
     style="fill:none;stroke:#686055;stroke-width:10.01500034;stroke-linecap:round;stroke-linejoin:round"
     id="g84"><path
       id="path86"
       d="m 9764,6073 c -98,29 -188,88 -273,142 -142,89 -290,188 -401,315 -107,122 -173,274 -219,428 -40,134 -75,269 -176,373 -166,171 -434,198 -659,219 -124,11 -247,23 -371,33 -27,3 -53,5 -80,5 -13,0 -32,-11 -39,0 -9,12 3,30 6,45 4,19 9,38 13,57 38,179 38,369 -59,531 -67,110 -167,200 -248,300 -121,148 -214,321 -350,457 -98,98 -211,163 -350,185 -129,20 -267,21 -372,112 -74,66 -115,162 -143,255 -18,60 -31,123 -40,185 -3,22 0,46 -8,67 -3,9 -5,-18 -8,-27 -23,-72 -66,-141 -105,-205 -86,-142 -182,-286 -302,-401 -84,-81 -188,-146 -294,-194 -182,-81 -399,-95 -550,-238 -185,-176 -209,-465 -233,-705 -10,-106 -24,-212 -34,-318 -1,-13 -2,-27 -3,-40 -1,-12 3,-63 -15,-65 -20,-3 -38,11 -56,15 -151,39 -318,60 -470,15 -169,-50 -287,-185 -422,-291 -236,-183 -568,-326 -641,-646 -20,-91 -21,-184 -47,-273 -4,-14 -8,-27 -14,-40 -78,-198 -312,-260 -503,-288 -23,-3 -47,1 -67,-8 -9,-3 19,-5 28,-8 71,-24 139,-68 203,-107 142,-87 287,-182 405,-301 116,-117 195,-268 245,-423 47,-148 77,-302 189,-417 167,-171 434,-199 659,-219 124,-11 248,-24 372,-35 26,-2 53,-4 79,-5 13,0 31,10 40,0 9,-10 -1,-28 -3,-41 -3,-19 -9,-38 -13,-56 -29,-135 -39,-280 2,-412 53,-170 192,-287 300,-421 109,-135 195,-289 311,-419 105,-117 229,-200 387,-224 103,-16 209,-19 304,-68 152,-80 208,-265 238,-422 4,-22 7,-43 10,-65 3,-22 0,-45 8,-65 4,-9 5,19 8,28 23,72 67,141 106,205 87,141 184,284 304,400 95,91 216,163 338,211 172,68 366,86 506,218 186,176 212,464 237,704 11,106 25,212 36,318 1,14 3,27 4,41 0,11 -2,66 12,69 19,4 37,-11 56,-16 150,-40 317,-60 469,-16 169,49 288,185 422,290 13,10 25,19 38,29 229,171 534,313 602,619 20,90 20,184 47,273 30,101 89,175 181,226 122,68 266,93 403,109 z" /><path
       id="path88"
       d="m 9838,6073 c -133,29 -264,82 -386,140 -179,85 -379,199 -444,397 -54,164 -45,344 -122,500 -131,270 -456,334 -721,396 -76,18 -152,37 -227,57 -104,28 -210,60 -319,57 -15,0 -33,-13 -43,-3 -10,10 1,29 3,43 2,17 6,35 8,52 18,139 -8,267 -73,391 -47,89 -105,172 -154,259 -103,183 -180,391 -325,546 -82,87 -180,147 -297,173 -79,18 -158,18 -239,23 -45,3 -90,9 -133,24 -192,69 -274,293 -322,472 -17,63 -31,128 -41,192 -3,21 3,45 -8,62 -7,11 -5,-24 -8,-36 -29,-119 -77,-238 -129,-349 -77,-161 -183,-348 -355,-422 -174,-74 -373,-57 -544,-140 -300,-146 -353,-521 -429,-809 -12,-44 -24,-87 -36,-131 -27,-91 -56,-183 -61,-279 -1,-12 4,-66 -13,-70 -17,-4 -35,9 -53,13 -65,13 -132,18 -199,13 -191,-13 -341,-129 -504,-216 -264,-141 -618,-251 -716,-567 -25,-78 -30,-157 -33,-238 -2,-62 -6,-122 -27,-180 -64,-171 -251,-251 -413,-302 -83,-26 -170,-46 -256,-59 -20,-4 -45,3 -62,-9 -11,-7 25,-5 38,-8 100,-25 199,-65 292,-106 142,-63 294,-140 401,-255 45,-50 78,-104 99,-168 64,-193 45,-410 173,-580 153,-205 437,-259 671,-315 104,-24 205,-52 308,-78 78,-21 157,-38 239,-37 14,0 31,12 42,3 10,-8 3,-26 2,-39 -2,-17 -7,-34 -9,-52 -9,-63 -9,-128 1,-192 27,-171 139,-311 221,-459 102,-184 179,-392 324,-547 93,-101 208,-161 343,-183 64,-10 127,-9 192,-13 111,-8 206,-43 281,-128 62,-71 102,-160 134,-247 36,-102 62,-209 78,-316 3,-20 -4,-44 8,-61 7,-10 5,26 8,39 24,99 64,198 105,292 63,141 142,291 258,395 50,45 105,76 169,97 193,64 411,47 582,173 219,161 273,464 337,711 26,100 58,197 84,297 14,52 26,105 29,159 1,12 -3,70 9,74 17,6 35,-9 53,-12 65,-13 133,-19 199,-15 192,14 341,129 505,216 14,7 28,15 42,22 271,139 611,258 685,592 14,63 17,127 19,192 4,92 14,180 69,258 61,86 157,141 252,180 140,59 289,92 438,111 z" /><path
       id="path90"
       d="m 9856,6073 c -122,19 -242,48 -359,90 -178,63 -387,162 -438,362 -15,61 -14,125 -18,187 -10,149 -40,287 -141,403 -143,164 -366,238 -562,317 -98,39 -193,84 -289,127 -49,22 -99,44 -151,58 -86,25 -176,30 -265,17 -17,-2 -34,-17 -50,-9 -10,5 -4,23 -4,35 0,15 2,30 1,45 -1,156 -73,299 -126,442 -6,14 -11,29 -16,44 -108,299 -186,680 -528,792 -121,39 -249,39 -373,61 -82,15 -150,45 -212,101 -101,91 -166,222 -218,347 -44,107 -82,220 -104,334 -3,15 6,53 -8,46 -17,-7 -5,-35 -8,-53 -17,-103 -45,-205 -79,-303 -63,-179 -163,-386 -364,-435 -46,-11 -93,-12 -140,-15 -165,-12 -320,-33 -450,-146 -177,-152 -251,-394 -342,-601 -40,-94 -89,-185 -131,-278 -48,-107 -77,-214 -69,-332 1,-14 15,-75 1,-84 -14,-7 -31,5 -46,6 -186,15 -358,-72 -530,-129 -300,-101 -690,-175 -803,-517 -39,-121 -38,-248 -60,-372 -15,-82 -47,-149 -103,-210 -94,-101 -226,-165 -351,-216 -107,-44 -221,-82 -335,-105 -15,-4 -53,5 -46,-9 8,-16 37,-5 55,-8 103,-18 205,-46 304,-81 178,-63 387,-162 437,-363 16,-60 15,-124 19,-186 11,-149 41,-287 142,-402 144,-164 367,-238 563,-317 98,-39 192,-84 288,-128 49,-22 99,-44 151,-58 86,-25 176,-31 265,-18 17,3 34,15 50,9 16,-6 6,-63 6,-76 0,-156 71,-299 123,-442 6,-15 11,-29 16,-44 106,-299 184,-682 525,-794 121,-40 249,-40 373,-62 82,-15 150,-45 211,-101 101,-92 166,-223 217,-348 44,-108 81,-221 103,-335 3,-15 -5,-53 8,-45 15,10 5,37 8,55 17,103 45,205 80,303 64,179 165,385 366,433 46,11 93,12 140,15 165,11 320,33 451,145 176,152 252,393 343,600 41,94 90,184 133,278 49,106 79,213 71,331 -1,16 -4,33 -4,49 -1,13 -10,31 0,39 13,9 31,-4 47,-6 185,-15 357,71 529,128 187,62 387,108 555,213 102,64 184,148 231,259 56,134 51,278 76,418 18,100 64,179 141,247 120,106 281,172 431,223 86,29 173,53 263,69 z" /><path
       id="path92"
       d="m 9805,6073 c -147,18 -296,47 -431,110 -117,55 -206,135 -239,263 -24,92 -16,187 -32,279 -63,352 -422,484 -688,657 -95,62 -184,137 -284,191 -144,78 -299,87 -458,58 -19,-3 -37,-7 -55,-12 -19,-4 -37,-19 -56,-15 -13,3 -10,59 -11,70 -9,97 -35,194 -53,289 -3,15 -6,31 -9,46 -58,311 -93,708 -420,857 -71,33 -148,50 -224,68 -155,35 -314,76 -436,184 -116,102 -201,242 -274,377 -45,84 -89,171 -121,261 -4,11 -8,23 -11,34 -3,11 -3,42 -8,32 -9,-19 -5,-43 -8,-64 -9,-66 -22,-131 -39,-195 -49,-178 -130,-358 -324,-408 -92,-23 -188,-14 -280,-32 -157,-29 -278,-118 -376,-240 -110,-137 -188,-297 -285,-442 -64,-95 -141,-183 -198,-282 -80,-143 -93,-299 -64,-459 3,-18 9,-36 12,-55 1,-13 10,-30 1,-40 -10,-10 -27,1 -41,0 -109,-2 -219,-30 -327,-49 -194,-33 -396,-51 -581,-122 -97,-38 -189,-91 -257,-171 -126,-148 -131,-345 -190,-521 -30,-94 -72,-183 -139,-257 -105,-114 -247,-198 -382,-271 -61,-32 -123,-62 -186,-90 -36,-16 -72,-31 -110,-42 -10,-4 -41,-4 -31,-9 20,-9 44,-5 66,-8 44,-6 88,-15 132,-25 177,-41 390,-112 459,-299 44,-118 24,-246 56,-366 85,-319 428,-447 679,-610 95,-61 183,-136 283,-191 144,-78 300,-88 459,-59 18,4 36,8 55,12 18,4 36,18 55,15 18,-3 14,-54 15,-66 8,-97 33,-194 51,-289 2,-15 5,-31 8,-46 56,-311 90,-710 416,-859 71,-33 148,-50 224,-68 155,-35 314,-77 436,-185 116,-102 201,-243 273,-378 44,-84 88,-172 119,-262 4,-11 8,-23 11,-34 3,-10 4,-40 8,-30 9,20 5,44 8,66 9,65 23,130 40,194 49,179 132,357 326,406 92,23 188,14 280,32 157,29 278,118 377,240 110,136 188,296 286,440 64,95 142,183 199,282 82,142 96,298 68,458 -3,18 -8,36 -11,55 -3,15 -15,33 -6,44 9,11 27,0 41,0 109,1 220,30 327,48 194,33 397,51 582,122 97,37 188,91 257,171 126,148 130,345 188,522 30,94 72,183 139,256 105,115 246,199 382,271 104,55 213,112 327,141 z" /><path
       id="path94"
       d="m 9723,6073 c -172,22 -370,61 -462,226 -74,133 -72,294 -138,431 -107,222 -342,351 -521,509 -77,69 -145,147 -220,218 -31,30 -62,57 -97,81 -205,141 -474,109 -701,49 -19,-5 -37,-20 -55,-16 -14,3 -9,61 -9,72 -3,129 -8,259 -15,388 -11,225 -40,485 -218,644 -128,115 -303,146 -454,217 -105,49 -198,116 -290,186 -145,110 -265,247 -379,388 -27,34 -54,68 -79,103 -32,44 -65,91 -82,144 -3,9 -4,38 -8,29 -9,-19 -4,-42 -7,-62 -21,-138 -64,-295 -184,-379 -108,-77 -249,-86 -372,-122 -278,-81 -422,-352 -604,-553 -70,-77 -149,-144 -222,-218 -40,-41 -78,-84 -107,-133 -110,-182 -92,-408 -48,-606 5,-19 11,-37 14,-56 2,-14 12,-31 2,-41 -9,-10 -26,1 -40,1 -89,1 -180,-3 -269,-4 -216,-4 -456,-1 -655,-97 -30,-14 -59,-31 -86,-51 -184,-135 -211,-364 -310,-554 -47,-89 -106,-169 -167,-248 -120,-156 -277,-284 -431,-404 -63,-49 -132,-107 -209,-134 -9,-3 -38,-3 -29,-8 20,-9 43,-4 64,-8 153,-23 319,-74 399,-218 74,-133 72,-294 138,-430 108,-222 343,-350 522,-509 78,-68 146,-146 221,-218 30,-29 62,-57 97,-81 205,-141 473,-109 700,-50 19,5 37,19 55,16 19,-3 13,-56 13,-68 1,-129 5,-259 12,-388 10,-225 38,-485 216,-646 126,-114 301,-146 452,-217 105,-49 198,-116 290,-186 145,-111 264,-248 378,-390 27,-34 53,-68 78,-103 32,-45 64,-92 81,-144 3,-9 4,-37 8,-28 8,20 5,42 8,63 22,154 74,320 218,399 134,74 296,69 433,136 222,107 351,339 512,516 70,77 149,144 223,217 40,41 78,84 108,133 111,181 95,407 51,606 -4,18 -10,37 -13,56 -3,14 -15,33 -6,44 8,11 27,-1 40,-1 90,-1 180,2 270,4 216,3 456,0 655,95 30,15 59,32 86,52 184,134 210,364 309,555 46,88 105,169 166,248 120,156 276,284 431,404 63,49 132,107 209,133 9,4 19,6 28,8 z" /><path
       id="path96"
       d="m 9672,6073 c -58,10 -114,21 -168,49 -117,60 -175,186 -235,296 -65,120 -127,242 -216,345 -112,130 -246,239 -351,375 -89,116 -156,255 -270,348 -197,161 -480,139 -715,103 -53,-8 -107,-17 -160,-28 -16,-3 -34,-17 -49,-10 -11,5 -3,24 -3,35 1,16 4,32 6,48 24,198 48,410 9,607 -16,83 -45,164 -93,234 -106,154 -286,213 -437,311 -159,103 -283,246 -435,357 -130,96 -267,183 -393,283 -76,61 -136,128 -159,225 -4,14 4,46 -8,41 -14,-7 -4,-32 -7,-48 -8,-41 -21,-82 -40,-119 -66,-131 -215,-194 -338,-260 -90,-48 -182,-94 -263,-158 -136,-106 -246,-244 -380,-353 -93,-76 -199,-133 -294,-207 -101,-78 -170,-175 -204,-299 -24,-89 -29,-182 -27,-273 4,-113 19,-226 39,-337 3,-14 22,-78 7,-86 -13,-8 -30,4 -45,6 -67,10 -135,18 -203,25 -269,27 -597,45 -793,-178 -89,-100 -139,-229 -213,-340 -104,-159 -248,-283 -361,-434 -88,-119 -173,-241 -263,-358 -67,-88 -137,-164 -247,-192 -14,-3 -47,4 -41,-8 8,-14 33,-4 49,-8 91,-18 169,-58 228,-129 61,-74 104,-165 149,-249 49,-89 97,-182 160,-262 118,-149 270,-266 387,-416 89,-115 155,-254 270,-348 196,-161 479,-139 714,-104 54,8 107,17 160,28 16,3 34,16 49,10 16,-6 2,-67 0,-79 -23,-181 -44,-371 -21,-553 13,-102 42,-203 101,-289 105,-154 285,-214 436,-312 158,-103 282,-247 434,-358 130,-95 267,-183 392,-285 75,-61 134,-128 158,-225 3,-13 -4,-46 7,-39 14,9 4,33 8,49 17,91 57,170 129,229 74,62 166,104 251,148 90,48 182,94 263,157 137,107 246,244 381,353 82,67 173,119 259,180 102,72 182,158 226,277 69,189 46,409 15,604 -5,35 -14,70 -18,105 -2,13 -12,31 -1,39 12,9 30,-5 45,-7 68,-10 135,-18 203,-25 269,-27 597,-46 794,176 88,101 139,230 212,341 104,159 247,283 360,435 88,119 173,241 263,358 67,87 136,164 247,191 13,4 27,6 40,8 z" /><path
       id="path98"
       d="m 9691,6073 c -44,11 -81,25 -119,50 -74,49 -137,120 -199,184 -99,102 -195,206 -284,318 -95,118 -197,230 -272,364 -72,130 -115,282 -215,395 -185,207 -497,204 -752,194 -97,-4 -195,-9 -292,-16 -14,-1 -33,-14 -43,-4 -10,10 2,29 4,43 4,18 9,36 13,54 51,248 79,543 -98,750 -86,100 -203,170 -301,257 -142,127 -252,285 -398,407 -26,23 -54,44 -84,63 -131,86 -290,112 -428,183 -33,18 -65,38 -93,63 -76,71 -111,174 -127,274 -4,19 2,41 -8,58 -6,9 -4,-22 -7,-32 -23,-77 -77,-138 -131,-195 -129,-133 -268,-258 -413,-373 -107,-84 -207,-176 -323,-247 -168,-101 -377,-146 -503,-305 -101,-127 -131,-294 -140,-452 -9,-158 1,-318 10,-475 0,-11 10,-68 -7,-72 -18,-4 -35,9 -53,13 -36,9 -73,17 -110,24 -251,47 -530,64 -730,-124 -85,-80 -150,-180 -229,-266 -128,-141 -288,-250 -411,-395 -46,-53 -84,-110 -113,-174 -50,-109 -81,-228 -137,-335 -18,-33 -38,-65 -63,-93 -71,-76 -174,-111 -274,-128 -19,-3 -41,3 -57,-8 -9,-6 22,-4 33,-8 89,-26 158,-97 221,-161 122,-122 241,-248 348,-382 95,-119 198,-230 273,-363 88,-158 134,-343 283,-458 160,-123 379,-137 572,-135 135,1 270,9 405,18 14,1 31,13 42,4 10,-8 1,-26 0,-38 -3,-19 -9,-37 -13,-55 -46,-217 -78,-478 42,-679 84,-140 232,-224 351,-330 142,-127 252,-285 397,-408 67,-57 138,-98 220,-131 84,-33 172,-61 255,-99 100,-45 173,-107 215,-211 19,-46 32,-95 40,-144 3,-19 -3,-40 7,-56 6,-9 4,23 8,34 22,76 77,138 131,194 130,132 270,256 415,371 119,94 230,196 364,270 159,87 346,133 464,280 114,142 139,333 144,509 4,139 -2,279 -9,417 -1,11 -10,72 3,76 18,6 35,-9 53,-13 18,-4 36,-9 55,-13 264,-57 572,-89 786,112 84,80 150,180 228,266 116,128 257,229 375,355 60,64 112,134 148,214 50,110 81,229 137,336 17,33 38,65 63,92 85,93 211,120 331,136 z" /></g></svg>