<?xml version="1.0" encoding="UTF-8"?>
<svg viewBox="0 0 479.21774 550.19775" xmlns="http://www.w3.org/2000/svg">
 <g transform="matrix(.35603 0 0 .35603 -459.59 259.96)" stroke="#000">
  <path d="m1749.1 467.72v-35.433l122.74-70.866v35.433z" fill="#4d4d4d"/>
  <path d="m1718.4 450 30.686-17.717 122.74 70.866-30.686 17.717z" fill="#ccc"/>
  <path d="m1749.1 290.55-30.686 17.717v141.73l30.686-17.717z" fill="#4d4d4d"/>
  <path d="m1871.8 361.42-30.686-17.717-122.74 70.866 30.686 17.717z" fill="#ccc"/>
  <path d="m1687.7 255.11 184.13 106.31v212.59l-184.13-106.31v-212.59zm30.688 53.156v141.72l122.75 70.875v-141.72l-122.75-70.875z" fill="#999"/>
  <g transform="translate(751.81 -239.17)">
   <path d="m935.92 706.89 30.686-17.717 122.74 70.866-30.686 17.717z" fill="#ccc"/>
   <path d="m935.92 706.89-30.686-17.717-122.74 70.866 30.686 17.717z" fill="#ccc"/>
   <path d="m905.24 547.44 30.686 17.717-5e-5 141.73-30.686-17.716z" fill="#999"/>
   <path d="m1058.7 636.02 30.686 17.717-1e-4 141.73-30.686-17.716z" fill="#999"/>
   <path d="m1058.7 813.19v-35.433l-122.74-70.866 4e-5 35.433z" fill="#999"/>
   <path d="m1089.4 795.47-30.686-17.717-122.74 70.866 30.686 17.717z" fill="#ccc"/>
   <path d="m813.18 813.19v-35.433l122.74-70.866v35.433z" fill="#4d4d4d"/>
   <path d="m782.49 795.47 30.686-17.717 122.74 70.866-30.686 17.717z" fill="#ccc"/>
   <path d="m813.18 636.02v-35.433l122.74-70.866v35.433z" fill="#4d4d4d"/>
   <path d="m966.61 547.44-30.686 17.717 3e-5 141.73 30.686-17.717z" fill="#4d4d4d"/>
   <path d="m1058.7 636.02-1e-4 -35.433-122.74-70.866v35.433z" fill="#999"/>
   <path d="m813.18 636.02-30.686 17.717v141.73l30.686-17.717z" fill="#4d4d4d"/>
   <path d="m1120 600.6-184.13 106.31v212.59l184.13-106.31v-212.59zm-30.688 53.156v141.72l-122.75 70.875v-141.72l122.75-70.875z" fill="#4d4d4d"/>
   <path d="m751.8 600.58 184.13 106.31v212.59l-184.13-106.31v-212.59zm30.688 53.156v141.72l122.75 70.875v-141.72l-122.75-70.875z" fill="#999"/>
   <path d="m1120 600.6-184.13-106.3-184.11 106.3 184.13 106.3 184.11-106.3zm-61.378 2e-3 -122.73 70.859-122.75-70.867 122.73-70.859 122.75 70.868z" fill="#ccc"/>
  </g>
  <g transform="translate(567.69 -132.87)" stroke-linejoin="bevel">
   <path d="m935.92 706.89 30.686-17.717 122.74 70.866-30.686 17.717z" fill="#ccc"/>
   <path d="m935.92 706.89-30.686-17.717-122.74 70.866 30.686 17.717z" fill="#ccc"/>
   <path d="m905.24 547.44 30.686 17.717-5e-5 141.73-30.686-17.716z" fill="#999"/>
   <path d="m1058.7 636.02 30.686 17.717-1e-4 141.73-30.686-17.716z" fill="#999"/>
   <path d="m1058.7 813.19v-35.433l-122.74-70.866 4e-5 35.433z" fill="#999"/>
   <path d="m1089.4 795.47-30.686-17.717-122.74 70.866 30.686 17.717z" fill="#ccc"/>
   <path d="m813.18 813.19v-35.433l122.74-70.866v35.433z" fill="#4d4d4d"/>
   <path d="m782.49 795.47 30.686-17.717 122.74 70.866-30.686 17.717z" fill="#ccc"/>
   <path d="m813.18 636.02v-35.433l122.74-70.866v35.433z" fill="#4d4d4d"/>
   <path d="m966.61 547.44-30.686 17.717 3e-5 141.73 30.686-17.717z" fill="#4d4d4d"/>
   <path d="m1058.7 636.02-1e-4 -35.433-122.74-70.866v35.433z" fill="#999"/>
   <path d="m813.18 636.02-30.686 17.717v141.73l30.686-17.717z" fill="#4d4d4d"/>
   <path d="m1120 600.6-184.13 106.31v212.59l184.13-106.31v-212.59zm-30.688 53.156v141.72l-122.75 70.875v-141.72l122.75-70.875z" fill="#4d4d4d"/>
   <path d="m751.8 600.58 184.13 106.31v212.59l-184.13-106.31v-212.59zm30.688 53.156v141.72l122.75 70.875v-141.72l-122.75-70.875z" fill="#999"/>
   <path d="m1120 600.6-184.13-106.3-184.11 106.3 184.13 106.3 184.11-106.3zm-61.378 2e-3 -122.73 70.859-122.75-70.867 122.73-70.859 122.75 70.868z" fill="#ccc"/>
  </g>
  <g transform="translate(567.68 -345.47)" stroke-linejoin="bevel">
   <path d="m935.92 706.89 30.686-17.717 122.74 70.866-30.686 17.717z" fill="#ccc"/>
   <path d="m935.92 706.89-30.686-17.717-122.74 70.866 30.686 17.717z" fill="#ccc"/>
   <path d="m905.24 547.44 30.686 17.717-5e-5 141.73-30.686-17.716z" fill="#999"/>
   <path d="m1058.7 636.02 30.686 17.717-1e-4 141.73-30.686-17.716z" fill="#999"/>
   <path d="m1058.7 813.19v-35.433l-122.74-70.866 4e-5 35.433z" fill="#999"/>
   <path d="m1089.4 795.47-30.686-17.717-122.74 70.866 30.686 17.717z" fill="#ccc"/>
   <path d="m813.18 813.19v-35.433l122.74-70.866v35.433z" fill="#4d4d4d"/>
   <path d="m782.49 795.47 30.686-17.717 122.74 70.866-30.686 17.717z" fill="#ccc"/>
   <path d="m813.18 636.02v-35.433l122.74-70.866v35.433z" fill="#4d4d4d"/>
   <path d="m966.61 547.44-30.686 17.717 3e-5 141.73 30.686-17.717z" fill="#4d4d4d"/>
   <path d="m1058.7 636.02-1e-4 -35.433-122.74-70.866v35.433z" fill="#999"/>
   <path d="m813.18 636.02-30.686 17.717v141.73l30.686-17.717z" fill="#4d4d4d"/>
   <path d="m1120 600.6-184.13 106.31v212.59l184.13-106.31v-212.59zm-30.688 53.156v141.72l-122.75 70.875v-141.72l122.75-70.875z" fill="#4d4d4d"/>
   <path d="m751.8 600.58 184.13 106.31v212.59l-184.13-106.31v-212.59zm30.688 53.156v141.72l122.75 70.875v-141.72l-122.75-70.875z" fill="#999"/>
   <path d="m1120 600.6-184.13-106.3-184.11 106.3 184.13 106.3 184.11-106.3zm-61.378 2e-3 -122.73 70.859-122.75-70.867 122.73-70.859 122.75 70.868z" fill="#ccc"/>
  </g>
  <g transform="translate(567.69 -558.07)" stroke-linejoin="bevel">
   <path d="m935.92 706.89 30.686-17.717 122.74 70.866-30.686 17.717z" fill="#ccc"/>
   <path d="m935.92 706.89-30.686-17.717-122.74 70.866 30.686 17.717z" fill="#ccc"/>
   <path d="m905.24 547.44 30.686 17.717-5e-5 141.73-30.686-17.716z" fill="#999"/>
   <path d="m1058.7 636.02 30.686 17.717-1e-4 141.73-30.686-17.716z" fill="#999"/>
   <path d="m1058.7 813.19v-35.433l-122.74-70.866 4e-5 35.433z" fill="#999"/>
   <path d="m1089.4 795.47-30.686-17.717-122.74 70.866 30.686 17.717z" fill="#ccc"/>
   <path d="m813.18 813.19v-35.433l122.74-70.866v35.433z" fill="#4d4d4d"/>
   <path d="m782.49 795.47 30.686-17.717 122.74 70.866-30.686 17.717z" fill="#ccc"/>
   <path d="m813.18 636.02v-35.433l122.74-70.866v35.433z" fill="#4d4d4d"/>
   <path d="m966.61 547.44-30.686 17.717 3e-5 141.73 30.686-17.717z" fill="#4d4d4d"/>
   <path d="m1058.7 636.02-1e-4 -35.433-122.74-70.866v35.433z" fill="#999"/>
   <path d="m813.18 636.02-30.686 17.717v141.73l30.686-17.717z" fill="#4d4d4d"/>
   <path d="m1120 600.6-184.13 106.31v212.59l184.13-106.31v-212.59zm-30.688 53.156v141.72l-122.75 70.875v-141.72l122.75-70.875z" fill="#4d4d4d"/>
   <path d="m751.8 600.58 184.13 106.31v212.59l-184.13-106.31v-212.59zm30.688 53.156v141.72l122.75 70.875v-141.72l-122.75-70.875z" fill="#999"/>
   <path d="m1120 600.6-184.13-106.3-184.11 106.3 184.13 106.3 184.11-106.3zm-61.378 2e-3 -122.73 70.859-122.75-70.867 122.73-70.859 122.75 70.868z" fill="#ccc"/>
  </g>
  <g transform="translate(567.69 -770.67)" stroke-linejoin="bevel">
   <path d="m935.92 706.89 30.686-17.717 122.74 70.866-30.686 17.717z" fill="#ccc"/>
   <path d="m935.92 706.89-30.686-17.717-122.74 70.866 30.686 17.717z" fill="#ccc"/>
   <path d="m905.24 547.44 30.686 17.717-5e-5 141.73-30.686-17.716z" fill="#999"/>
   <path d="m1058.7 636.02 30.686 17.717-1e-4 141.73-30.686-17.716z" fill="#999"/>
   <path d="m1058.7 813.19v-35.433l-122.74-70.866 4e-5 35.433z" fill="#999"/>
   <path d="m1089.4 795.47-30.686-17.717-122.74 70.866 30.686 17.717z" fill="#ccc"/>
   <path d="m813.18 813.19v-35.433l122.74-70.866v35.433z" fill="#4d4d4d"/>
   <path d="m782.49 795.47 30.686-17.717 122.74 70.866-30.686 17.717z" fill="#ccc"/>
   <path d="m813.18 636.02v-35.433l122.74-70.866v35.433z" fill="#4d4d4d"/>
   <path d="m966.61 547.44-30.686 17.717 3e-5 141.73 30.686-17.717z" fill="#4d4d4d"/>
   <path d="m1058.7 636.02-1e-4 -35.433-122.74-70.866v35.433z" fill="#999"/>
   <path d="m813.18 636.02-30.686 17.717v141.73l30.686-17.717z" fill="#4d4d4d"/>
   <path d="m1120 600.6-184.13 106.31v212.59l184.13-106.31v-212.59zm-30.688 53.156v141.72l-122.75 70.875v-141.72l122.75-70.875z" fill="#4d4d4d"/>
   <path d="m751.8 600.58 184.13 106.31v212.59l-184.13-106.31v-212.59zm30.688 53.156v141.72l122.75 70.875v-141.72l-122.75-70.875z" fill="#999"/>
   <path d="m1120 600.6-184.13-106.3-184.11 106.3 184.13 106.3 184.11-106.3zm-61.378 2e-3 -122.73 70.859-122.75-70.867 122.73-70.859 122.75 70.868z" fill="#ccc"/>
  </g>
  <g transform="translate(567.69 -983.27)" stroke-linejoin="bevel">
   <path d="m935.92 706.89 30.686-17.717 122.74 70.866-30.686 17.717z" fill="#ccc"/>
   <path d="m935.92 706.89-30.686-17.717-122.74 70.866 30.686 17.717z" fill="#ccc"/>
   <path d="m905.24 547.44 30.686 17.717-5e-5 141.73-30.686-17.716z" fill="#999"/>
   <path d="m1058.7 636.02 30.686 17.717-1e-4 141.73-30.686-17.716z" fill="#999"/>
   <path d="m1058.7 813.19v-35.433l-122.74-70.866 4e-5 35.433z" fill="#999"/>
   <path d="m1089.4 795.47-30.686-17.717-122.74 70.866 30.686 17.717z" fill="#ccc"/>
   <path d="m813.18 813.19v-35.433l122.74-70.866v35.433z" fill="#4d4d4d"/>
   <path d="m782.49 795.47 30.686-17.717 122.74 70.866-30.686 17.717z" fill="#ccc"/>
   <path d="m813.18 636.02v-35.433l122.74-70.866v35.433z" fill="#4d4d4d"/>
   <path d="m966.61 547.44-30.686 17.717 3e-5 141.73 30.686-17.717z" fill="#4d4d4d"/>
   <path d="m1058.7 636.02-1e-4 -35.433-122.74-70.866v35.433z" fill="#999"/>
   <path d="m813.18 636.02-30.686 17.717v141.73l30.686-17.717z" fill="#4d4d4d"/>
   <path d="m1120 600.6-184.13 106.31v212.59l184.13-106.31v-212.59zm-30.688 53.156v141.72l-122.75 70.875v-141.72l122.75-70.875z" fill="#4d4d4d"/>
   <path d="m751.8 600.58 184.13 106.31v212.59l-184.13-106.31v-212.59zm30.688 53.156v141.72l122.75 70.875v-141.72l-122.75-70.875z" fill="#999"/>
   <path d="m1120 600.6-184.13-106.3-184.11 106.3 184.13 106.3 184.11-106.3zm-61.378 2e-3 -122.73 70.859-122.75-70.867 122.73-70.859 122.75 70.868z" fill="#ccc"/>
  </g>
  <g transform="translate(567.69 -1195.9)" stroke-linejoin="bevel">
   <path d="m935.92 706.89 30.686-17.717 122.74 70.866-30.686 17.717z" fill="#ccc"/>
   <path d="m935.92 706.89-30.686-17.717-122.74 70.866 30.686 17.717z" fill="#ccc"/>
   <path d="m905.24 547.44 30.686 17.717-5e-5 141.73-30.686-17.716z" fill="#999"/>
   <path d="m1058.7 636.02 30.686 17.717-1e-4 141.73-30.686-17.716z" fill="#999"/>
   <path d="m1058.7 813.19v-35.433l-122.74-70.866 4e-5 35.433z" fill="#999"/>
   <path d="m1089.4 795.47-30.686-17.717-122.74 70.866 30.686 17.717z" fill="#ccc"/>
   <path d="m813.18 813.19v-35.433l122.74-70.866v35.433z" fill="#4d4d4d"/>
   <path d="m782.49 795.47 30.686-17.717 122.74 70.866-30.686 17.717z" fill="#ccc"/>
   <path d="m813.18 636.02v-35.433l122.74-70.866v35.433z" fill="#4d4d4d"/>
   <path d="m966.61 547.44-30.686 17.717 3e-5 141.73 30.686-17.717z" fill="#4d4d4d"/>
   <path d="m1058.7 636.02-1e-4 -35.433-122.74-70.866v35.433z" fill="#999"/>
   <path d="m813.18 636.02-30.686 17.717v141.73l30.686-17.717z" fill="#4d4d4d"/>
   <path d="m1120 600.6-184.13 106.31v212.59l184.13-106.31v-212.59zm-30.688 53.156v141.72l-122.75 70.875v-141.72l122.75-70.875z" fill="#4d4d4d"/>
   <path d="m751.8 600.58 184.13 106.31v212.59l-184.13-106.31v-212.59zm30.688 53.156v141.72l122.75 70.875v-141.72l-122.75-70.875z" fill="#999"/>
   <path d="m1120 600.6-184.13-106.3-184.11 106.3 184.13 106.3 184.11-106.3zm-61.378 2e-3 -122.73 70.859-122.75-70.867 122.73-70.859 122.75 70.868z" fill="#ccc"/>
  </g>
  <g transform="translate(751.81 -1089.6)" stroke-linejoin="bevel">
   <path d="m935.92 706.89 30.686-17.717 122.74 70.866-30.686 17.717z" fill="#ccc"/>
   <path d="m935.92 706.89-30.686-17.717-122.74 70.866 30.686 17.717z" fill="#ccc"/>
   <path d="m905.24 547.44 30.686 17.717-5e-5 141.73-30.686-17.716z" fill="#999"/>
   <path d="m1058.7 636.02 30.686 17.717-1e-4 141.73-30.686-17.716z" fill="#999"/>
   <path d="m1058.7 813.19v-35.433l-122.74-70.866 4e-5 35.433z" fill="#999"/>
   <path d="m1089.4 795.47-30.686-17.717-122.74 70.866 30.686 17.717z" fill="#ccc"/>
   <path d="m813.18 813.19v-35.433l122.74-70.866v35.433z" fill="#4d4d4d"/>
   <path d="m782.49 795.47 30.686-17.717 122.74 70.866-30.686 17.717z" fill="#ccc"/>
   <path d="m813.18 636.02v-35.433l122.74-70.866v35.433z" fill="#4d4d4d"/>
   <path d="m966.61 547.44-30.686 17.717 3e-5 141.73 30.686-17.717z" fill="#4d4d4d"/>
   <path d="m1058.7 636.02-1e-4 -35.433-122.74-70.866v35.433z" fill="#999"/>
   <path d="m813.18 636.02-30.686 17.717v141.73l30.686-17.717z" fill="#4d4d4d"/>
   <path d="m1120 600.6-184.13 106.31v212.59l184.13-106.31v-212.59zm-30.688 53.156v141.72l-122.75 70.875v-141.72l122.75-70.875z" fill="#4d4d4d"/>
   <path d="m751.8 600.58 184.13 106.31v212.59l-184.13-106.31v-212.59zm30.688 53.156v141.72l122.75 70.875v-141.72l-122.75-70.875z" fill="#999"/>
   <path d="m1120 600.6-184.13-106.3-184.11 106.3 184.13 106.3 184.11-106.3zm-61.378 2e-3 -122.73 70.859-122.75-70.867 122.73-70.859 122.75 70.868z" fill="#ccc"/>
  </g>
  <g transform="translate(935.92 -983.27)">
   <path d="m935.92 706.89 30.686-17.717 122.74 70.866-30.686 17.717z" fill="#ccc"/>
   <path d="m935.92 706.89-30.686-17.717-122.74 70.866 30.686 17.717z" fill="#ccc"/>
   <path d="m905.24 547.44 30.686 17.717-5e-5 141.73-30.686-17.716z" fill="#999"/>
   <path d="m1058.7 636.02 30.686 17.717-1e-4 141.73-30.686-17.716z" fill="#999"/>
   <path d="m1058.7 813.19v-35.433l-122.74-70.866 4e-5 35.433z" fill="#999"/>
   <path d="m1089.4 795.47-30.686-17.717-122.74 70.866 30.686 17.717z" fill="#ccc"/>
   <path d="m813.18 813.19v-35.433l122.74-70.866v35.433z" fill="#4d4d4d"/>
   <path d="m782.49 795.47 30.686-17.717 122.74 70.866-30.686 17.717z" fill="#ccc"/>
   <path d="m813.18 636.02v-35.433l122.74-70.866v35.433z" fill="#4d4d4d"/>
   <path d="m966.61 547.44-30.686 17.717 3e-5 141.73 30.686-17.717z" fill="#4d4d4d"/>
   <path d="m1058.7 636.02-1e-4 -35.433-122.74-70.866v35.433z" fill="#999"/>
   <path d="m813.18 636.02-30.686 17.717v141.73l30.686-17.717z" fill="#4d4d4d"/>
   <path d="m1120 600.6-184.13 106.31v212.59l184.13-106.31v-212.59zm-30.688 53.156v141.72l-122.75 70.875v-141.72l122.75-70.875z" fill="#4d4d4d"/>
   <path d="m751.8 600.58 184.13 106.31v212.59l-184.13-106.31v-212.59zm30.688 53.156v141.72l122.75 70.875v-141.72l-122.75-70.875z" fill="#999"/>
   <path d="m1120 600.6-184.13-106.3-184.11 106.3 184.13 106.3 184.11-106.3zm-61.378 2e-3 -122.73 70.859-122.75-70.867 122.73-70.859 122.75 70.868z" fill="#ccc"/>
  </g>
  <g transform="translate(1120 -876.97)">
   <path d="m935.92 706.89 30.686-17.717 122.74 70.866-30.686 17.717z" fill="#ccc"/>
   <path d="m935.92 706.89-30.686-17.717-122.74 70.866 30.686 17.717z" fill="#ccc"/>
   <path d="m905.24 547.44 30.686 17.717-5e-5 141.73-30.686-17.716z" fill="#999"/>
   <path d="m1058.7 636.02 30.686 17.717-1e-4 141.73-30.686-17.716z" fill="#999"/>
   <path d="m1058.7 813.19v-35.433l-122.74-70.866 4e-5 35.433z" fill="#999"/>
   <path d="m1089.4 795.47-30.686-17.717-122.74 70.866 30.686 17.717z" fill="#ccc"/>
   <path d="m813.18 813.19v-35.433l122.74-70.866v35.433z" fill="#4d4d4d"/>
   <path d="m782.49 795.47 30.686-17.717 122.74 70.866-30.686 17.717z" fill="#ccc"/>
   <path d="m813.18 636.02v-35.433l122.74-70.866v35.433z" fill="#4d4d4d"/>
   <path d="m966.61 547.44-30.686 17.717 3e-5 141.73 30.686-17.717z" fill="#4d4d4d"/>
   <path d="m1058.7 636.02-1e-4 -35.433-122.74-70.866v35.433z" fill="#999"/>
   <path d="m813.18 636.02-30.686 17.717v141.73l30.686-17.717z" fill="#4d4d4d"/>
   <path d="m1120 600.6-184.13 106.31v212.59l184.13-106.31v-212.59zm-30.688 53.156v141.72l-122.75 70.875v-141.72l122.75-70.875z" fill="#4d4d4d"/>
   <path d="m751.8 600.58 184.13 106.31v212.59l-184.13-106.31v-212.59zm30.688 53.156v141.72l122.75 70.875v-141.72l-122.75-70.875z" fill="#999"/>
   <path d="m1120 600.6-184.13-106.3-184.11 106.3 184.13 106.3 184.11-106.3zm-61.378 2e-3 -122.73 70.859-122.75-70.867 122.73-70.859 122.75 70.868z" fill="#ccc"/>
  </g>
  <g transform="translate(1304.2 -770.67)">
   <path d="m935.92 706.89 30.686-17.717 122.74 70.866-30.686 17.717z" fill="#ccc"/>
   <path d="m935.92 706.89-30.686-17.717-122.74 70.866 30.686 17.717z" fill="#ccc"/>
   <path d="m905.24 547.44 30.686 17.717-5e-5 141.73-30.686-17.716z" fill="#999"/>
   <path d="m1058.7 636.02 30.686 17.717-1e-4 141.73-30.686-17.716z" fill="#999"/>
   <path d="m1058.7 813.19v-35.433l-122.74-70.866 4e-5 35.433z" fill="#999"/>
   <path d="m1089.4 795.47-30.686-17.717-122.74 70.866 30.686 17.717z" fill="#ccc"/>
   <path d="m813.18 813.19v-35.433l122.74-70.866v35.433z" fill="#4d4d4d"/>
   <path d="m782.49 795.47 30.686-17.717 122.74 70.866-30.686 17.717z" fill="#ccc"/>
   <path d="m813.18 636.02v-35.433l122.74-70.866v35.433z" fill="#4d4d4d"/>
   <path d="m966.61 547.44-30.686 17.717 3e-5 141.73 30.686-17.717z" fill="#4d4d4d"/>
   <path d="m1058.7 636.02-1e-4 -35.433-122.74-70.866v35.433z" fill="#999"/>
   <path d="m813.18 636.02-30.686 17.717v141.73l30.686-17.717z" fill="#4d4d4d"/>
   <path d="m1120 600.6-184.13 106.31v212.59l184.13-106.31v-212.59zm-30.688 53.156v141.72l-122.75 70.875v-141.72l122.75-70.875z" fill="#4d4d4d"/>
   <path d="m751.8 600.58 184.13 106.31v212.59l-184.13-106.31v-212.59zm30.688 53.156v141.72l122.75 70.875v-141.72l-122.75-70.875z" fill="#999"/>
   <path d="m1120 600.6-184.13-106.3-184.11 106.3 184.13 106.3 184.11-106.3zm-61.378 2e-3 -122.73 70.859-122.75-70.867 122.73-70.859 122.75 70.868z" fill="#ccc"/>
  </g>
  <g transform="translate(1488.3 -664.37)">
   <path d="m935.92 706.89 30.686-17.717 122.74 70.866-30.686 17.717z" fill="#ccc"/>
   <path d="m935.92 706.89-30.686-17.717-122.74 70.866 30.686 17.717z" fill="#ccc"/>
   <path d="m905.24 547.44 30.686 17.717-5e-5 141.73-30.686-17.716z" fill="#999"/>
   <path d="m1058.7 636.02 30.686 17.717-1e-4 141.73-30.686-17.716z" fill="#999"/>
   <path d="m1058.7 813.19v-35.433l-122.74-70.866 4e-5 35.433z" fill="#999"/>
   <path d="m1089.4 795.47-30.686-17.717-122.74 70.866 30.686 17.717z" fill="#ccc"/>
   <path d="m813.18 813.19v-35.433l122.74-70.866v35.433z" fill="#4d4d4d"/>
   <path d="m782.49 795.47 30.686-17.717 122.74 70.866-30.686 17.717z" fill="#ccc"/>
   <path d="m813.18 636.02v-35.433l122.74-70.866v35.433z" fill="#4d4d4d"/>
   <path d="m966.61 547.44-30.686 17.717 3e-5 141.73 30.686-17.717z" fill="#4d4d4d"/>
   <path d="m1058.7 636.02-1e-4 -35.433-122.74-70.866v35.433z" fill="#999"/>
   <path d="m813.18 636.02-30.686 17.717v141.73l30.686-17.717z" fill="#4d4d4d"/>
   <path d="m1120 600.6-184.13 106.31v212.59l184.13-106.31v-212.59zm-30.688 53.156v141.72l-122.75 70.875v-141.72l122.75-70.875z" fill="#4d4d4d"/>
   <path d="m751.8 600.58 184.13 106.31v212.59l-184.13-106.31v-212.59zm30.688 53.156v141.72l122.75 70.875v-141.72l-122.75-70.875z" fill="#999"/>
   <path d="m1120 600.6-184.13-106.3-184.11 106.3 184.13 106.3 184.11-106.3zm-61.378 2e-3 -122.73 70.859-122.75-70.867 122.73-70.859 122.75 70.868z" fill="#ccc"/>
  </g>
  <g transform="translate(1304.1 -558.07)">
   <path d="m935.92 706.89 30.686-17.717 122.74 70.866-30.686 17.717z" fill="#ccc"/>
   <path d="m935.92 706.89-30.686-17.717-122.74 70.866 30.686 17.717z" fill="#ccc"/>
   <path d="m905.24 547.44 30.686 17.717-5e-5 141.73-30.686-17.716z" fill="#999"/>
   <path d="m1058.7 636.02 30.686 17.717-1e-4 141.73-30.686-17.716z" fill="#999"/>
   <path d="m1058.7 813.19v-35.433l-122.74-70.866 4e-5 35.433z" fill="#999"/>
   <path d="m1089.4 795.47-30.686-17.717-122.74 70.866 30.686 17.717z" fill="#ccc"/>
   <path d="m813.18 813.19v-35.433l122.74-70.866v35.433z" fill="#4d4d4d"/>
   <path d="m782.49 795.47 30.686-17.717 122.74 70.866-30.686 17.717z" fill="#ccc"/>
   <path d="m813.18 636.02v-35.433l122.74-70.866v35.433z" fill="#4d4d4d"/>
   <path d="m966.61 547.44-30.686 17.717 3e-5 141.73 30.686-17.717z" fill="#4d4d4d"/>
   <path d="m1058.7 636.02-1e-4 -35.433-122.74-70.866v35.433z" fill="#999"/>
   <path d="m813.18 636.02-30.686 17.717v141.73l30.686-17.717z" fill="#4d4d4d"/>
   <path d="m1120 600.6-184.13 106.31v212.59l184.13-106.31v-212.59zm-30.688 53.156v141.72l-122.75 70.875v-141.72l122.75-70.875z" fill="#4d4d4d"/>
   <path d="m751.8 600.58 184.13 106.31v212.59l-184.13-106.31v-212.59zm30.688 53.156v141.72l122.75 70.875v-141.72l-122.75-70.875z" fill="#999"/>
   <path d="m1120 600.6-184.13-106.3-184.11 106.3 184.13 106.3 184.11-106.3zm-61.378 2e-3 -122.73 70.859-122.75-70.867 122.73-70.859 122.75 70.868z" fill="#ccc"/>
  </g>
  <g transform="translate(1120 -451.77)">
   <path d="m935.92 706.89 30.686-17.717 122.74 70.866-30.686 17.717z" fill="#ccc"/>
   <path d="m935.92 706.89-30.686-17.717-122.74 70.866 30.686 17.717z" fill="#ccc"/>
   <path d="m905.24 547.44 30.686 17.717-5e-5 141.73-30.686-17.716z" fill="#999"/>
   <path d="m1058.7 636.02 30.686 17.717-1e-4 141.73-30.686-17.716z" fill="#999"/>
   <path d="m1058.7 813.19v-35.433l-122.74-70.866 4e-5 35.433z" fill="#999"/>
   <path d="m1089.4 795.47-30.686-17.717-122.74 70.866 30.686 17.717z" fill="#ccc"/>
   <path d="m813.18 813.19v-35.433l122.74-70.866v35.433z" fill="#4d4d4d"/>
   <path d="m782.49 795.47 30.686-17.717 122.74 70.866-30.686 17.717z" fill="#ccc"/>
   <path d="m813.18 636.02v-35.433l122.74-70.866v35.433z" fill="#4d4d4d"/>
   <path d="m966.61 547.44-30.686 17.717 3e-5 141.73 30.686-17.717z" fill="#4d4d4d"/>
   <path d="m1058.7 636.02-1e-4 -35.433-122.74-70.866v35.433z" fill="#999"/>
   <path d="m813.18 636.02-30.686 17.717v141.73l30.686-17.717z" fill="#4d4d4d"/>
   <path d="m1120 600.6-184.13 106.31v212.59l184.13-106.31v-212.59zm-30.688 53.156v141.72l-122.75 70.875v-141.72l122.75-70.875z" fill="#4d4d4d"/>
   <path d="m751.8 600.58 184.13 106.31v212.59l-184.13-106.31v-212.59zm30.688 53.156v141.72l122.75 70.875v-141.72l-122.75-70.875z" fill="#999"/>
   <path d="m1120 600.6-184.13-106.3-184.11 106.3 184.13 106.3 184.11-106.3zm-61.378 2e-3 -122.73 70.859-122.75-70.867 122.73-70.859 122.75 70.868z" fill="#ccc"/>
  </g>
  <path d="m1871.8 361.42 30.686-17.717 122.74 70.866-30.686 17.717z" fill="#ccc"/>
  <path d="m1841.2 201.97 30.686 17.717v141.73l-30.686-17.716z" fill="#999"/>
  <path d="m1994.6 290.55 30.686 17.717-1e-4 141.73-30.686-17.716z" fill="#999"/>
  <path d="m1994.6 467.72v-35.433l-122.74-70.866v35.433z" fill="#999"/>
  <path d="m2025.3 450-30.686-17.717-122.74 70.866 30.686 17.717z" fill="#ccc"/>
  <path d="m1749.1 290.55v-35.433l122.74-70.866v35.433z" fill="#4d4d4d"/>
  <path d="m1902.5 201.97-30.686 17.717v141.73l30.686-17.717z" fill="#4d4d4d"/>
  <path d="m1994.6 290.55-1e-4 -35.433-122.74-70.866v35.433z" fill="#999"/>
  <path d="m2056 255.12-184.13 106.31v212.59l184.13-106.31v-212.59zm-30.688 53.156v141.72l-122.75 70.875v-141.72l122.75-70.875z" fill="#4d4d4d"/>
  <path d="m2056 255.12-184.13-106.3-184.11 106.3 184.13 106.3 184.11-106.3zm-61.378 2e-3 -122.73 70.859-122.75-70.867 122.73-70.859 122.75 70.868z" fill="#ccc"/>
 </g>
</svg>
