<?xml version="1.0" encoding="UTF-8" standalone="no"?>
<!-- Created with Inkscape (http://www.inkscape.org/) -->

<svg
   xmlns:dc="http://purl.org/dc/elements/1.1/"
   xmlns:cc="http://creativecommons.org/ns#"
   xmlns:rdf="http://www.w3.org/1999/02/22-rdf-syntax-ns#"
   xmlns:svg="http://www.w3.org/2000/svg"
   xmlns="http://www.w3.org/2000/svg"
   xmlns:sodipodi="http://sodipodi.sourceforge.net/DTD/sodipodi-0.dtd"
   xmlns:inkscape="http://www.inkscape.org/namespaces/inkscape"
   width="1042.3665"
   height="1042.3665"
   id="svg5394"
   version="1.1"
   inkscape:version="0.91 r13725"
   viewBox="0 0 1042.3665 1042.3665"
   sodipodi:docname="pyramid3.svg">
  <defs
     id="defs5396">
    <filter
       style="color-interpolation-filters:sRGB;"
       inkscape:label="Invert"
       id="filter4203">
      <feColorMatrix
         values="-1 0 0 0 1 0 -1 0 0 1 0 0 -1 0 1 -0.21 -0.72 -0.07 2 0 "
         result="color2"
         id="feColorMatrix4205" />
    </filter>
  </defs>
  <sodipodi:namedview
     id="base"
     pagecolor="#ffffff"
     bordercolor="#666666"
     borderopacity="1.0"
     inkscape:pageopacity="0.0"
     inkscape:pageshadow="2"
     inkscape:zoom="0.34684066"
     inkscape:cx="-567.24947"
     inkscape:cy="307.88977"
     inkscape:current-layer="layer1"
     showgrid="true"
     inkscape:grid-bbox="true"
     inkscape:document-units="px"
     inkscape:snap-page="true"
     inkscape:snap-grids="false"
     fit-margin-top="0"
     fit-margin-left="0"
     fit-margin-right="0"
     fit-margin-bottom="0"
     inkscape:window-width="1920"
     inkscape:window-height="1047"
     inkscape:window-x="0"
     inkscape:window-y="120"
     inkscape:window-maximized="1" />
  <metadata
     id="metadata5399">
    <rdf:RDF>
      <cc:Work
         rdf:about="">
        <dc:format>image/svg+xml</dc:format>
        <dc:type
           rdf:resource="http://purl.org/dc/dcmitype/StillImage" />
        <dc:title></dc:title>
      </cc:Work>
    </rdf:RDF>
  </metadata>
  <g
     id="layer1"
     inkscape:label="Layer 1"
     inkscape:groupmode="layer"
     transform="translate(513.07427,517.75207)">
    <g
       transform="matrix(-0.99999207,0,0,0.99999207,-1278.0607,1239.4674)"
       id="g10990"
       style="fill:#000000;filter:url(#filter4203)">
      <g
         style="fill:#000000"
         transform="matrix(2.6322592,0,0,2.6322592,1418.8087,2002.0803)"
         id="g78">
        <path
           inkscape:connector-curvature="0"
           d="m -1040.9,-1229.9 c -89.454,3.4032 -159.92,40.772 -159.92,86.371 0,47.842 77.566,86.625 173.25,86.625 95.683,0 173.25,-38.783 173.25,-86.625 0,-45.599 -70.466,-82.968 -159.92,-86.371 89.208,3.4226 159.68,40.906 159.68,86.371 0,47.707 -77.592,85.894 -173.01,85.894 -95.414,0 -173.01,-38.187 -173.01,-85.894 0,-45.465 70.469,-82.948 159.68,-86.371 z"
           id="path80"
           style="fill:#000000" />
        <path
           inkscape:connector-curvature="0"
           d="m -1040.9,-1230.2 c -89.454,1.7041 -159.92,20.416 -159.92,43.249 0,23.956 77.566,43.376 173.25,43.376 95.683,0 173.25,-19.42 173.25,-43.376 0,-22.833 -70.466,-41.545 -159.92,-43.249 89.208,1.7138 159.68,20.483 159.68,43.249 0,23.888 -77.592,42.889 -173.01,42.889 -95.414,0 -173.01,-19 -173.01,-42.889 0,-22.766 70.469,-41.535 159.68,-43.249 z"
           id="path82"
           style="fill:#000000" />
        <path
           inkscape:connector-curvature="0"
           d="m -1040.9,-1229.9 c -89.454,2.5512 -159.92,30.564 -159.92,64.746 0,35.864 77.566,64.937 173.25,64.937 95.683,0 173.25,-29.073 173.25,-64.937 0,-34.182 -70.466,-62.195 -159.92,-64.746 89.208,2.5657 159.68,30.664 159.68,64.746 0,35.763 -77.592,64.449 -173.01,64.449 -95.414,0 -173.01,-28.687 -173.01,-64.449 0,-34.082 70.469,-62.181 159.68,-64.746 z"
           id="path84"
           style="fill:#000000" />
        <path
           inkscape:connector-curvature="0"
           d="m -1040.9,-1230.2 c -89.454,0.8521 -159.92,10.208 -159.92,21.624 0,11.978 77.566,21.688 173.25,21.688 95.683,0 173.25,-9.71 173.25,-21.688 0,-11.416 -70.466,-20.772 -159.92,-21.624 89.208,0.8569 159.68,10.242 159.68,21.624 0,11.944 -77.592,21.201 -173.01,21.201 -95.414,0 -173.01,-9.2565 -173.01,-21.201 0,-11.383 70.469,-20.768 159.68,-21.624 z"
           id="path86"
           style="fill:#000000" />
        <path
           inkscape:connector-curvature="0"
           transform="matrix(33.68,0,0,0.10644,-54907,-1400.6)"
           d="m 1604.9,1601.1 c 0,1.2641 -2.3031,2.2889 -5.144,2.2889 -2.841,0 -5.1441,-1.0248 -5.1441,-2.2889 0,-1.2642 2.3031,-2.289 5.1441,-2.289 2.8409,0 5.144,1.0248 5.144,2.289 z"
           id="path88"
           style="fill:#000000" />
        <path
           inkscape:connector-curvature="0"
           d="m -1040.9,-1230.4 c -89.454,-3.4032 -159.92,-40.772 -159.92,-86.371 0,-47.841 77.566,-86.625 173.25,-86.625 95.683,0 173.25,38.783 173.25,86.625 0,45.599 -70.466,82.968 -159.92,86.371 89.208,-3.4226 159.68,-40.906 159.68,-86.371 0,-47.707 -77.592,-85.894 -173.01,-85.894 -95.414,0 -173.01,38.187 -173.01,85.894 0,45.465 70.469,82.948 159.68,86.371 z"
           id="path90"
           style="fill:#000000" />
        <path
           inkscape:connector-curvature="0"
           d="m -1040.9,-1230.2 c -89.454,-1.7041 -159.92,-20.416 -159.92,-43.249 0,-23.956 77.566,-43.376 173.25,-43.376 95.683,0 173.25,19.42 173.25,43.376 0,22.833 -70.466,41.545 -159.92,43.249 89.208,-1.7138 159.68,-20.483 159.68,-43.249 0,-23.888 -77.592,-42.889 -173.01,-42.889 -95.414,0 -173.01,19 -173.01,42.889 0,22.766 70.469,41.535 159.68,43.249 z"
           id="path92"
           style="fill:#000000" />
        <path
           inkscape:connector-curvature="0"
           d="m -1040.9,-1230.4 c -89.454,-2.5511 -159.92,-30.564 -159.92,-64.746 0,-35.864 77.566,-64.937 173.25,-64.937 95.683,0 173.25,29.073 173.25,64.937 0,34.182 -70.466,62.195 -159.92,64.746 89.208,-2.5657 159.68,-30.664 159.68,-64.746 0,-35.763 -77.592,-64.449 -173.01,-64.449 -95.414,0 -173.01,28.687 -173.01,64.449 0,34.082 70.469,62.181 159.68,64.746 z"
           id="path94"
           style="fill:#000000" />
        <path
           inkscape:connector-curvature="0"
           d="m -1040.9,-1230.2 c -89.454,-0.852 -159.92,-10.208 -159.92,-21.624 0,-11.978 77.566,-21.688 173.25,-21.688 95.683,0 173.25,9.71 173.25,21.688 0,11.416 -70.466,20.772 -159.92,21.624 89.208,-0.8569 159.68,-10.242 159.68,-21.624 0,-11.944 -77.592,-21.201 -173.01,-21.201 -95.414,0 -173.01,9.2565 -173.01,21.201 0,11.383 70.469,20.768 159.68,21.624 z"
           id="path96"
           style="fill:#000000" />
        <path
           inkscape:connector-curvature="0"
           d="m -1027.9,-1243.5 c -3.4032,-89.454 -40.772,-159.92 -86.371,-159.92 -47.842,0 -86.625,77.566 -86.625,173.25 0,95.683 38.783,173.25 86.625,173.25 45.599,0 82.968,-70.466 86.371,-159.92 -3.4226,89.208 -40.906,159.68 -86.371,159.68 -47.707,0 -85.894,-77.592 -85.894,-173.01 0,-95.414 38.187,-173.01 85.894,-173.01 45.465,0 82.948,70.469 86.371,159.68 z"
           id="path98"
           style="fill:#000000" />
        <path
           inkscape:connector-curvature="0"
           d="m -1027.6,-1243.5 c -1.7041,-89.454 -20.416,-159.92 -43.249,-159.92 -23.956,0 -43.376,77.566 -43.376,173.25 0,95.683 19.42,173.25 43.376,173.25 22.833,0 41.545,-70.466 43.249,-159.92 -1.7138,89.208 -20.483,159.68 -43.249,159.68 -23.888,0 -42.889,-77.592 -42.889,-173.01 0,-95.414 19,-173.01 42.889,-173.01 22.766,0 41.535,70.469 43.249,159.68 z"
           id="path100"
           style="fill:#000000" />
        <path
           inkscape:connector-curvature="0"
           d="m -1027.9,-1243.5 c -2.5512,-89.454 -30.564,-159.92 -64.746,-159.92 -35.864,0 -64.937,77.566 -64.937,173.25 0,95.683 29.073,173.25 64.937,173.25 34.182,0 62.195,-70.466 64.746,-159.92 -2.5657,89.208 -30.664,159.68 -64.746,159.68 -35.763,0 -64.449,-77.592 -64.449,-173.01 0,-95.414 28.687,-173.01 64.449,-173.01 34.082,0 62.181,70.469 64.746,159.68 z"
           id="path102"
           style="fill:#000000" />
        <path
           inkscape:connector-curvature="0"
           d="m -1027.6,-1243.5 c -0.8521,-89.454 -10.208,-159.92 -21.624,-159.92 -11.978,0 -21.688,77.566 -21.688,173.25 0,95.683 9.7101,173.25 21.688,173.25 11.416,0 20.772,-70.466 21.624,-159.92 -0.8569,89.208 -10.242,159.68 -21.624,159.68 -11.944,0 -21.201,-77.592 -21.201,-173.01 0,-95.414 9.2565,-173.01 21.201,-173.01 11.383,0 20.768,70.469 21.624,159.68 z"
           id="path104"
           style="fill:#000000" />
        <path
           inkscape:connector-curvature="0"
           transform="matrix(0,33.68,-0.10644,0,-857.18,-55110)"
           d="m 1604.9,1601.1 c 0,1.2641 -2.3031,2.2889 -5.144,2.2889 -2.841,0 -5.1441,-1.0248 -5.1441,-2.2889 0,-1.2642 2.3031,-2.289 5.1441,-2.289 2.8409,0 5.144,1.0248 5.144,2.289 z"
           id="path106"
           style="fill:#000000" />
        <path
           inkscape:connector-curvature="0"
           d="m -1027.3,-1243.5 c 3.4032,-89.454 40.772,-159.92 86.371,-159.92 47.842,0 86.625,77.566 86.625,173.25 0,95.683 -38.783,173.25 -86.625,173.25 -45.599,0 -82.968,-70.466 -86.371,-159.92 3.4225,89.208 40.906,159.68 86.371,159.68 47.707,0 85.894,-77.592 85.894,-173.01 0,-95.414 -38.187,-173.01 -85.894,-173.01 -45.465,0 -82.948,70.469 -86.371,159.68 z"
           id="path108"
           style="fill:#000000" />
        <path
           inkscape:connector-curvature="0"
           d="m -1027.6,-1243.5 c 1.7041,-89.454 20.416,-159.92 43.249,-159.92 23.956,0 43.376,77.566 43.376,173.25 0,95.683 -19.42,173.25 -43.376,173.25 -22.833,0 -41.545,-70.466 -43.249,-159.92 1.7138,89.208 20.483,159.68 43.249,159.68 23.888,0 42.889,-77.592 42.889,-173.01 0,-95.414 -19,-173.01 -42.889,-173.01 -22.766,0 -41.535,70.469 -43.249,159.68 z"
           id="path110"
           style="fill:#000000" />
        <path
           inkscape:connector-curvature="0"
           d="m -1027.3,-1243.5 c 2.5511,-89.454 30.564,-159.92 64.746,-159.92 35.864,0 64.937,77.566 64.937,173.25 0,95.683 -29.073,173.25 -64.937,173.25 -34.182,0 -62.195,-70.466 -64.746,-159.92 2.5656,89.208 30.664,159.68 64.746,159.68 35.763,0 64.45,-77.592 64.45,-173.01 0,-95.414 -28.687,-173.01 -64.45,-173.01 -34.082,0 -62.181,70.469 -64.746,159.68 z"
           id="path112"
           style="fill:#000000" />
        <path
           inkscape:connector-curvature="0"
           d="m -1027.6,-1243.5 c 0.852,-89.454 10.208,-159.92 21.624,-159.92 11.978,0 21.688,77.566 21.688,173.25 0,95.683 -9.71,173.25 -21.688,173.25 -11.416,0 -20.772,-70.466 -21.624,-159.92 0.8569,89.208 10.242,159.68 21.624,159.68 11.944,0 21.201,-77.592 21.201,-173.01 0,-95.414 -9.2564,-173.01 -21.201,-173.01 -11.383,0 -20.768,70.469 -21.624,159.68 z"
           id="path114"
           style="fill:#000000" />
        <path
           inkscape:connector-curvature="0"
           d="m -1027.9,-1245.4 c -3.4025,-102.23 -40.764,-182.77 -86.353,-182.77 -47.832,0 -86.607,88.647 -86.607,198 0,109.35 38.775,198 86.607,198 45.59,0 82.95,-80.533 86.353,-182.77 -3.4219,101.95 -40.898,182.49 -86.353,182.49 -47.697,0 -86.05,-88.676 -86.05,-197.72 0,-109.044 38.353,-197.72 86.05,-197.72 45.456,0 82.931,80.537 86.353,182.49 z"
           id="path116"
           style="fill:#000000" />
        <path
           inkscape:connector-curvature="0"
           d="m -1027.9,-1245.4 c -2.4288,-102.23 -29.097,-182.77 -61.639,-182.77 -34.142,0 -61.82,88.647 -61.82,198 0,109.35 27.678,198 61.82,198 32.542,0 59.21,-80.533 61.639,-182.77 -2.4426,101.95 -29.193,182.49 -61.639,182.49 -34.046,0 -61.264,-88.676 -61.264,-197.72 0,-109.044 27.217,-197.72 61.264,-197.72 32.446,0 59.197,80.537 61.639,182.49 z"
           id="path118"
           style="fill:#000000" />
        <path
           inkscape:connector-curvature="0"
           d="m -1027.9,-1245.4 c -1.455,-102.23 -17.431,-182.77 -36.926,-182.77 -20.453,0 -37.034,88.647 -37.034,198 0,109.35 16.581,198 37.034,198 19.495,0 35.471,-80.533 36.926,-182.77 -1.4633,101.95 -17.488,182.49 -36.926,182.49 -20.396,0 -36.477,-88.676 -36.477,-197.72 0,-109.044 16.081,-197.72 36.477,-197.72 19.437,0 35.462,80.537 36.926,182.49 z"
           id="path120"
           style="fill:#000000" />
        <path
           inkscape:connector-curvature="0"
           d="m -1027.9,-1245.4 c -0.4812,-102.23 -5.7648,-182.77 -12.212,-182.77 -6.7643,0 -12.248,88.647 -12.248,198 0,109.35 5.4835,198 12.248,198 6.4473,0 11.731,-80.533 12.212,-182.77 -0.484,101.95 -5.7838,182.49 -12.212,182.49 -6.7452,0 -11.691,-88.676 -11.691,-197.72 0,-109.044 4.9458,-197.72 11.691,-197.72 6.4283,0 11.728,80.537 12.212,182.49 z"
           id="path122"
           style="fill:#000000" />
        <path
           inkscape:connector-curvature="0"
           d="m -1027.3,-1245.4 c 3.4025,-102.23 40.763,-182.77 86.353,-182.77 47.832,0 86.607,88.647 86.607,198 0,109.35 -38.775,198 -86.607,198 -45.589,0 -82.95,-80.533 -86.353,-182.77 3.4218,101.95 40.897,182.49 86.353,182.49 47.697,0 86.05,-88.676 86.05,-197.72 0,-109.044 -38.353,-197.72 -86.05,-197.72 -45.456,0 -82.931,80.537 -86.353,182.49 z"
           id="path124"
           style="fill:#000000" />
        <path
           inkscape:connector-curvature="0"
           d="m -1027.3,-1245.4 c 2.4287,-102.23 29.097,-182.77 61.639,-182.77 34.142,0 61.82,88.647 61.82,198 0,109.35 -27.678,198 -61.82,198 -32.542,0 -59.21,-80.533 -61.639,-182.77 2.4425,101.95 29.193,182.49 61.639,182.49 34.046,0 61.264,-88.676 61.264,-197.72 0,-109.044 -27.217,-197.72 -61.264,-197.72 -32.446,0 -59.197,80.537 -61.639,182.49 z"
           id="path126"
           style="fill:#000000" />
        <path
           inkscape:connector-curvature="0"
           d="m -1027.3,-1245.4 c 1.4549,-102.23 17.431,-182.77 36.926,-182.77 20.453,0 37.034,88.647 37.034,198 0,109.35 -16.581,198 -37.034,198 -19.495,0 -35.471,-80.533 -36.926,-182.77 1.4632,101.95 17.488,182.49 36.926,182.49 20.396,0 36.477,-88.676 36.477,-197.72 0,-109.044 -16.081,-197.72 -36.477,-197.72 -19.437,0 -35.462,80.537 -36.926,182.49 z"
           id="path128"
           style="fill:#000000" />
        <path
           inkscape:connector-curvature="0"
           d="m -1027.3,-1245.4 c 0.4811,-102.23 5.7647,-182.77 12.212,-182.77 6.7643,0 12.248,88.647 12.248,198 0,109.35 -5.4836,198 -12.248,198 -6.4473,0 -11.731,-80.533 -12.212,-182.77 0.4839,101.95 5.7837,182.49 12.212,182.49 6.7453,0 11.691,-88.676 11.691,-197.72 0,-109.044 -4.9457,-197.72 -11.691,-197.72 -6.4283,0 -11.728,80.537 -12.212,182.49 z"
           id="path130"
           style="fill:#000000" />
        <path
           inkscape:connector-curvature="0"
           d="m -1012.4,-1230.5 c 102.23,-3.4025 182.77,-40.764 182.77,-86.353 0,-47.832 -88.647,-86.607 -198,-86.607 -109.35,0 -198,38.775 -198,86.607 0,45.589 80.533,82.95 182.77,86.353 -101.95,-3.4219 -182.49,-40.897 -182.49,-86.353 0,-47.697 88.676,-86.05 197.72,-86.05 109.04,0 197.72,38.353 197.72,86.05 0,45.456 -80.536,82.931 -182.49,86.353 z"
           id="path132"
           style="fill:#000000" />
        <path
           inkscape:connector-curvature="0"
           d="m -1012.4,-1230.5 c 102.23,-2.4287 182.77,-29.097 182.77,-61.639 0,-34.142 -88.647,-61.82 -198,-61.82 -109.35,0 -198,27.678 -198,61.82 0,32.542 80.533,59.211 182.77,61.639 -101.95,-2.4425 -182.49,-29.193 -182.49,-61.639 0,-34.046 88.676,-61.264 197.72,-61.264 109.04,0 197.72,27.217 197.72,61.264 0,32.446 -80.536,59.197 -182.49,61.639 z"
           id="path134"
           style="fill:#000000" />
        <path
           inkscape:connector-curvature="0"
           d="m -1012.4,-1230.5 c 102.23,-1.4549 182.77,-17.431 182.77,-36.926 0,-20.453 -88.647,-37.034 -198,-37.034 -109.35,0 -198,16.581 -198,37.034 0,19.495 80.533,35.471 182.77,36.926 -101.95,-1.4632 -182.49,-17.488 -182.49,-36.926 0,-20.396 88.676,-36.477 197.72,-36.477 109.04,0 197.72,16.081 197.72,36.477 0,19.437 -80.536,35.462 -182.49,36.926 z"
           id="path136"
           style="fill:#000000" />
        <path
           inkscape:connector-curvature="0"
           d="m -1012.4,-1230.5 c 102.23,-0.4812 182.77,-5.7647 182.77,-12.212 0,-6.7643 -88.647,-12.248 -198,-12.248 -109.35,0 -198,5.4836 -198,12.248 0,6.4473 80.533,11.731 182.77,12.212 -101.95,-0.4839 -182.49,-5.7837 -182.49,-12.212 0,-6.7453 88.676,-11.691 197.72,-11.691 109.04,0 197.72,4.9457 197.72,11.691 0,6.4283 -80.536,11.728 -182.49,12.212 z"
           id="path138"
           style="fill:#000000" />
        <path
           inkscape:connector-curvature="0"
           d="m -1012.4,-1229.9 c 102.23,3.4025 182.77,40.764 182.77,86.353 0,47.832 -88.647,86.607 -198,86.607 -109.35,0 -198,-38.775 -198,-86.607 0,-45.59 80.533,-82.95 182.77,-86.353 -101.95,3.4219 -182.49,40.898 -182.49,86.353 0,47.697 88.676,86.05 197.72,86.05 109.04,0 197.72,-38.353 197.72,-86.05 0,-45.456 -80.536,-82.931 -182.49,-86.353 z"
           id="path140"
           style="fill:#000000" />
        <path
           inkscape:connector-curvature="0"
           d="m -1012.4,-1229.9 c 102.23,2.4288 182.77,29.097 182.77,61.639 0,34.142 -88.647,61.82 -198,61.82 -109.35,0 -198,-27.678 -198,-61.82 0,-32.542 80.533,-59.21 182.77,-61.639 -101.95,2.4426 -182.49,29.193 -182.49,61.639 0,34.046 88.676,61.264 197.72,61.264 109.04,0 197.72,-27.217 197.72,-61.264 0,-32.446 -80.536,-59.197 -182.49,-61.639 z"
           id="path142"
           style="fill:#000000" />
        <path
           inkscape:connector-curvature="0"
           d="m -1012.4,-1229.9 c 102.23,1.455 182.77,17.431 182.77,36.926 0,20.453 -88.647,37.034 -198,37.034 -109.35,0 -198,-16.581 -198,-37.034 0,-19.495 80.533,-35.471 182.77,-36.926 -101.95,1.4633 -182.49,17.488 -182.49,36.926 0,20.396 88.676,36.477 197.72,36.477 109.04,0 197.72,-16.081 197.72,-36.477 0,-19.437 -80.536,-35.462 -182.49,-36.926 z"
           id="path144"
           style="fill:#000000" />
        <path
           inkscape:connector-curvature="0"
           d="m -1012.4,-1229.9 c 102.23,0.4812 182.77,5.7648 182.77,12.212 0,6.7644 -88.647,12.248 -198,12.248 -109.35,0 -198,-5.4835 -198,-12.248 0,-6.4472 80.533,-11.731 182.77,-12.212 -101.95,0.484 -182.49,5.7837 -182.49,12.212 0,6.7453 88.676,11.691 197.72,11.691 109.04,0 197.72,-4.9457 197.72,-11.691 0,-6.4283 -80.536,-11.728 -182.49,-12.212 z"
           id="path146"
           style="fill:#000000" />
      </g>
      <path
         inkscape:connector-curvature="0"
         d="m -1321.11,-1235.3354 c -235.4661,8.9581 -420.9509,107.3225 -420.9509,227.3509 0,125.93249 204.1738,228.0194 456.0389,228.0194 251.8625,0 456.03899,-102.08691 456.03899,-228.0194 0,-120.0284 -185.48479,-218.3933 -420.95089,-227.3509 234.8186,9.0092 420.31915,107.6752 420.31915,227.3509 0,125.57713 -204.24225,226.09522 -455.40725,226.09522 -251.1543,0 -455.4071,-100.51809 -455.4071,-226.09522 0,-119.6757 185.4926,-218.3407 420.3191,-227.3509 z"
         id="path298"
         style="fill:#000000" />
      <path
         inkscape:connector-curvature="0"
         d="m -1321.11,-1236.1251 c -235.4661,4.4857 -420.9509,53.7402 -420.9509,113.8426 0,63.0584 204.1738,114.1769 456.0389,114.1769 251.8625,0 456.03899,-51.1185 456.03899,-114.1769 0,-60.1024 -185.48479,-109.3572 -420.95089,-113.8426 234.8186,4.5112 420.31915,53.9166 420.31915,113.8426 0,62.8794 -204.24225,112.895 -455.40725,112.895 -251.1543,0 -455.4071,-50.0129 -455.4071,-112.895 0,-59.926 185.4926,-109.3309 420.3191,-113.8426 z"
         id="path300"
         style="fill:#000000" />
      <path
         inkscape:connector-curvature="0"
         d="m -1321.11,-1235.3354 c -235.4661,6.7154 -420.9509,80.4524 -420.9509,170.4283 0,94.40328 204.1738,170.93096 456.0389,170.93096 251.8625,0 456.03899,-76.52768 456.03899,-170.93096 0,-89.9759 -185.48479,-163.7134 -420.95089,-170.4283 234.8186,6.7536 420.31915,80.7156 420.31915,170.4283 0,94.13742 -204.24225,169.64641 -455.40725,169.64641 -251.1543,0 -455.4071,-75.51162 -455.4071,-169.64641 0,-89.7127 185.4926,-163.6765 420.3191,-170.4283 z"
         id="path302"
         style="fill:#000000" />
      <path
         inkscape:connector-curvature="0"
         d="m -1321.11,-1236.1251 c -235.4661,2.243 -420.9509,26.8701 -420.9509,56.92 0,31.5292 204.1738,57.0884 456.0389,57.0884 251.8625,0 456.03899,-25.5592 456.03899,-57.0884 0,-30.0499 -185.48479,-54.6773 -420.95089,-56.92 234.8186,2.2556 420.31915,26.9596 420.31915,56.92 0,31.4397 -204.24225,55.8065 -455.40725,55.8065 -251.1543,0 -455.4071,-24.3655 -455.4071,-55.8065 0,-29.963 185.4926,-54.6668 420.3191,-56.92 z"
         id="path304"
         style="fill:#000000" />
      <path
         inkscape:connector-curvature="0"
         d="m -829.05646,-1236.0696 c 0,0.3542 -204.18014,0.6413 -456.03874,0.6413 -251.8674,0 -456.0476,-0.2871 -456.0476,-0.6413 0,-0.3542 204.1802,-0.6413 456.0476,-0.6413 251.8586,0 456.03874,0.2871 456.03874,0.6413 z"
         id="path306"
         style="fill:#000000" />
      <path
         inkscape:connector-curvature="0"
         d="m -1321.11,-1236.6515 c -235.4661,-8.9581 -420.9509,-107.3225 -420.9509,-227.3509 0,-125.9299 204.1738,-228.0194 456.0389,-228.0194 251.8625,0 456.03899,102.0869 456.03899,228.0194 0,120.0284 -185.48479,218.3933 -420.95089,227.3509 234.8186,-9.0092 420.31915,-107.6752 420.31915,-227.3509 0,-125.5772 -204.24225,-226.0953 -455.40725,-226.0953 -251.1543,0 -455.4071,100.5181 -455.4071,226.0953 0,119.6757 185.4926,218.3407 420.3191,227.3509 z"
         id="path308"
         style="fill:#000000" />
      <path
         inkscape:connector-curvature="0"
         d="m -1321.11,-1236.1251 c -235.4661,-4.4856 -420.9509,-53.7402 -420.9509,-113.8425 0,-63.0585 204.1738,-114.1769 456.0389,-114.1769 251.8625,0 456.03899,51.1184 456.03899,114.1769 0,60.1023 -185.48479,109.3572 -420.95089,113.8425 234.8186,-4.5111 420.31915,-53.9165 420.31915,-113.8425 0,-62.8795 -204.24225,-112.895 -455.40725,-112.895 -251.1543,0 -455.4071,50.0129 -455.4071,112.895 0,59.926 185.4926,109.3308 420.3191,113.8425 z"
         id="path310"
         style="fill:#000000" />
      <path
         inkscape:connector-curvature="0"
         d="m -1321.11,-1236.6515 c -235.4661,-6.7152 -420.9509,-80.4524 -420.9509,-170.4283 0,-94.4033 204.1738,-170.931 456.0389,-170.931 251.8625,0 456.03899,76.5277 456.03899,170.931 0,89.9759 -185.48479,163.7134 -420.95089,170.4283 234.8186,-6.7536 420.31915,-80.7156 420.31915,-170.4283 0,-94.1375 -204.24225,-169.6465 -455.40725,-169.6465 -251.1543,0 -455.4071,75.5117 -455.4071,169.6465 0,89.7127 185.4926,163.6765 420.3191,170.4283 z"
         id="path312"
         style="fill:#000000" />
      <path
         inkscape:connector-curvature="0"
         d="m -1321.11,-1236.1251 c -235.4661,-2.2427 -420.9509,-26.8701 -420.9509,-56.9199 0,-31.5292 204.1738,-57.0885 456.0389,-57.0885 251.8625,0 456.03899,25.5593 456.03899,57.0885 0,30.0498 -185.48479,54.6772 -420.95089,56.9199 234.8186,-2.2556 420.31915,-26.9596 420.31915,-56.9199 0,-31.4397 -204.24225,-55.8066 -455.40725,-55.8066 -251.1543,0 -455.4071,24.3655 -455.4071,55.8066 0,29.963 185.4926,54.6667 420.3191,56.9199 z"
         id="path314"
         style="fill:#000000" />
      <path
         inkscape:connector-curvature="0"
         d="m -1286.8906,-1271.1341 c -8.9581,-235.4661 -107.3225,-420.9509 -227.3509,-420.9509 -125.9325,0 -228.0194,204.1738 -228.0194,456.0389 0,251.86243 102.0869,456.03888 228.0194,456.03888 120.0284,0 218.3933,-185.48478 227.3509,-420.95088 -9.0092,234.81857 -107.6752,420.31914 -227.3509,420.31914 -125.5772,0 -226.0952,-204.24226 -226.0952,-455.40714 0,-251.1544 100.518,-455.4072 226.0952,-455.4072 119.6757,0 218.3407,185.4927 227.3509,420.3192 z"
         id="path316"
         style="fill:#000000" />
      <path
         inkscape:connector-curvature="0"
         d="m -1286.1009,-1271.1341 c -4.4857,-235.4661 -53.7402,-420.9509 -113.8426,-420.9509 -63.0584,0 -114.1769,204.1738 -114.1769,456.0389 0,251.86243 51.1185,456.03888 114.1769,456.03888 60.1024,0 109.3572,-185.48478 113.8426,-420.95088 -4.5112,234.81857 -53.9166,420.31914 -113.8426,420.31914 -62.8794,0 -112.895,-204.24226 -112.895,-455.40714 0,-251.1544 50.0129,-455.4072 112.895,-455.4072 59.926,0 109.3309,185.4927 113.8426,420.3192 z"
         id="path318"
         style="fill:#000000" />
      <path
         inkscape:connector-curvature="0"
         d="m -1286.8906,-1271.1341 c -6.7154,-235.4661 -80.4524,-420.9509 -170.4283,-420.9509 -94.4033,0 -170.931,204.1738 -170.931,456.0389 0,251.86243 76.5277,456.03888 170.931,456.03888 89.9759,0 163.7134,-185.48478 170.4283,-420.95088 -6.7536,234.81857 -80.7156,420.31914 -170.4283,420.31914 -94.1375,0 -169.6464,-204.24226 -169.6464,-455.40714 0,-251.1544 75.5116,-455.4072 169.6464,-455.4072 89.7127,0 163.6765,185.4927 170.4283,420.3192 z"
         id="path320"
         style="fill:#000000" />
      <path
         inkscape:connector-curvature="0"
         d="m -1286.1009,-1271.1341 c -2.243,-235.4661 -26.8701,-420.9509 -56.92,-420.9509 -31.5292,0 -57.0884,204.1738 -57.0884,456.0389 0,251.86243 25.5595,456.03888 57.0884,456.03888 30.0499,0 54.6773,-185.48478 56.92,-420.95088 -2.2556,234.81857 -26.9596,420.31914 -56.92,420.31914 -31.4397,0 -55.8065,-204.24226 -55.8065,-455.40714 0,-251.1544 24.3655,-455.4072 55.8065,-455.4072 29.963,0 54.6668,185.4927 56.92,420.3192 z"
         id="path322"
         style="fill:#000000" />
      <path
         inkscape:connector-curvature="0"
         d="m -1286.1038,-780.13356 c -0.3542,0 -0.6413,-204.18016 -0.6413,-456.03864 0,-251.8674 0.2871,-456.0476 0.6413,-456.0476 0.3542,0 0.6413,204.1802 0.6413,456.0476 0,251.85848 -0.2871,456.03864 -0.6413,456.03864 z"
         id="path324"
         style="fill:#000000" />
      <path
         inkscape:connector-curvature="0"
         d="m -1285.3113,-1271.1341 c 8.9582,-235.4661 107.3226,-420.9509 227.3509,-420.9509 125.9326,0 228.01951,204.1738 228.01951,456.0389 0,251.86243 -102.08691,456.03888 -228.01951,456.03888 -120.0283,0 -218.3933,-185.48478 -227.3509,-420.95088 9.009,234.81857 107.6753,420.31914 227.3509,420.31914 125.57724,0 226.09532,-204.24226 226.09532,-455.40714 0,-251.1544 -100.51808,-455.4072 -226.09532,-455.4072 -119.6756,0 -218.3406,185.4927 -227.3509,420.3192 z"
         id="path326"
         style="fill:#000000" />
      <path
         inkscape:connector-curvature="0"
         d="m -1286.1009,-1271.1341 c 4.4856,-235.4661 53.7402,-420.9509 113.8426,-420.9509 63.0584,0 114.1769,204.1738 114.1769,456.0389 0,251.86243 -51.1185,456.03888 -114.1769,456.03888 -60.1024,0 -109.3573,-185.48478 -113.8426,-420.95088 4.5111,234.81857 53.9166,420.31914 113.8426,420.31914 62.8794,0 112.8949,-204.24226 112.8949,-455.40714 0,-251.1544 -50.0129,-455.4072 -112.8949,-455.4072 -59.926,0 -109.3309,185.4927 -113.8426,420.3192 z"
         id="path328"
         style="fill:#000000" />
      <path
         inkscape:connector-curvature="0"
         d="m -1285.3113,-1271.1341 c 6.7152,-235.4661 80.4525,-420.9509 170.4283,-420.9509 94.4034,0 170.93106,204.1738 170.93106,456.0389 0,251.86243 -76.52766,456.03888 -170.93106,456.03888 -89.9758,0 -163.7134,-185.48478 -170.4283,-420.95088 6.7534,234.81857 80.7157,420.31914 170.4283,420.31914 94.1375,0 169.64915,-204.24226 169.64915,-455.40714 0,-251.1544 -75.51165,-455.4072 -169.64915,-455.4072 -89.7126,0 -163.6765,185.4927 -170.4283,420.3192 z"
         id="path330"
         style="fill:#000000" />
      <path
         inkscape:connector-curvature="0"
         d="m -1286.1009,-1271.1341 c 2.2427,-235.4661 26.8701,-420.9509 56.92,-420.9509 31.5292,0 57.0884,204.1738 57.0884,456.0389 0,251.86243 -25.5592,456.03888 -57.0884,456.03888 -30.0499,0 -54.6773,-185.48478 -56.92,-420.95088 2.2556,234.81857 26.9596,420.31914 56.92,420.31914 31.4397,0 55.8065,-204.24226 55.8065,-455.40714 0,-251.1544 -24.3652,-455.4072 -55.8065,-455.4072 -29.9631,0 -54.6668,185.4927 -56.92,420.3192 z"
         id="path332"
         style="fill:#000000" />
      <path
         inkscape:connector-curvature="0"
         d="m -1286.8906,-1276.1354 c -8.9563,-269.0959 -107.3014,-481.098 -227.3035,-481.098 -125.9062,0 -227.9721,233.3419 -227.9721,521.1873 0,287.83752 102.0659,521.1873 227.9721,521.1873 120.0047,0 218.3459,-211.98373 227.3035,-481.098 -9.0073,268.35881 -107.6541,480.36097 -227.3035,480.36097 -125.5509,0 -226.5059,-233.41822 -226.5059,-520.45027 0,-287.0321 100.955,-520.4503 226.5059,-520.4503 119.652,0 218.2959,211.9943 227.3035,480.361 z"
         id="path334"
         style="fill:#000000" />
      <path
         inkscape:connector-curvature="0"
         d="m -1286.8906,-1276.1354 c -6.3932,-269.0959 -76.5909,-481.098 -162.2498,-481.098 -89.8706,0 -162.7263,233.3419 -162.7263,521.1873 0,287.83752 72.8557,521.1873 162.7263,521.1873 85.6589,0 155.856,-211.98373 162.2498,-481.098 -6.4296,268.35881 -76.8436,480.36097 -162.2498,480.36097 -89.6179,0 -161.2628,-233.41822 -161.2628,-520.45027 0,-287.0321 71.6422,-520.4503 161.2628,-520.4503 85.4062,0 155.8218,211.9943 162.2498,480.361 z"
         id="path336"
         style="fill:#000000" />
      <path
         inkscape:connector-curvature="0"
         d="m -1286.8906,-1276.1354 c -3.8299,-269.0959 -45.8829,-481.098 -97.1988,-481.098 -53.8376,0 -97.4831,233.3419 -97.4831,521.1873 0,287.83752 43.6455,521.1873 97.4831,521.1873 51.3159,0 93.3689,-211.98373 97.1988,-481.098 -3.8518,268.35881 -46.033,480.36097 -97.1988,480.36097 -53.6876,0 -96.0169,-233.41822 -96.0169,-520.45027 0,-287.0321 42.3293,-520.4503 96.0169,-520.4503 51.1632,0 93.3452,211.9943 97.1988,480.361 z"
         id="path338"
         style="fill:#000000" />
      <path
         inkscape:connector-curvature="0"
         d="m -1286.8906,-1276.1354 c -1.2667,-269.0959 -15.1745,-481.098 -32.1452,-481.098 -17.8054,0 -32.2399,233.3419 -32.2399,521.1873 0,287.83752 14.434,521.1873 32.2399,521.1873 16.971,0 30.8791,-211.98373 32.1452,-481.098 -1.274,268.35881 -15.2245,480.36097 -32.1452,480.36097 -17.7551,0 -30.7737,-233.41822 -30.7737,-520.45027 0,-287.0321 13.0186,-520.4503 30.7737,-520.4503 16.921,0 30.8712,211.9943 32.1452,480.361 z"
         id="path340"
         style="fill:#000000" />
      <path
         inkscape:connector-curvature="0"
         d="m -1285.3113,-1276.1354 c 8.9563,-269.0959 107.2989,-481.098 227.3036,-481.098 125.90619,0 227.97204,233.3419 227.97204,521.1873 0,287.83752 -102.06585,521.1873 -227.97204,521.1873 -120.0021,0 -218.346,-211.98373 -227.3036,-481.098 9.0071,268.35881 107.6516,480.36097 227.3036,480.36097 125.55084,0 226.50588,-233.41822 226.50588,-520.45027 0,-287.0321 -100.95504,-520.4503 -226.50588,-520.4503 -119.652,0 -218.296,211.9943 -227.3036,480.361 z"
         id="path342"
         style="fill:#000000" />
      <path
         inkscape:connector-curvature="0"
         d="m -1285.3113,-1276.1354 c 6.393,-269.0959 76.5909,-481.098 162.2499,-481.098 89.8706,0 162.72628,233.3419 162.72628,521.1873 0,287.83752 -72.85568,521.1873 -162.72628,521.1873 -85.659,0 -155.8561,-211.98373 -162.2499,-481.098 6.4293,268.35881 76.8436,480.36097 162.2499,480.36097 89.6179,0 161.26274,-233.41822 161.26274,-520.45027 0,-287.0321 -71.64224,-520.4503 -161.26274,-520.4503 -85.4063,0 -155.8219,211.9943 -162.2499,480.361 z"
         id="path344"
         style="fill:#000000" />
      <path
         inkscape:connector-curvature="0"
         d="m -1285.3113,-1276.1354 c 3.8297,-269.0959 45.883,-481.098 97.1989,-481.098 53.8376,0 97.4831,233.3419 97.4831,521.1873 0,287.83752 -43.6455,521.1873 -97.4831,521.1873 -51.3159,0 -93.3689,-211.98373 -97.1989,-481.098 3.8516,268.35881 46.033,480.36097 97.1989,480.36097 53.6875,0 96.0169,-233.41822 96.0169,-520.45027 0,-287.0321 -42.3294,-520.4503 -96.0169,-520.4503 -51.1632,0 -93.3452,211.9943 -97.1989,480.361 z"
         id="path346"
         style="fill:#000000" />
      <path
         inkscape:connector-curvature="0"
         d="m -1285.3113,-1276.1354 c 1.2664,-269.0959 15.1742,-481.098 32.1452,-481.098 17.8054,0 32.2399,233.3419 32.2399,521.1873 0,287.83752 -14.4342,521.1873 -32.2399,521.1873 -16.971,0 -30.879,-211.98373 -32.1452,-481.098 1.2738,268.35881 15.2242,480.36097 32.1452,480.36097 17.7554,0 30.7738,-233.41822 30.7738,-520.45027 0,-287.0321 -13.0184,-520.4503 -30.7738,-520.4503 -16.921,0 -30.8711,211.9943 -32.1452,480.361 z"
         id="path348"
         style="fill:#000000" />
      <path
         inkscape:connector-curvature="0"
         d="m -1246.0906,-1236.9147 c 269.09591,-8.9563 481.09807,-107.3015 481.09807,-227.3035 0,-125.9063 -233.34189,-227.9721 -521.18737,-227.9721 -287.8375,0 -521.1873,102.0658 -521.1873,227.9721 0,120.002 211.9837,218.3459 481.098,227.3035 -268.3588,-9.0074 -480.361,-107.6516 -480.361,-227.3035 0,-125.5509 233.4182,-226.5059 520.4503,-226.5059 287.02159,0 520.45034,100.955 520.45034,226.5059 0,119.6519 -211.99163,218.2959 -480.36104,227.3035 z"
         id="path350"
         style="fill:#000000" />
      <path
         inkscape:connector-curvature="0"
         d="m -1246.0906,-1236.9147 c 269.09591,-6.393 481.09807,-76.5909 481.09807,-162.2499 0,-89.8706 -233.34189,-162.7262 -521.18737,-162.7262 -287.8375,0 -521.1873,72.8556 -521.1873,162.7262 0,85.659 211.9837,155.8587 481.098,162.2499 -268.3588,-6.4293 -480.361,-76.8436 -480.361,-162.2499 0,-89.6179 233.4182,-161.2627 520.4503,-161.2627 287.02159,0 520.45034,71.6422 520.45034,161.2627 0,85.4063 -211.99163,155.8219 -480.36104,162.2499 z"
         id="path352"
         style="fill:#000000" />
      <path
         inkscape:connector-curvature="0"
         d="m -1246.0906,-1236.9147 c 269.09591,-3.8297 481.09807,-45.883 481.09807,-97.1989 0,-53.8375 -233.34189,-97.483 -521.18737,-97.483 -287.8375,0 -521.1873,43.6455 -521.1873,97.483 0,51.3159 211.9837,93.3689 481.098,97.1989 -268.3588,-3.8516 -480.361,-46.033 -480.361,-97.1989 0,-53.6875 233.4182,-96.0169 520.4503,-96.0169 287.02159,0 520.45034,42.3294 520.45034,96.0169 0,51.1633 -211.99163,93.3452 -480.36104,97.1989 z"
         id="path354"
         style="fill:#000000" />
      <path
         inkscape:connector-curvature="0"
         d="m -1246.0906,-1236.9147 c 269.09591,-1.2667 481.09807,-15.1742 481.09807,-32.1452 0,-17.8054 -233.34189,-32.2399 -521.18737,-32.2399 -287.8375,0 -521.1873,14.4343 -521.1873,32.2399 0,16.971 211.9837,30.879 481.098,32.1452 -268.3588,-1.2738 -480.361,-15.2242 -480.361,-32.1452 0,-17.7554 233.4182,-30.7737 520.4503,-30.7737 287.02159,0 520.45034,13.0183 520.45034,30.7737 0,16.921 -211.99163,30.8711 -480.36104,32.1452 z"
         id="path356"
         style="fill:#000000" />
      <path
         inkscape:connector-curvature="0"
         d="m -1246.0906,-1235.3354 c 269.09591,8.9563 481.09807,107.3014 481.09807,227.3035 0,125.90619 -233.34189,227.97204 -521.18737,227.97204 -287.8375,0 -521.1873,-102.06585 -521.1873,-227.97204 0,-120.0047 211.9837,-218.3459 481.098,-227.3035 -268.3588,9.0073 -480.361,107.6541 -480.361,227.3035 0,125.55083 233.4182,226.50587 520.4503,226.50587 287.02159,0 520.45034,-100.95504 520.45034,-226.50587 0,-119.652 -211.99163,-218.2959 -480.36104,-227.3035 z"
         id="path358"
         style="fill:#000000" />
      <path
         inkscape:connector-curvature="0"
         d="m -1246.0906,-1235.3354 c 269.09591,6.3932 481.09807,76.5909 481.09807,162.2498 0,89.8706 -233.34189,162.72627 -521.18737,162.72627 -287.8375,0 -521.1873,-72.85567 -521.1873,-162.72627 0,-85.6589 211.9837,-155.856 481.098,-162.2498 -268.3588,6.4296 -480.361,76.8436 -480.361,162.2498 0,89.61791 233.4182,161.26274 520.4503,161.26274 287.02159,0 520.45034,-71.6422 520.45034,-161.26274 0,-85.4062 -211.99163,-155.8218 -480.36104,-162.2498 z"
         id="path360"
         style="fill:#000000" />
      <path
         inkscape:connector-curvature="0"
         d="m -1246.0906,-1235.3354 c 269.09591,3.8299 481.09807,45.8829 481.09807,97.1988 0,53.8376 -233.34189,97.4831 -521.18737,97.4831 -287.8375,0 -521.1873,-43.6455 -521.1873,-97.4831 0,-51.3159 211.9837,-93.3689 481.098,-97.1988 -268.3588,3.8518 -480.361,46.033 -480.361,97.1988 0,53.6876 233.4182,96.0169 520.4503,96.0169 287.02159,0 520.45034,-42.3293 520.45034,-96.0169 0,-51.1632 -211.99163,-93.3452 -480.36104,-97.1988 z"
         id="path362"
         style="fill:#000000" />
      <path
         inkscape:connector-curvature="0"
         d="m -1246.0906,-1235.3354 c 269.09591,1.2667 481.09807,15.1745 481.09807,32.1452 0,17.8056 -233.34189,32.2399 -521.18737,32.2399 -287.8375,0 -521.1873,-14.434 -521.1873,-32.2399 0,-16.9707 211.9837,-30.8791 481.098,-32.1452 -268.3588,1.274 -480.361,15.2242 -480.361,32.1452 0,17.7553 233.4182,30.7737 520.4503,30.7737 287.02159,0 520.45034,-13.0184 520.45034,-30.7737 0,-16.921 -211.99163,-30.8712 -480.36104,-32.1452 z"
         id="path364"
         style="fill:#000000" />
    </g>
  </g>
</svg>
