<?xml version="1.0" encoding="UTF-8" standalone="no"?>
<!-- Created with Inkscape (http://www.inkscape.org/) -->

<svg
   xmlns:dc="http://purl.org/dc/elements/1.1/"
   xmlns:cc="http://creativecommons.org/ns#"
   xmlns:rdf="http://www.w3.org/1999/02/22-rdf-syntax-ns#"
   xmlns:svg="http://www.w3.org/2000/svg"
   xmlns="http://www.w3.org/2000/svg"
   xmlns:sodipodi="http://sodipodi.sourceforge.net/DTD/sodipodi-0.dtd"
   xmlns:inkscape="http://www.inkscape.org/namespaces/inkscape"
   id="svg2"
   version="1.1"
   inkscape:version="0.91 r13725"
   xml:space="preserve"
   width="3543.3125"
   height="3543.3125"
   viewBox="0 0 3543.3125 3543.3125"
   sodipodi:docname="spirograph-1991340.svg"><metadata
     id="metadata8"><rdf:RDF><cc:Work
         rdf:about=""><dc:format>image/svg+xml</dc:format><dc:type
           rdf:resource="http://purl.org/dc/dcmitype/StillImage" /><dc:title></dc:title></cc:Work></rdf:RDF></metadata><defs
     id="defs6"><clipPath
       clipPathUnits="userSpaceOnUse"
       id="clipPath16"><path
         d="m 0,2834.65 2834.65,0 L 2834.65,0 0,0 0,2834.65 Z"
         id="path18"
         inkscape:connector-curvature="0" /></clipPath></defs><sodipodi:namedview
     pagecolor="#ffffff"
     bordercolor="#666666"
     borderopacity="1"
     objecttolerance="10"
     gridtolerance="10"
     guidetolerance="10"
     inkscape:pageopacity="0"
     inkscape:pageshadow="2"
     inkscape:window-width="1920"
     inkscape:window-height="1140"
     id="namedview4"
     showgrid="false"
     inkscape:zoom="0.066604343"
     inkscape:cx="1771.6562"
     inkscape:cy="1771.6562"
     inkscape:window-x="1920"
     inkscape:window-y="27"
     inkscape:window-maximized="1"
     inkscape:current-layer="g10" /><g
     id="g10"
     inkscape:groupmode="layer"
     inkscape:label="spirograph-1991340"
     transform="matrix(1.25,0,0,-1.25,0,3543.3125)"><g
       id="g12"><g
         id="g14"
         clip-path="url(#clipPath16)"><g
           id="g20"
           transform="translate(1420.2344,1921.9995)"><path
             d="M 0,0 C 245.041,0 711.783,769.888 481.532,853.686 251.264,937.501 113.937,47.694 301.682,-109.791 489.357,-267.285 1341.795,22.451 1219.258,234.655 1096.736,446.868 450.265,-143.058 462.175,-387.806 c 11.911,-244.774 881.774,-567.277 924.315,-326.028 42.559,241.351 -857.573,222.106 -980.077,9.894 -122.503,-212.257 310.835,-1001.364 498.597,-843.853 187.676,157.442 -514.247,721.297 -744.499,637.491 -230.269,-83.84 -405.552,-966.925 -160.511,-966.925 245.041,0 69.725,883.085 -160.528,966.925 -230.251,83.806 -932.158,-480.049 -744.447,-637.491 187.693,-157.511 621.065,631.596 498.527,843.853 -122.486,212.212 -1022.6,231.457 -980.058,-9.894 42.54,-241.249 912.438,81.254 924.349,326.028 11.91,244.748 -634.562,834.674 -757.116,622.461 -122.504,-212.204 729.933,-501.94 917.609,-344.446 187.728,157.485 50.401,1047.292 -179.868,963.477 C -711.783,769.888 -245.041,0 0,0 Z"
             style="fill:none;stroke:#006838;stroke-width:3;stroke-linecap:butt;stroke-linejoin:miter;stroke-miterlimit:10;stroke-dasharray:none;stroke-opacity:1"
             id="path22"
             inkscape:connector-curvature="0" /></g><g
           id="g24"
           transform="translate(1377.6382,1894.1753)"><path
             d="M 0,0 C 231.903,20.289 609.876,787.544 385.032,847.786 160.169,908.041 103.878,54.571 294.598,-78.926 485.25,-212.437 1267.996,132.345 1134.458,323.026 1000.935,513.717 437.969,-98.107 469.504,-328.747 c 31.539,-230.664 881.468,-463.853 901.753,-232.016 20.294,231.934 -829.984,139.192 -928.349,-71.784 -98.36,-211.021 377.081,-921.941 541.734,-757.328 164.577,164.54 -546.397,640.045 -757.366,541.668 -210.981,-98.411 -303.748,-948.662 -71.846,-928.373 231.904,20.288 -7.131,841.512 -231.98,901.792 -224.845,60.249 -842.433,-531.491 -651.75,-664.951 190.671,-133.524 535.471,649.156 401.929,839.888 -133.49,190.692 -986.938,134.378 -926.693,-90.511 60.233,-224.793 856.789,152.446 847.795,385.082 -8.993,232.613 -669.649,737.383 -768.062,526.401 -98.366,-210.97 732.358,-414.592 896.932,-250.003 164.623,164.586 -39.016,995.315 -249.999,896.928 C -737.366,669.676 -231.903,-20.289 0,0 Z"
             style="fill:none;stroke:#006838;stroke-width:3;stroke-linecap:butt;stroke-linejoin:miter;stroke-miterlimit:10;stroke-dasharray:none;stroke-opacity:1"
             id="path26"
             inkscape:connector-curvature="0" /></g><g
           id="g28"
           transform="translate(1341.9424,1864.0313)"><path
             d="M 0,0 C 217.789,38.402 511.971,795.817 294.194,834.211 76.398,872.618 93.79,60.246 285.339,-50.302 476.823,-160.869 1189.054,230.237 1046.888,399.638 904.735,569.049 422.611,-56.584 471.552,-272.247 c 48.946,-215.686 872.614,-366 872.615,-144.914 0,221.18 -797.009,63.009 -872.632,-144.801 -75.614,-207.851 433.199,-841.289 575.395,-671.869 142.13,169.346 -570.098,560.489 -761.61,449.919 -191.52,-110.604 -208.915,-922.949 8.874,-884.547 217.791,38.401 -76.424,795.804 -294.209,834.235 -217.778,38.402 -753.259,-572.747 -561.75,-683.263 191.503,-110.578 453.013,658.687 310.839,828.135 -142.122,169.416 -945.15,45.457 -869.515,-162.385 75.617,-207.754 798.231,215.213 770.457,434.631 -27.77,219.396 -694.8,642.402 -770.467,434.584 -75.625,-207.804 727.42,-331.727 869.542,-162.335 C -108.74,24.535 -370.243,793.863 -561.768,683.282 -753.279,572.719 -217.79,-38.402 0,0 Z"
             style="fill:none;stroke:#006838;stroke-width:3;stroke-linecap:butt;stroke-linejoin:miter;stroke-miterlimit:10;stroke-dasharray:none;stroke-opacity:1"
             id="path30"
             inkscape:connector-curvature="0" /></g><g
           id="g32"
           transform="translate(1312.8164,1832.0776)"><path
             d="M 0,0 C 202.933,54.375 418.629,795.54 209.35,813.844 0.051,832.159 83.773,64.782 274.205,-23.98 464.577,-112.764 1106.239,316.344 957.669,464.891 809.111,613.45 404.638,-18.559 468.811,-218.607 c 64.179,-200.068 856.132,-274.126 837.829,-64.893 -18.312,209.321 -759.494,-6.36 -813.858,-209.291 -54.349,-202.966 479.631,-760.315 600.175,-588.205 120.487,172.036 -585.939,483.236 -758.028,362.738 -172.094,-120.532 -121.296,-890.764 81.636,-836.387 202.935,54.374 -138.217,746.808 -347.507,765.147 -209.283,18.311 -665.452,-604.408 -475.059,-693.142 190.391,-88.794 374.186,660.881 225.605,809.473 -148.53,148.565 -898.239,-35.238 -809.451,-225.674 88.764,-190.355 737.615,269.765 693.163,475.12 -44.447,205.334 -710.738,550.432 -765.142,347.49 -54.364,-202.923 715.886,-253.711 836.363,-81.634 120.522,172.081 -190.66,878.51 -362.76,758 C -760.313,479.643 -202.933,-54.376 0,0 Z"
             style="fill:none;stroke:#006838;stroke-width:3;stroke-linecap:butt;stroke-linejoin:miter;stroke-miterlimit:10;stroke-dasharray:none;stroke-opacity:1"
             id="path34"
             inkscape:connector-curvature="0" /></g><g
           id="g36"
           transform="translate(1288.0933,1801.584)"><path
             d="M 0,0 C 187.55,68.263 330.315,787.548 130.741,787.543 -68.853,787.547 73.918,68.245 261.49,0.009 449.005,-68.252 1020.735,390.978 867.832,519.259 714.938,647.552 384.479,15.939 461.775,-168.07 c 77.305,-184.028 832.929,-188.542 798.282,7.957 -34.661,196.582 -718.247,-68.904 -752.893,-265.455 -34.631,-196.585 516.868,-679.839 616.698,-506.975 99.783,172.787 -594.534,408.812 -747.421,280.525 -152.887,-128.318 -41.038,-853.047 146.512,-784.784 187.551,68.262 -192.642,695.323 -392.229,695.352 -199.578,0 -579.729,-627.102 -392.198,-695.314 187.536,-68.269 299.405,656.429 146.487,784.752 -152.867,128.302 -847.163,-107.72 -747.367,-280.595 99.766,-172.799 675.731,316.375 616.66,507.039 -59.066,190.645 -718.207,462.073 -752.89,265.507 -34.648,-196.545 698.51,-180.835 798.28,-8.008 C -100.492,4.765 -453.48,647.553 -606.375,519.255 -759.262,390.975 -187.551,-68.263 0,0 Z"
             style="fill:none;stroke:#006838;stroke-width:3;stroke-linecap:butt;stroke-linejoin:miter;stroke-miterlimit:10;stroke-dasharray:none;stroke-opacity:1"
             id="path38"
             inkscape:connector-curvature="0" /></g><g
           id="g40"
           transform="translate(1267.5835,1772.6992)"><path
             d="M 0,0 C 171.843,80.131 247.398,772.673 58.524,756.144 -130.369,739.621 64.305,70.706 247.469,21.659 430.583,-27.417 933.636,454.53 778.309,563.273 622.991,672.029 362.545,46.918 450.933,-120.825 c 88.397,-167.76 803.882,-109.469 754.823,73.626 -49.08,183.172 -674.033,-124.678 -690.548,-313.561 -16.498,-188.913 545.446,-600.594 625.611,-428.732 80.126,171.786 -596.508,337.668 -730.575,203.6 -134.066,-134.096 31.793,-810.71 203.634,-730.576 171.845,80.13 -239.883,642.093 -428.772,625.594 -188.877,-16.524 -496.725,-641.48 -313.6,-690.508 183.133,-49.081 229.001,646.026 73.657,754.807 -155.294,108.765 -792.823,-172.088 -684.064,-327.432 108.725,-155.274 613.307,355.361 541.616,530.913 -71.684,175.532 -717.959,377.833 -734.507,188.934 -16.517,-188.876 676.032,-113.304 756.143,58.516 80.15,171.832 -307.134,750.931 -441.209,616.852 C -750.926,307.147 -171.843,-80.132 0,0 Z"
             style="fill:none;stroke:#006838;stroke-width:3;stroke-linecap:butt;stroke-linejoin:miter;stroke-miterlimit:10;stroke-dasharray:none;stroke-opacity:1"
             id="path42"
             inkscape:connector-curvature="0" /></g><g
           id="g44"
           transform="translate(1248.5576,1743.915)"><path
             d="M 0,0 C 155.996,90.063 170.158,751.73 -7.22,720.449 -184.618,689.171 55.003,72.239 232.408,40.988 409.768,9.705 845.945,507.463 689.941,597.516 533.946,687.58 339.223,74.42 436.761,-77.011 c 97.547,-151.447 769.845,-37.04 708.257,132.176 -61.615,169.288 -627.572,-173.802 -627.562,-353.925 0.028,-180.15 565.929,-523.231 627.566,-353.947 61.607,169.211 -592.484,270.175 -708.262,132.195 -115.776,-138.008 97.213,-764.612 253.206,-674.546 155.997,90.062 -280.186,587.806 -457.582,556.551 -177.382,-31.276 -416.979,-648.215 -239.613,-679.451 177.378,-31.287 163.234,630.349 7.211,720.436 -155.973,90.076 -736.067,-228.506 -620.276,-366.516 115.751,-137.946 551,387.089 468.617,547.293 -82.373,160.185 -710.748,298.13 -710.769,117.988 0.008,-180.116 649.168,-51.254 710.758,117.987 61.625,169.255 -352.844,685.239 -468.628,547.248 C -736.096,228.503 -155.995,-90.064 0,0 Z"
             style="fill:none;stroke:#006838;stroke-width:3;stroke-linecap:butt;stroke-linejoin:miter;stroke-miterlimit:10;stroke-dasharray:none;stroke-opacity:1"
             id="path46"
             inkscape:connector-curvature="0" /></g><g
           id="g48"
           transform="translate(1231.0537,1715.4946)"><path
             d="M 0,0 C 140.175,98.15 98.793,725.515 -66.484,681.224 -231.782,636.936 46.073,72.92 216.554,58.033 386.995,43.112 758.573,550.297 603.477,622.605 448.389,694.925 314.874,98.518 419.721,-36.719 524.577,-171.97 1151.357,-8.032 1079.06,147.012 1006.732,302.123 499.526,-69.433 514.449,-239.897 c 14.943,-170.49 578.909,-448.321 623.226,-283.01 44.293,165.24 -583.089,206.633 -681.235,66.465 -98.141,-140.194 155.31,-715.568 295.482,-617.415 140.176,98.149 -313.833,533.092 -479.13,488.825 -165.282,-44.287 -340.952,-647.986 -170.509,-662.863 170.458,-14.922 102.29,610.068 -52.826,682.407 -155.069,72.333 -677.684,-277.199 -556.674,-398.222 120.967,-120.966 489.408,411.957 398.178,556.75 -91.22,144.777 -697.326,223.297 -682.431,52.812 14.921,-170.458 618.607,5.243 662.882,170.51 C -84.281,-18.354 -519.25,435.647 -617.401,295.468 -715.549,155.305 -140.174,-98.152 0,0 Z"
             style="fill:none;stroke:#006838;stroke-width:3;stroke-linecap:butt;stroke-linejoin:miter;stroke-miterlimit:10;stroke-dasharray:none;stroke-opacity:1"
             id="path50"
             inkscape:connector-curvature="0" /></g><g
           id="g52"
           transform="translate(1216.5571,1685.4072)"><path
             d="M 0,0 C 124.533,104.494 33.425,694.796 -119.324,639.195 -272.092,583.595 37.565,72.826 200.138,72.852 362.677,72.843 672.339,583.602 519.571,639.191 366.81,694.792 289.835,119.307 400.257,0.002 510.691,-119.315 1090.292,87.729 1009.033,228.474 927.742,369.279 478.494,-24.351 506.73,-184.44 c 28.258,-160.112 584.991,-376.352 613.243,-216.234 28.238,160.049 -568.934,147.276 -650.213,6.496 -81.27,-140.803 206.232,-664.343 330.761,-559.846 124.533,104.494 -341.146,478.525 -493.915,422.946 -152.754,-55.599 -269.02,-641.475 -106.484,-641.443 162.555,-0.01 46.295,585.83 -106.496,641.447 -152.744,55.615 -618.397,-318.448 -493.855,-422.963 124.497,-104.465 429.06,430.391 330.731,559.867 -98.316,129.462 -678.427,153.589 -650.214,-6.522 28.233,-160.084 585.006,56.181 613.223,216.253 28.247,160.09 -420.992,553.736 -502.274,412.946 C -690.044,87.732 -124.532,-104.496 0,0 Z"
             style="fill:none;stroke:#006838;stroke-width:3;stroke-linecap:butt;stroke-linejoin:miter;stroke-miterlimit:10;stroke-dasharray:none;stroke-opacity:1"
             id="path54"
             inkscape:connector-curvature="0" /></g><g
           id="g56"
           transform="translate(1204.9111,1654.106)"><path
             d="M 0,0 C 109.204,109.204 -25.895,660.313 -165.85,595.045 -305.824,529.777 29.521,72.032 183.376,85.517 337.201,98.967 587.971,607.981 438.79,647.941 289.616,687.913 264.418,136.908 378.797,33.143 493.189,-70.634 1024.572,173.3 936.016,299.771 847.426,426.296 454.855,16.573 494.833,-132.595 c 40,-149.188 584.788,-307.738 598.268,-153.865 13.472,153.806 -550.625,92.273 -615.89,-47.688 -65.255,-139.983 250.181,-611.65 359.382,-502.444 109.204,109.202 -362.478,424.623 -502.453,359.374 -139.961,-65.265 -201.484,-629.356 -47.665,-615.868 153.84,13.452 -4.693,558.253 -153.897,598.238 -149.159,39.986 -558.875,-352.576 -432.356,-441.176 126.471,-88.557 370.42,442.842 266.643,557.234 -103.764,114.38 -654.77,89.182 -614.813,-60.009 39.974,-149.163 548.989,101.606 562.439,255.432 13.478,153.846 -444.269,489.191 -509.535,349.219 C -660.311,25.894 -109.203,-109.204 0,0 Z"
             style="fill:none;stroke:#006838;stroke-width:3;stroke-linecap:butt;stroke-linejoin:miter;stroke-miterlimit:10;stroke-dasharray:none;stroke-opacity:1"
             id="path58"
             inkscape:connector-curvature="0" /></g><g
           id="g60"
           transform="translate(1197.9907,1623.3335)"><path
             d="M 0,0 C 94.307,112.391 -79.179,622.766 -206.227,549.41 -333.292,476.052 21.974,70.614 166.463,96.115 310.928,121.581 506.107,624.067 361.617,649.532 217.13,675.01 238.905,151.461 355.744,62.729 472.595,-26.012 955.292,248.841 861.01,361.198 766.695,473.605 429.096,53.345 479.281,-84.515 c 50.208,-137.877 578.915,-242.818 578.931,-96.08 0.016,146.675 -528.744,41.735 -578.92,-96.125 -50.167,-137.882 287.411,-558.143 381.714,-445.75 94.308,112.388 -378.201,371.844 -505.268,298.504 -127.053,-73.355 -138.572,-612.295 5.882,-586.795 144.479,25.469 -50.662,527.933 -195.178,553.421 -144.472,25.493 -499.719,-379.946 -372.647,-453.321 127.023,-73.336 313.893,449.77 206.209,549.436 -107.671,99.656 -627.048,30.186 -576.881,-107.696 50.182,-137.857 511.142,141.613 511.135,288.305 0.017,146.714 -460.953,426.179 -511.131,288.307 C -627.053,-30.167 -94.307,-112.391 0,0 Z"
             style="fill:none;stroke:#006838;stroke-width:3;stroke-linecap:butt;stroke-linejoin:miter;stroke-miterlimit:10;stroke-dasharray:none;stroke-opacity:1"
             id="path62"
             inkscape:connector-curvature="0" /></g><g
           id="g64"
           transform="translate(1195.3975,1593.3291)"><path
             d="M 0,0 C 79.944,114.173 -126.498,582.82 -240.66,502.878 -354.838,422.932 14.949,68.647 149.58,104.745 284.19,140.806 427.3,632.512 288.448,644.649 149.599,656.797 213.555,163.121 331.476,88.821 449.41,14.513 883.47,314.596 784.94,413.123 686.374,511.693 401.673,86.014 460.581,-40.3 519.514,-166.628 1028.563,-222.167 1016.429,-83.295 1004.3,55.518 512.578,-87.576 476.507,-222.199 440.446,-356.843 794.721,-726.62 874.662,-612.445 c 79.946,114.172 -388.712,320.593 -502.893,240.664 -114.168,-79.941 -80.446,-590.94 54.151,-554.847 134.625,36.065 -91.658,495.435 -230.535,507.589 -138.838,12.165 -441.468,-400.949 -315.134,-459.87 126.285,-58.886 259.824,451.645 149.661,537.052 -110.15,85.397 -595.929,-23.351 -537.035,-149.688 58.906,-126.309 472.013,176.343 459.86,315.17 C -59.395,-37.526 -518.789,188.788 -554.861,54.153 -590.936,-80.468 -79.945,-114.173 0,0 Z"
             style="fill:none;stroke:#006838;stroke-width:3;stroke-linecap:butt;stroke-linejoin:miter;stroke-miterlimit:10;stroke-dasharray:none;stroke-opacity:1"
             id="path66"
             inkscape:connector-curvature="0" /></g><g
           id="g68"
           transform="translate(1195.5356,1566.1499)"><path
             d="M 0,0 C 66.205,114.671 -167.972,541.098 -269.394,455.99 -370.832,370.876 8.463,66.204 132.888,111.514 257.295,156.787 352.02,633.979 219.607,633.969 87.197,633.969 188.6,172.057 306.349,111.504 424.113,50.945 810.054,370.878 708.65,455.964 607.208,541.089 373.015,114.66 439.224,-0.004 505.456,-114.68 991.811,-125.093 968.83,5.329 945.857,135.695 492.347,-40.44 469.357,-170.833 c -22.98,-130.41 342.917,-451.028 409.12,-336.356 66.206,114.67 -394.416,271.22 -495.857,186.122 -101.429,-85.106 -27.204,-565.916 97.187,-520.615 124.421,45.279 -127.765,461.283 -260.202,461.287 -132.401,0.017 -384.601,-416.005 -260.162,-461.307 124.39,-45.272 208.498,448.945 97.17,520.65 -111.314,71.699 -562.044,-71.441 -495.847,-186.128 66.205,-114.659 432.104,205.971 409.109,336.347 -22.978,130.4 -476.48,306.544 -499.471,176.142 C -552.59,-125.082 -66.205,-114.671 0,0 Z"
             style="fill:none;stroke:#006838;stroke-width:3;stroke-linecap:butt;stroke-linejoin:miter;stroke-miterlimit:10;stroke-dasharray:none;stroke-opacity:1"
             id="path70"
             inkscape:connector-curvature="0" /></g><g
           id="g72"
           transform="translate(1198.1343,1541.7817)"><path
             d="M 0,0 C 53.161,114.005 -203.768,498.179 -292.705,409.237 -381.657,320.288 2.528,63.355 116.53,116.538 230.519,169.685 280.655,629.135 155.342,618.162 30.031,607.199 164.242,178.448 280.693,130.891 397.156,83.329 735.916,418.064 632.903,490.192 529.851,562.354 343.523,139.397 415.676,36.363 487.851,-66.681 948.993,-36.266 916.445,85.261 883.911,206.735 469.298,2.494 458.337,-122.811 447.388,-248.132 820.212,-521.265 873.372,-407.26 926.534,-293.256 477.646,-183.238 388.689,-272.172 299.746,-361.115 409.801,-810 523.772,-756.829 637.773,-703.675 364.665,-330.856 239.327,-341.817 114.023,-352.764 -90.209,-767.362 31.309,-799.932 c 121.469,-32.546 160.148,442.138 48.852,500.781 -111.283,58.638 -525.995,-114.146 -453.852,-217.204 72.149,-103.03 391.883,230.705 359.326,352.188 C -46.908,-42.662 -490.68,86.489 -501.641,-38.825 -512.606,-164.128 -53.161,-114.004 0,0 Z"
             style="fill:none;stroke:#006838;stroke-width:3;stroke-linecap:butt;stroke-linejoin:miter;stroke-miterlimit:10;stroke-dasharray:none;stroke-opacity:1"
             id="path74"
             inkscape:connector-curvature="0" /></g><g
           id="g76"
           transform="translate(1201.2573,1519.1035)"><path
             d="M 0,0 C 40.872,112.294 -234.091,454.598 -310.895,363.06 -387.713,271.515 -2.853,60.168 100.634,119.938 204.11,179.673 213.516,618.642 95.832,597.881 -21.854,577.13 140.661,182.479 254.806,147.114 368.963,111.745 661.844,456.582 558.382,516.314 454.881,576.074 313.564,160.366 390.379,68.831 467.216,-22.713 901.116,44.253 860.25,156.569 819.403,268.836 443.931,41.217 443.932,-78.277 c 0.015,-119.508 375.465,-347.129 416.334,-234.834 40.872,112.293 -393.058,179.246 -469.882,87.714 -76.809,-91.539 64.513,-507.244 167.97,-447.487 103.487,59.742 -185.847,389.96 -303.557,369.21 -117.679,-20.736 -276.633,-430.014 -158.934,-450.777 117.652,-20.744 114.954,431.692 4.769,477.976 -110.172,46.28 -488.343,-151.578 -411.534,-243.137 76.812,-91.532 351.77,250.784 310.9,363.057 C -40.86,-44.258 -471.533,41.225 -471.53,-78.278 -471.533,-197.771 -40.871,-112.294 0,0 Z"
             style="fill:none;stroke:#006838;stroke-width:3;stroke-linecap:butt;stroke-linejoin:miter;stroke-miterlimit:10;stroke-dasharray:none;stroke-opacity:1"
             id="path78"
             inkscape:connector-curvature="0" /></g><g
           id="g80"
           transform="translate(1204.8179,1498.1665)"><path
             d="M 0,0 C 29.382,109.657 -259.18,410.842 -324.287,317.853 -389.407,224.855 -7.682,56.706 85.308,121.839 178.29,186.939 150.846,603.151 41.19,573.76 -68.467,544.377 118.011,184.342 228.963,160.323 339.929,136.303 588.555,486.901 485.695,534.864 382.794,582.85 283.474,177.73 363.75,97.462 444.046,17.189 849.138,116.491 801.164,219.401 753.211,322.267 416.717,75.763 426.612,-37.324 c 9.909,-113.099 384.075,-297.43 413.456,-187.772 29.383,109.656 -386.825,137.092 -451.951,44.105 -65.113,-92.989 103.052,-474.705 196.013,-409.586 92.994,65.108 -208.169,353.664 -317.85,324.282 -109.653,-29.369 -226.197,-429.866 -113.09,-439.769 113.061,-9.891 73.048,418.064 -35.062,452.744 -108.096,34.677 -449.61,-183.885 -369.338,-264.176 80.272,-80.263 312.145,266.464 264.17,369.334 -47.965,102.893 -462.625,148.134 -452.728,35.038 C -429.877,-226.21 -29.382,-109.658 0,0 Z"
             style="fill:none;stroke:#006838;stroke-width:3;stroke-linecap:butt;stroke-linejoin:miter;stroke-miterlimit:10;stroke-dasharray:none;stroke-opacity:1"
             id="path82"
             inkscape:connector-curvature="0" /></g><g
           id="g84"
           transform="translate(1209.7085,1477.4937)"><path
             d="M 0,0 C 18.728,106.21 -279.3,367.355 -333.217,273.96 -387.146,180.557 -11.964,53.029 70.646,122.37 153.253,191.679 92.819,583.303 -8.524,546.408 -109.87,509.521 96.421,184.229 203.414,170.685 310.418,157.14 516.686,509.527 415.369,546.402 314.013,583.295 253.561,191.672 336.179,122.354 418.816,53.033 793.967,180.552 740.043,273.973 686.146,367.353 388.103,106.205 406.83,0 c 18.742,-106.215 388.109,-249.683 406.836,-143.471 18.728,106.209 -377.437,97.712 -431.372,4.319 -53.921,-93.395 136.832,-440.722 219.417,-371.396 82.618,69.316 -226.291,317.465 -327.659,280.577 -101.342,-36.872 -178.477,-425.547 -70.614,-425.553 107.818,10e-4 34.517,401.697 -70.669,425.566 C 27.598,-206.09 -277.509,-441.21 -194.894,-510.55 -112.28,-579.864 78.453,-232.528 24.533,-139.146 -29.379,-45.74 -425.553,-37.258 -406.823,-143.47 -388.099,-249.675 -18.727,-106.211 0,0 Z"
             style="fill:none;stroke:#006838;stroke-width:3;stroke-linecap:butt;stroke-linejoin:miter;stroke-miterlimit:10;stroke-dasharray:none;stroke-opacity:1"
             id="path86"
             inkscape:connector-curvature="0" /></g><g
           id="g88"
           transform="translate(1215.7466,1457.2559)"><path
             d="M 0,0 C 8.93,102.067 -294.742,324.534 -338.035,231.682 -381.339,138.822 -15.713,49.196 56.727,121.659 129.166,194.091 39.546,559.714 -53.309,516.407 -146.166,473.106 75.998,182.335 178.375,178.376 280.765,174.417 446.796,524.99 347.858,551.499 248.881,578.021 224.096,202.39 308.025,143.629 391.97,84.867 736.45,236.61 677.682,320.558 618.943,404.469 358.501,132.645 385.017,33.685 411.549,-65.284 772.992,-170.477 781.92,-68.409 c 8.931,102.065 -365.291,61.222 -408.6,-31.629 -43.299,-92.853 165.986,-405.763 238.403,-333.316 72.448,72.44 -240.444,281.708 -333.323,238.404 -92.856,-43.286 -133.674,-417.51 -31.593,-408.584 102.038,8.928 -0.594,383.018 -102.116,396.899 -101.509,13.879 -370.79,-233.897 -286.862,-292.678 83.922,-58.758 235.671,285.748 176.91,369.659 -58.756,83.933 -434.391,59.158 -407.871,-39.809 C -346.618,-268.423 -8.929,-102.067 0,0 Z"
             style="fill:none;stroke:#006838;stroke-width:3;stroke-linecap:butt;stroke-linejoin:miter;stroke-miterlimit:10;stroke-dasharray:none;stroke-opacity:1"
             id="path90"
             inkscape:connector-curvature="0" /></g><g
           id="g92"
           transform="translate(1224.1162,1438.4829)"><path
             d="m 0,0 c 0,97.333 -305.81,282.729 -339.094,191.272 -33.294,-91.467 320.15,-146.015 382.706,-71.439 62.558,74.546 -52.53,413.146 -136.82,364.473 -84.293,-48.668 150.034,-305.454 247.25,-300.724 97.229,4.731 225.331,350.254 129.503,367.15 -95.867,16.905 -88.222,-340.639 -3.928,-389.299 84.311,-48.662 397.756,123.468 335.19,198.049 C 552.269,434.03 328.298,155.216 361.585,63.757 394.89,-27.708 745.662,-97.334 745.661,0 c 0.001,97.333 -350.774,27.694 -384.074,-63.764 -33.289,-91.46 190.684,-370.265 253.22,-295.707 62.566,74.555 -250.878,246.696 -335.192,198.023 -84.293,-48.652 -91.938,-406.192 3.931,-389.293 95.828,16.898 -32.275,362.434 -129.504,367.164 -97.216,4.731 -331.543,-252.056 -247.249,-300.738 84.289,-48.658 199.376,289.941 136.818,364.488 -62.554,74.569 -416,20.02 -382.706,-71.445 C -305.81,-282.731 0.001,-97.334 0,0 Z"
             style="fill:none;stroke:#006838;stroke-width:3;stroke-linecap:butt;stroke-linejoin:miter;stroke-miterlimit:10;stroke-dasharray:none;stroke-opacity:1"
             id="path94"
             inkscape:connector-curvature="0" /></g><g
           id="g96"
           transform="translate(1234.5034,1421.2075)"><path
             d="M 0,0 C -8.059,92.115 -312.824,242.25 -336.75,152.94 -360.686,63.621 -21.676,41.262 31.352,117.019 84.384,192.748 -52.569,503.666 -128.31,450.622 -204.055,397.584 38.971,173.967 130.583,186.493 c 91.624,12.528 184.25,350.133 92.16,358.188 -92.126,8.062 -55.287,-329.68 28.516,-368.752 C 335.079,136.857 617.466,325.71 552.08,391.113 486.721,456.486 297.845,174.076 336.919,90.277 376.012,6.473 713.743,-30.376 705.683,61.739 697.625,153.853 371.421,58.905 347.48,-30.407 c -23.931,-89.312 211.117,-334.625 264.128,-258.886 53.038,75.738 -257.854,212.697 -333.616,159.653 -75.746,-53.024 -53.377,-392.027 35.952,-368.096 89.291,23.926 -60.554,340.329 -152.961,336.756 -92.396,-3.573 -292.898,-265.994 -209.092,-305.086 83.797,-39.07 164.68,290.904 99.303,356.274 C -14.18,-44.4 -344.159,-125.29 -305.078,-209.093 -266.004,-292.893 8.06,-92.117 0,0 Z"
             style="fill:none;stroke:#006838;stroke-width:3;stroke-linecap:butt;stroke-linejoin:miter;stroke-miterlimit:10;stroke-dasharray:none;stroke-opacity:1"
             id="path98"
             inkscape:connector-curvature="0" /></g><g
           id="g100"
           transform="translate(1245.812,1406.6729)"><path
             d="M 0,0 C -15.254,86.509 -316.109,203.361 -331.359,116.858 -346.615,30.345 -23.93,37.255 19.982,113.34 63.9,189.401 -91.453,472.309 -158.741,415.837 -226.033,359.373 22.477,167.867 108.141,187.307 193.814,206.748 253.522,533.922 165.702,533.92 77.848,533.922 140.676,217.339 223.222,187.3 305.782,157.263 557.393,359.373 490.096,415.854 422.83,472.311 267.463,189.404 311.38,113.333 355.316,37.259 677.991,30.349 662.736,116.858 647.483,203.366 346.63,86.5 331.368,-0.006 316.115,-86.512 558.873,-299.21 602.77,-223.143 c 43.923,76.069 -261.64,179.944 -328.948,123.47 -67.296,-56.451 -18.057,-375.427 64.501,-345.383 82.523,30.036 -85.486,317.069 -172.642,306.035 C 78.535,-150.052 -89.49,-415.005 -6.941,-445.062 75.599,-475.099 124.824,-156.118 57.54,-99.666 -9.744,-43.193 -315.333,-147.067 -271.408,-223.143 -227.491,-299.214 15.255,-86.511 0,0 Z"
             style="fill:none;stroke:#006838;stroke-width:3;stroke-linecap:butt;stroke-linejoin:miter;stroke-miterlimit:10;stroke-dasharray:none;stroke-opacity:1"
             id="path102"
             inkscape:connector-curvature="0" /></g><g
           id="g104"
           transform="translate(1257.8394,1394.748)"><path
             d="M 0,0 C -21.599,80.607 -315.999,166.284 -323.269,83.156 -330.544,0.02 -25.731,33.275 9.526,108.917 44.792,184.537 -125.656,439.413 -184.661,380.398 -243.67,321.39 7.373,160.727 86.834,186.218 c 79.47,25.492 108.888,340.069 25.776,332.796 -83.144,-7.273 2.528,-301.681 83.136,-323.275 80.62,-21.59 302.007,190.516 233.641,238.398 C 361.053,481.997 237.441,201.395 285.302,133.038 333.18,64.68 639.127,84.857 617.528,165.465 595.93,246.073 320.883,110.562 313.602,27.431 c -7.273,-83.131 240.08,-264.326 275.326,-188.702 35.27,75.626 -262.511,148.632 -321.534,89.614 -59.015,-58.997 13.996,-356.793 89.64,-321.525 75.612,35.259 -107.156,292.991 -188.725,275.332 C 86.749,-135.504 -50.33,-400.165 30.281,-421.774 110.883,-443.367 131.058,-137.413 62.708,-89.559 -5.645,-41.685 -286.25,-165.292 -238.381,-233.651 -190.52,-302.008 21.601,-80.609 0,0 Z"
             style="fill:none;stroke:#006838;stroke-width:3;stroke-linecap:butt;stroke-linejoin:miter;stroke-miterlimit:10;stroke-dasharray:none;stroke-opacity:1"
             id="path106"
             inkscape:connector-curvature="0" /></g><g
           id="g108"
           transform="translate(1269.2866,1384.5723)"><path
             d="M 0,0 C -27.114,74.496 -312.825,131.204 -312.821,51.931 -312.823,-27.351 -27.106,29.36 -0.002,103.866 27.112,178.351 -155.301,405.449 -206.256,344.713 -257.216,283.982 -6.33,152.72 66.761,183.423 139.859,214.129 141.653,514.274 63.6,500.51 -14.484,486.744 90.97,215.214 169.043,201.451 247.129,187.694 439.085,406.759 370.419,446.413 301.787,486.048 208.036,210.256 258.991,149.527 309.961,88.798 597.835,133.225 570.719,207.723 543.606,282.221 294.526,131.202 294.517,51.925 c 0,-79.276 249.094,-230.276 276.19,-155.789 27.116,74.493 -260.744,118.929 -311.715,58.187 -50.966,-60.719 42.787,-336.504 111.455,-296.863 68.638,39.629 -125.67,268.409 -201.405,244.944 -75.725,-23.461 -183.541,-285.282 -105.462,-299.058 78.068,-13.762 71.829,277.46 3.181,317.089 C -1.891,-39.918 -257.216,-180.131 -206.254,-240.862 -155.299,-301.591 27.117,-74.499 0,0 Z"
             style="fill:none;stroke:#006838;stroke-width:3;stroke-linecap:butt;stroke-linejoin:miter;stroke-miterlimit:10;stroke-dasharray:none;stroke-opacity:1"
             id="path110"
             inkscape:connector-curvature="0" /></g><g
           id="g112"
           transform="translate(1280.0952,1376.0693)"><path
             d="m 0,0 c -31.829,68.257 -306.916,98.268 -300.349,23.246 6.562,-75.031 272.265,2.296 291.747,75.051 C 10.892,171.033 -180.545,370.853 -223.74,309.154 -266.938,247.46 -18.636,144.007 47.994,179.116 114.631,214.229 91.478,498.43 18.749,478.941 -54.009,459.448 68.273,211.208 143.3,204.647 218.339,198.093 381.866,421.306 313.597,453.148 245.362,484.977 179.472,216.208 232.724,162.955 285.991,109.702 554.751,175.582 522.92,243.84 491.093,312.099 267.872,148.554 274.427,73.527 280.991,-1.499 529.232,-123.778 548.708,-51.042 568.203,21.702 292.097,39.922 248.887,-21.783 205.682,-83.468 317.243,-336.703 378.947,-293.502 440.625,-250.315 237.791,-49.89 168.06,-78.366 98.337,-106.839 17.98,-363.55 93.013,-370.123 168.036,-376.683 138.018,-101.592 69.77,-69.771 1.516,-37.934 -228.511,-191.77 -175.252,-245.025 -122.002,-298.279 31.832,-68.26 0,0 Z"
             style="fill:none;stroke:#006838;stroke-width:3;stroke-linecap:butt;stroke-linejoin:miter;stroke-miterlimit:10;stroke-dasharray:none;stroke-opacity:1"
             id="path114"
             inkscape:connector-curvature="0" /></g><g
           id="g116"
           transform="translate(1290.8638,1368.1553)"><path
             d="m 0,0 c -35.774,61.963 -298.597,67.588 -286.17,-2.868 12.422,-70.465 257.477,24.716 269.89,95.183 12.427,70.451 -185.291,243.706 -221.061,181.739 -35.775,-61.963 207.781,-139.31 267.932,-100.567 60.157,38.747 14.713,305.795 -52.503,281.329 -67.243,-24.473 69.037,-249.279 140.585,-249.275 71.559,0.01 207.835,224.795 140.591,249.277 C 192.052,479.291 151.949,219.477 206.754,173.487 261.575,127.5 510.471,212.101 474.695,274.064 438.922,336.028 241.209,162.769 253.626,92.307 266.05,21.848 511.106,-73.322 523.515,-2.873 c 12.427,70.458 -250.384,64.84 -286.169,2.866 -35.78,-61.955 90.767,-292.377 145.585,-246.382 54.795,45.978 -153.759,218.864 -217.392,186.14 -63.628,-32.719 -118.421,-282.32 -46.867,-282.327 71.543,0.003 20.358,257.859 -46.866,282.323 -67.23,24.48 -272.187,-140.155 -217.374,-186.145 C -90.764,-292.388 35.777,-61.964 0,0 Z"
             style="fill:none;stroke:#006838;stroke-width:3;stroke-linecap:butt;stroke-linejoin:miter;stroke-miterlimit:10;stroke-dasharray:none;stroke-opacity:1"
             id="path118"
             inkscape:connector-curvature="0" /></g><g
           id="g120"
           transform="translate(1301.4883,1360.8467)"><path
             d="m 0,0 c -38.986,55.678 -288.184,39.241 -270.59,-26.409 17.591,-65.658 241.626,44.71 247.539,112.427 5.927,67.702 -195.534,215.297 -224.257,153.691 -28.726,-61.603 208.176,-114.637 261.894,-72.99 53.723,41.65 -11.395,290.617 -72.982,261.898 -61.61,-28.728 85.977,-230.198 153.688,-224.271 67.721,5.935 178.079,229.952 112.414,247.553 -65.635,17.596 -82.076,-231.609 -26.402,-270.594 55.689,-38.983 284.237,61.69 245.248,117.369 -38.986,55.68 -211.752,-124.661 -194.167,-190.317 17.592,-65.652 257.389,-135.43 263.3,-67.73 5.926,67.709 -242.329,40.632 -271.064,-20.982 -28.732,-61.596 110.108,-269.186 158.18,-221.118 48.05,48.05 -163.637,194.398 -221.15,158.16 -57.507,-36.233 -88.695,-276.988 -20.977,-271.07 67.707,5.926 -2.084,245.72 -67.73,263.306 C 7.292,-33.478 -173.045,-206.255 -117.363,-245.241 -61.688,-284.227 38.989,-55.68 0,0 Z"
             style="fill:none;stroke:#006838;stroke-width:3;stroke-linecap:butt;stroke-linejoin:miter;stroke-miterlimit:10;stroke-dasharray:none;stroke-opacity:1"
             id="path122"
             inkscape:connector-curvature="0" /></g><g
           id="g124"
           transform="translate(1312.7749,1354.7324)"><path
             d="m 0,0 c -41.506,49.464 -275.982,13.276 -253.896,-47.397 22.084,-60.682 224.97,62.319 224.959,126.894 0.003,64.564 -202.877,187.565 -224.959,126.883 C -275.981,145.702 -47.39,115.126 0,158.988 47.394,202.853 -34.846,433.08 -90.753,400.801 -146.683,368.513 9.673,190.064 73.263,201.28 c 63.599,11.224 149.491,232.368 85.89,243.588 -63.572,11.218 -58.499,-225.987 -2.582,-258.272 55.931,-32.282 263.89,81.917 222.381,131.382 C 337.447,367.445 188.875,182.468 210.954,121.789 233.038,61.113 465.756,14.932 465.745,79.49 465.747,144.061 233.044,97.88 210.952,37.189 188.859,-23.482 337.444,-208.447 378.958,-158.976 420.454,-109.523 208,11.45 156.57,-27.605 c -51.424,-39.053 -61.006,-269.482 2.592,-258.274 63.586,11.213 -22.318,232.372 -85.9,243.58 C 9.672,-31.079 -146.69,-209.524 -90.765,-241.81 -34.848,-274.095 41.508,-49.467 0,0 Z"
             style="fill:none;stroke:#006838;stroke-width:3;stroke-linecap:butt;stroke-linejoin:miter;stroke-miterlimit:10;stroke-dasharray:none;stroke-opacity:1"
             id="path126"
             inkscape:connector-curvature="0" /></g><g
           id="g128"
           transform="translate(1324.543,1349.75)"><path
             d="m 0,0 c -43.376,43.376 -262.285,-10.285 -236.359,-65.878 25.924,-55.6 207.748,77.605 202.392,138.718 -5.343,61.102 -207.531,160.71 -223.404,101.454 -15.877,-59.254 202.99,-69.263 244.207,-23.83 41.221,45.438 -55.672,256.512 -105.909,221.335 C -169.33,336.61 -6.583,180.676 52.67,196.555 c 59.259,15.888 122.236,232.287 61.116,237.639 -61.093,5.354 -36.651,-218.714 18.941,-244.638 55.606,-25.92 242.96,99.375 199.58,142.751 C 288.932,375.685 163.64,188.324 189.56,132.727 215.483,77.132 439.549,52.695 434.192,113.792 428.848,174.9 212.445,111.928 196.563,52.662 180.678,-6.586 336.611,-169.331 371.804,-119.074 406.979,-68.838 195.9,28.059 150.462,-13.161 105.027,-54.378 115.039,-273.245 174.299,-257.372 233.547,-241.496 133.938,-39.307 72.836,-33.965 11.727,-28.611 -121.477,-210.436 -65.877,-236.359 -10.285,-262.284 43.378,-43.378 0,0 Z"
             style="fill:none;stroke:#006838;stroke-width:3;stroke-linecap:butt;stroke-linejoin:miter;stroke-miterlimit:10;stroke-dasharray:none;stroke-opacity:1"
             id="path130"
             inkscape:connector-curvature="0" /></g><g
           id="g132"
           transform="translate(1336.1016,1346.6455)"><path
             d="m 0,0 c -44.642,37.459 -247.371,-31.45 -218.232,-81.917 29.138,-50.471 190.184,90.646 180.055,148.039 -10.115,57.384 -209.711,134.911 -219.826,77.517 -10.12,-57.391 197.841,-48.743 233.087,-2.332 35.249,46.415 -73.926,238.149 -118.557,200.699 C -188.122,304.542 -21.189,170.443 33.572,190.377 88.338,210.32 130.021,420.331 71.735,420.336 13.474,420.344 55.158,210.314 109.916,190.382 164.687,170.456 331.621,304.545 286.976,342.004 242.334,379.465 139.273,191.776 168.407,141.305 197.544,90.838 411.619,86.264 401.492,143.641 391.374,201.03 191.788,123.517 181.663,66.113 171.536,8.727 332.584,-132.382 361.729,-81.905 390.859,-31.45 183.074,42.773 143.484,0.002 103.898,-42.767 131.495,-249.07 186.264,-229.142 241.021,-209.211 130.011,-26.109 71.744,-26.113 13.467,-26.106 -97.54,-209.211 -42.775,-229.142 11.983,-249.074 44.645,-37.46 0,0 Z"
             style="fill:none;stroke:#006838;stroke-width:3;stroke-linecap:butt;stroke-linejoin:miter;stroke-miterlimit:10;stroke-dasharray:none;stroke-opacity:1"
             id="path134"
             inkscape:connector-curvature="0" /></g><g
           id="g136"
           transform="translate(1347.355,1345.2588)"><path
             d="m 0,0 c -45.35,31.755 -231.504,-50.245 -199.749,-95.594 31.754,-45.351 172.482,101.532 158.144,155.01 -14.325,53.47 -209.637,110.314 -214.458,55.161 -4.825,-55.153 191.27,-29.749 220.783,17.091 29.515,46.845 -89.681,219.261 -128.818,180.123 -39.153,-39.152 129.932,-152.24 180.107,-128.84 50.179,23.408 72.239,225.61 17.077,220.789 C -22.052,398.924 34.787,203.605 88.26,189.276 141.744,174.954 288.625,315.675 243.272,347.43 197.921,379.186 115.927,193.026 147.678,147.673 179.431,102.325 382.408,115.72 368.073,169.183 353.746,222.658 171.278,132.774 166.45,77.61 161.617,22.462 325.713,-97.747 349.116,-47.563 372.507,2.599 169.717,55.64 135.792,11.883 101.869,-31.87 145.068,-224.828 195.25,-201.433 245.42,-178.037 125.203,-13.944 70.059,-18.772 14.907,-23.591 -74.988,-206.069 -21.51,-220.396 31.963,-234.728 45.353,-31.754 0,0 Z"
             style="fill:none;stroke:#006838;stroke-width:3;stroke-linecap:butt;stroke-linejoin:miter;stroke-miterlimit:10;stroke-dasharray:none;stroke-opacity:1"
             id="path138"
             inkscape:connector-curvature="0" /></g><g
           id="g140"
           transform="translate(1357.4863,1344.958)"><path
             d="m 0,0 c -45.547,26.297 -214.932,-66.72 -181.125,-107.007 33.807,-40.292 154.828,110.369 136.831,159.793 -17.984,49.417 -207.531,87.042 -207.527,34.446 0,-52.595 183.478,-12.317 207.531,34.456 24.054,46.776 -103.027,200.079 -136.826,159.799 C -214.928,241.192 -45.544,148.168 0.002,174.467 45.553,200.775 49.688,393.962 -2.117,384.833 -53.899,375.71 16.063,195.569 67.856,186.436 119.658,177.31 247.014,322.648 201.462,348.945 155.914,375.243 93.729,192.276 127.534,151.983 161.339,111.695 352.324,141.179 334.33,190.588 316.344,240.009 151.101,139.837 151.1,87.231 151.092,34.64 316.344,-65.538 334.336,-16.106 352.32,33.303 156.011,66.708 127.527,22.489 99.046,-21.727 155.905,-200.763 201.459,-174.467 247.003,-148.172 119.645,-2.83 67.856,-11.966 16.061,-21.092 -53.906,-201.229 -2.108,-210.361 49.685,-219.496 45.55,-26.296 0,0 Z"
             style="fill:none;stroke:#006838;stroke-width:3;stroke-linecap:butt;stroke-linejoin:miter;stroke-miterlimit:10;stroke-dasharray:none;stroke-opacity:1"
             id="path142"
             inkscape:connector-curvature="0" /></g><g
           id="g144"
           transform="translate(1366.501,1345.6348)"><path
             d="m 0,0 c -45.283,21.115 -197.884,-80.938 -162.554,-116.267 35.33,-35.333 137.388,117.272 116.263,162.555 -21.11,45.279 -203.61,65.192 -199.252,15.416 4.355,-49.775 174.661,3.535 193.552,49.793 18.891,46.259 -114.07,180.821 -142.721,139.902 -28.663,-40.935 139.341,-114.946 180.269,-86.286 40.93,28.669 28.848,211.841 -19.424,198.911 -48.251,-12.92 32.876,-177.61 82.649,-181.966 49.78,-4.348 158.274,143.743 112.987,164.859 -45.284,21.117 -88.985,-157.19 -53.656,-192.523 35.327,-35.329 213.632,8.387 192.511,53.657 C 279.511,253.333 131.421,144.85 135.776,95.064 140.122,45.292 304.81,-35.832 317.744,12.439 330.674,60.688 142.123,76.049 118.828,31.843 95.534,-12.361 164.169,-177.091 205.103,-148.433 246.028,-119.776 113.464,7.228 65.209,-5.706 16.946,-18.632 -34.354,-194.904 15.422,-199.258 65.194,-203.614 45.285,-21.115 0,0 Z"
             style="fill:none;stroke:#006838;stroke-width:3;stroke-linecap:butt;stroke-linejoin:miter;stroke-miterlimit:10;stroke-dasharray:none;stroke-opacity:1"
             id="path146"
             inkscape:connector-curvature="0" /></g><g
           id="g148"
           transform="translate(1374.8442,1346.5195)"><path
             d="m 0,0 c -44.603,16.234 -180.573,-92.983 -144.211,-123.492 36.36,-30.513 120.312,122.359 96.569,163.466 -23.727,41.103 -198.091,44.838 -189.845,-1.909 8.243,-46.746 165.004,17.808 179.052,63.149 14.048,45.344 -122.926,161.682 -146.653,120.584 -23.737,-41.112 141.388,-97.246 177.748,-66.734 36.362,30.521 9.761,202.872 -34.852,186.64 -44.594,-16.224 45.82,-165.367 93.284,-165.368 47.471,0.007 137.887,149.142 93.28,165.375 C 79.768,357.947 53.173,185.582 89.533,155.068 125.892,124.558 291.016,180.693 267.28,221.788 243.549,262.894 112.381,147.965 120.625,101.209 128.86,54.465 291.434,-8.674 299.678,38.081 307.919,84.814 128.207,83.739 109.821,39.974 91.436,-3.788 170.03,-154.003 206.396,-123.492 242.754,-92.984 106.783,16.235 62.185,-0.001 17.581,-16.229 -16.375,-187.299 31.093,-187.298 78.558,-187.3 44.605,-16.233 0,0 Z"
             style="fill:none;stroke:#006838;stroke-width:3;stroke-linecap:butt;stroke-linejoin:miter;stroke-miterlimit:10;stroke-dasharray:none;stroke-opacity:1"
             id="path150"
             inkscape:connector-curvature="0" /></g><g
           id="g152"
           transform="translate(1382.4961,1347.5781)"><path
             d="m 0,0 c -43.556,11.671 -163.193,-102.949 -126.255,-128.812 36.938,-25.866 103.731,125.761 77.858,162.698 -25.858,36.934 -191.183,26.033 -179.509,-17.525 11.671,-43.557 154.682,30.515 164.223,74.588 9.541,44.076 -129.721,142.835 -148.774,101.977 C -231.517,152.052 -70.598,112.6 -38.713,144.487 -6.828,176.382 -46.272,337.29 -87.15,318.234 -128.009,299.188 -30.095,165.528 14.825,169.456 59.75,173.394 132.97,322.019 89.41,333.688 45.854,345.36 34.957,180.034 71.893,154.167 108.829,128.304 260.452,195.101 234.586,232.027 208.725,268.964 94.104,149.337 105.778,105.771 117.441,62.214 276.526,15.922 280.458,60.852 284.388,105.762 114.399,89.864 100.623,46.924 86.847,3.985 173.664,-131.668 205.555,-99.781 237.438,-67.899 99.714,24.206 58.851,5.147 17.981,-13.904 0.011,-178.612 44.934,-174.682 89.854,-170.753 43.558,-11.67 0,0 Z"
             style="fill:none;stroke:#006838;stroke-width:3;stroke-linecap:butt;stroke-linejoin:miter;stroke-miterlimit:10;stroke-dasharray:none;stroke-opacity:1"
             id="path154"
             inkscape:connector-curvature="0" /></g><g
           id="g156"
           transform="translate(1390.043,1349.165)"><path
             d="m 0,0 c -42.188,7.438 -145.919,-110.941 -108.821,-132.358 37.1,-21.422 87.757,127.606 60.213,160.421 -27.53,32.812 -183.088,8.807 -168.434,-31.449 14.652,-40.256 143.863,41.686 149.243,84.186 5.38,42.503 -134.593,124.436 -149.241,84.191 -14.653,-40.26 140.904,-64.273 168.439,-31.455 27.535,32.825 -23.118,181.839 -60.226,160.42 C -145.918,272.548 -42.187,154.162 0,161.599 42.189,169.044 99.179,315.764 56.988,323.201 14.8,330.641 18.176,173.276 55.273,151.854 92.371,130.436 230.334,206.206 202.797,239.01 175.264,271.826 76.693,149.123 91.35,108.859 105.993,68.603 260.383,37.964 260.383,80.811 260.384,123.639 100.825,94.518 91.343,52.74 81.86,10.962 175.255,-110.229 202.795,-77.412 230.329,-44.6 92.363,31.165 55.269,9.744 18.168,-11.67 14.799,-169.035 56.988,-161.596 99.175,-154.157 42.188,-7.438 0,0 Z"
             style="fill:none;stroke:#006838;stroke-width:3;stroke-linecap:butt;stroke-linejoin:miter;stroke-miterlimit:10;stroke-dasharray:none;stroke-opacity:1"
             id="path158"
             inkscape:connector-curvature="0" /></g><g
           id="g160"
           transform="translate(1397.417,1351.208)"><path
             d="m 0,0 c -40.542,3.547 -128.91,-117.075 -92.028,-134.272 36.885,-17.203 72.486,128.031 43.703,156.805 -28.771,28.774 -174.002,-6.824 -156.8,-43.708 17.2,-36.885 132.699,51.363 134.271,92.029 1.572,40.67 -137.68,106.62 -148.21,67.321 -10.535,-39.316 138.671,-49.161 162.012,-15.823 23.341,33.345 -36.934,170.175 -70.279,146.833 -33.331,-23.331 74.642,-126.782 113.951,-116.25 39.311,10.539 81.096,154.11 40.552,157.656 -40.542,3.547 -24.318,-145.1 12.564,-162.302 36.883,-17.198 161.175,65.932 132.399,94.698 C 143.36,271.764 60.234,147.478 77.438,110.585 94.63,73.7 243.278,57.487 239.731,98.037 236.187,138.569 87.594,97.799 82.078,57.476 76.563,17.151 174.985,-89.809 198.332,-56.471 221.673,-23.138 84.831,37.142 51.498,13.798 18.16,-9.54 28.002,-158.747 67.313,-148.213 106.622,-137.681 40.542,-3.546 0,0 Z"
             style="fill:none;stroke:#006838;stroke-width:3;stroke-linecap:butt;stroke-linejoin:miter;stroke-miterlimit:10;stroke-dasharray:none;stroke-opacity:1"
             id="path162"
             inkscape:connector-curvature="0" /></g><g
           id="g164"
           transform="translate(1404.2095,1354.1768)"><path
             d="m 0,0 c -38.662,0 -112.305,-121.472 -75.977,-134.693 36.332,-13.226 57.999,127.169 28.376,152.016 -29.61,24.85 -164.107,-20.864 -144.773,-54.346 19.332,-33.483 121.331,59.595 119.452,98.212 -1.88,38.62 -139.126,89.504 -145.838,51.44 -6.715,-38.08 135.307,-35.044 154.635,-1.561 19.33,33.491 -49.043,157.994 -78.667,133.142 -29.612,-24.84 81.137,-113.804 117.466,-100.583 36.33,13.229 63.988,152.563 25.325,152.561 -38.663,0.001 -11,-139.334 25.329,-152.56 36.329,-13.221 147.074,75.743 117.459,100.584 C 113.171,269.063 44.794,144.558 64.129,111.068 83.454,77.584 225.475,74.548 218.761,112.63 212.049,150.696 74.799,99.808 72.918,61.189 71.038,22.571 173.04,-70.505 192.374,-37.021 211.704,-3.543 77.208,42.174 47.594,17.321 17.976,-7.524 39.644,-147.917 75.975,-134.693 112.305,-121.471 38.662,0.001 0,0 Z"
             style="fill:none;stroke:#006838;stroke-width:3;stroke-linecap:butt;stroke-linejoin:miter;stroke-miterlimit:10;stroke-dasharray:none;stroke-opacity:1"
             id="path166"
             inkscape:connector-curvature="0" /></g><g
           id="g168"
           transform="translate(1410.4067,1357.9473)"><path
             d="m 0,0 c -36.589,-3.201 -96.227,-124.258 -60.751,-133.763 35.479,-9.508 44.36,125.154 14.268,146.216 -30.08,21.066 -153.581,-33.334 -132.511,-63.42 21.067,-30.087 109.891,66.447 104.915,102.837 -4.977,36.394 -139.078,73.186 -142.277,36.608 -3.203,-36.595 130.954,-21.962 146.473,11.326 15.52,33.295 -59.495,145.462 -85.474,119.489 -25.967,-25.96 86.21,-100.984 119.497,-85.463 33.287,15.528 47.925,149.68 11.335,146.478 -36.589,-3.201 1.126,-132.774 36.603,-142.284 C 47.554,128.52 144.995,221.883 114.911,242.94 84.826,264.007 30.423,140.517 51.495,110.423 72.555,80.334 207.214,89.22 197.707,124.705 188.203,160.173 62.525,100.65 63.942,63.946 65.36,27.243 169.6,-52.397 185.125,-19.108 200.647,14.176 69.577,46.305 43.608,20.333 17.635,-5.632 49.765,-136.704 83.053,-121.182 116.341,-105.66 36.589,3.201 0,0 Z"
             style="fill:none;stroke:#006838;stroke-width:3;stroke-linecap:butt;stroke-linejoin:miter;stroke-miterlimit:10;stroke-dasharray:none;stroke-opacity:1"
             id="path170"
             inkscape:connector-curvature="0" /></g><g
           id="g172"
           transform="translate(1415.5151,1362.084)"><path
             d="m 0,0 c -34.362,-6.06 -80.779,-125.563 -46.418,-131.622 34.363,-6.06 31.619,122.117 1.397,139.559 -30.212,17.445 -142.588,-44.264 -120.157,-70.992 22.429,-26.729 98.498,71.983 90.777,106.011 -7.724,34.029 -137.682,57.746 -137.682,22.864 0,-34.898 125.752,-9.942 137.684,22.847 11.931,32.794 -68.35,132.736 -90.786,106.006 -22.425,-26.718 89.949,-88.432 120.167,-70.988 30.217,17.452 32.962,145.624 -1.4,139.564 C -80.782,257.19 -34.36,137.686 0.002,131.624 34.364,125.566 118.85,221.992 88.634,239.429 58.419,256.876 17.158,135.501 39.59,108.766 62.014,82.034 188.717,101.593 176.781,134.388 164.85,167.168 50.839,100.43 55.219,65.812 59.6,31.193 164.846,-35.546 176.781,-2.757 188.715,30.028 62.012,49.582 39.586,22.854 17.156,-3.87 58.417,-125.255 88.634,-107.808 118.852,-90.362 34.363,6.059 0,0 Z"
             style="fill:none;stroke:#006838;stroke-width:3;stroke-linecap:butt;stroke-linejoin:miter;stroke-miterlimit:10;stroke-dasharray:none;stroke-opacity:1"
             id="path174"
             inkscape:connector-curvature="0" /></g><g
           id="g176"
           transform="translate(1419.5869,1366.5059)"><path
             d="m 0,0 c -32.018,-8.58 -66.052,-125.52 -33.031,-128.408 33.023,-2.89 19.812,118.187 -10.234,132.191 -30.036,14.009 -131.278,-53.696 -107.836,-77.134 23.44,-23.439 87.257,76.28 77.132,107.844 -10.127,31.565 -135.081,43.25 -132.193,10.238 2.89,-33.027 119.833,1.003 128.41,33.021 8.577,32.025 -75.675,119.961 -94.695,92.807 -19.011,-27.143 92.448,-76.244 119.602,-57.233 27.152,19.018 19.137,140.546 -12.881,131.965 -32.02,-8.579 21.808,-117.832 54.83,-120.725 C 22.125,121.68 94.098,219.931 64.059,233.931 34.019,247.941 5.019,129.657 28.462,106.212 51.896,82.771 170.188,111.771 156.176,141.82 142.171,171.854 39.798,99.255 46.81,66.855 53.821,34.456 158.951,-19.991 167.531,12.027 176.111,44.044 54.582,52.058 35.572,24.905 16.557,-2.242 65.656,-113.702 92.809,-94.688 119.962,-75.677 32.019,8.579 0,0 Z"
             style="fill:none;stroke:#006838;stroke-width:3;stroke-linecap:butt;stroke-linejoin:miter;stroke-miterlimit:10;stroke-dasharray:none;stroke-opacity:1"
             id="path178"
             inkscape:connector-curvature="0" /></g><g
           id="g180"
           transform="translate(1422.9639,1370.6973)"><path
             d="m 0,0 c -29.591,-10.771 -52.118,-124.259 -20.628,-124.258 31.491,-0.001 8.964,113.49 -20.63,124.256 -29.586,10.772 -119.794,-61.686 -95.668,-81.926 24.124,-20.242 76.262,79.414 64.067,108.448 -12.198,29.034 -131.419,29.746 -125.953,-1.256 5.469,-31.018 113.325,10.871 118.791,41.882 5.465,31.018 -81.55,107.264 -97.302,79.99 -15.744,-27.261 93.804,-64.501 117.928,-44.261 24.122,20.247 6.475,134.594 -23.116,123.823 -29.593,-10.77 30.394,-109.708 61.886,-109.712 31.489,0.002 91.468,98.944 61.88,109.707 C 11.666,237.464 -5.986,123.122 18.142,102.875 42.261,82.63 151.809,119.87 136.061,147.148 120.319,174.412 29.446,97.229 38.765,67.146 48.083,37.064 152.084,-5.759 157.554,25.254 163.022,56.264 47.346,53.787 31.604,26.516 15.854,-0.75 71.551,-102.17 95.673,-81.927 119.796,-61.687 29.592,10.771 0,0 Z"
             style="fill:none;stroke:#006838;stroke-width:3;stroke-linecap:butt;stroke-linejoin:miter;stroke-miterlimit:10;stroke-dasharray:none;stroke-opacity:1"
             id="path182"
             inkscape:connector-curvature="0" /></g><g
           id="g184"
           transform="translate(1425.6768,1374.6348)"><path
             d="m 0,0 c -27.113,-12.643 -39.036,-121.911 -9.234,-119.304 29.802,2.607 -0.913,108.149 -29.812,115.887 -28.892,7.743 -108.264,-68.298 -83.756,-85.455 24.507,-17.159 65.598,81.47 51.653,107.937 -13.948,26.468 -126.836,17.27 -119.096,-11.617 7.744,-28.901 106.349,19.671 108.954,49.472 2.604,29.808 -86.059,94.761 -98.708,67.645 -12.643,-27.103 94.116,-53.275 115.27,-32.124 21.152,21.159 -5.016,127.915 -32.129,115.271 -27.115,-12.643 37.849,-101.31 67.652,-98.706 29.802,2.609 78.371,101.213 49.478,108.949 C -8.622,225.699 -15.859,116.025 8.65,98.861 33.153,81.699 133.744,126.013 116.582,150.524 99.427,175.023 19.817,94.455 31.126,66.756 42.436,39.059 144.406,7.143 147.015,36.945 149.623,66.746 40.354,54.823 27.713,27.711 15.066,0.604 76.173,-90.768 97.326,-69.612 118.479,-48.46 27.112,12.644 0,0 Z"
             style="fill:none;stroke:#006838;stroke-width:3;stroke-linecap:butt;stroke-linejoin:miter;stroke-miterlimit:10;stroke-dasharray:none;stroke-opacity:1"
             id="path186"
             inkscape:connector-curvature="0" /></g><g
           id="g188"
           transform="translate(1428.1553,1378.5566)"><path
             d="m 0,0 c -24.613,-14.21 -26.849,-118.606 1.139,-113.671 27.988,4.934 -9.819,102.275 -37.809,107.204 -27.984,4.937 -96.805,-73.6 -72.19,-87.808 24.613,-14.21 55.336,82.533 39.947,106.427 -15.392,23.894 -121.466,5.842 -111.749,-20.855 9.722,-26.71 99.018,27.422 99.016,55.841 -0.003,28.425 -89.291,82.555 -99.017,55.845 -9.721,-26.696 93.481,-42.626 111.75,-20.857 18.267,21.775 -15.338,120.641 -39.95,106.43 -24.615,-14.21 44.207,-92.744 72.197,-87.813 C -8.678,105.68 29.123,203.019 1.14,207.948 -26.847,212.884 -24.616,108.492 0.001,94.277 24.611,80.064 116.14,130.33 97.867,152.107 79.604,173.872 10.935,91.032 23.93,65.754 36.926,40.478 136.072,18.717 136.073,47.137 136.074,75.556 33.65,55.225 23.933,28.52 14.208,1.818 79.604,-79.594 97.871,-57.821 116.14,-36.052 24.612,14.21 0,0 Z"
             style="fill:none;stroke:#006838;stroke-width:3;stroke-linecap:butt;stroke-linejoin:miter;stroke-miterlimit:10;stroke-dasharray:none;stroke-opacity:1"
             id="path190"
             inkscape:connector-curvature="0" /></g><g
           id="g192"
           transform="translate(1430.3936,1382.4209)"><path
             d="m 0,0 c -22.117,-15.485 -15.589,-114.47 10.489,-107.481 26.079,6.985 -17.76,95.977 -44.657,98.326 -26.893,2.354 -85.521,-77.67 -61.05,-89.078 24.47,-11.412 45.535,82.689 28.993,104.029 -16.544,21.338 -115.437,-4.529 -104.03,-28.99 11.412,-24.474 91.439,34.15 89.084,61.045 -2.357,26.901 -91.34,70.735 -98.332,44.652 -6.99,-26.069 91.998,-32.6 107.485,-10.485 15.484,22.12 -24.505,112.902 -46.621,97.415 -22.118,-15.485 49.517,-84.111 75.597,-77.126 26.079,6.989 53.793,102.239 26.903,104.587 -26.895,2.354 -16.141,-96.257 8.334,-107.671 24.467,-11.414 106.927,43.736 87.83,62.832 C 60.94,171.141 2.811,87.057 17.202,64.21 31.594,41.366 127.227,28.979 124.875,55.877 122.523,82.772 27.273,55.051 20.288,28.973 13.295,2.897 81.927,-68.734 97.411,-46.617 112.897,-24.502 22.116,15.486 0,0 Z"
             style="fill:none;stroke:#006838;stroke-width:3;stroke-linecap:butt;stroke-linejoin:miter;stroke-miterlimit:10;stroke-dasharray:none;stroke-opacity:1"
             id="path194"
             inkscape:connector-curvature="0" /></g><g
           id="g196"
           transform="translate(1432.1572,1386.5488)"><path
             d="m 0,0 c -19.649,-16.486 -5.276,-109.623 18.826,-100.851 24.103,8.77 -24.754,89.362 -50.405,89.357 -25.645,0.002 -74.504,-80.586 -50.4,-89.357 24.103,-8.773 36.247,82.027 18.825,100.852 -17.424,18.825 -108.872,-13.844 -96.052,-36.049 12.826,-22.216 83.708,39.89 79.252,65.149 -4.457,25.263 -92.298,59.38 -96.756,34.116 -4.457,-25.25 89.765,-23.235 102.59,-1.024 12.823,22.217 -32.539,104.82 -52.186,88.332 -19.651,-16.486 53.826,-75.501 77.929,-66.732 24.102,8.774 42.443,101.212 16.801,101.207 -25.648,0.002 -7.306,-92.432 16.802,-101.208 24.1,-8.775 97.573,50.245 77.92,66.736 C 43.503,167.011 -4.549,82.622 10.963,62.191 26.475,41.763 118.006,37.959 113.554,63.22 109.101,88.479 21.254,54.357 16.802,29.099 12.343,3.842 83.226,-58.266 96.049,-36.052 108.873,-13.841 19.648,16.487 0,0 Z"
             style="fill:none;stroke:#006838;stroke-width:3;stroke-linecap:butt;stroke-linejoin:miter;stroke-miterlimit:10;stroke-dasharray:none;stroke-opacity:1"
             id="path198"
             inkscape:connector-curvature="0" /></g><g
           id="g200"
           transform="translate(1433.4717,1390.8682)"><path
             d="m 0,0 c -17.231,-17.23 4.083,-104.183 26.167,-93.885 22.083,10.295 -30.826,82.521 -55.101,80.392 -24.271,-2.121 -63.837,-82.434 -40.3,-88.739 23.537,-6.307 27.512,80.63 9.465,97.003 -18.047,16.374 -101.888,-22.116 -87.917,-42.068 13.978,-19.963 75.918,44.682 69.609,68.217 -6.31,23.54 -92.267,48.555 -94.394,24.276 -2.126,-24.265 86.876,-14.557 97.175,7.525 10.296,22.088 -39.473,96.506 -56.702,79.276 -17.232,-17.229 57.191,-66.997 79.276,-56.702 22.083,10.299 31.788,99.299 7.52,97.172 -24.273,-2.122 0.74,-88.081 24.282,-94.39 23.534,-6.31 88.181,55.629 68.216,69.609 C 27.342,161.658 -11.146,77.815 5.225,59.764 21.597,41.716 108.535,45.694 102.23,69.232 95.925,92.768 15.612,53.202 13.491,28.929 11.363,4.657 83.587,-48.251 93.884,-26.167 104.182,-4.085 17.229,17.229 0,0 Z"
             style="fill:none;stroke:#006838;stroke-width:3;stroke-linecap:butt;stroke-linejoin:miter;stroke-miterlimit:10;stroke-dasharray:none;stroke-opacity:1"
             id="path202"
             inkscape:connector-curvature="0" /></g><g
           id="g204"
           transform="translate(1434.04,1395.1035)"><path
             d="m 0,0 c -14.881,-17.733 12.49,-98.259 32.537,-86.685 20.047,11.573 -36.006,75.544 -58.803,71.52 -22.794,-4.018 -53.589,-83.3 -30.792,-87.318 22.798,-4.021 19.361,78.585 0.927,92.587 -18.436,14 -94.595,-29.367 -79.721,-47.093 14.881,-17.735 68.148,48.572 60.229,70.323 -7.921,21.755 -91.34,38.312 -91.343,15.159 -0.003,-23.14 83.424,-6.583 91.341,15.168 7.916,21.755 -45.347,88.063 -60.225,70.33 -14.882,-17.733 59.672,-58.67 79.721,-47.098 20.046,11.575 21.861,96.607 -0.929,92.585 -22.796,-4.019 7.993,-83.297 30.795,-87.319 22.795,-4.023 78.847,59.947 58.795,71.525 C 12.491,155.254 -16.992,72.721 -0.004,56.993 16.984,41.268 98.933,52.231 91.018,73.985 83.101,95.737 10.37,51.643 10.373,28.496 10.368,5.349 83.101,-38.742 91.017,-16.99 98.935,4.761 14.878,17.732 0,0 Z"
             style="fill:none;stroke:#006838;stroke-width:3;stroke-linecap:butt;stroke-linejoin:miter;stroke-miterlimit:10;stroke-dasharray:none;stroke-opacity:1"
             id="path206"
             inkscape:connector-curvature="0" /></g><g
           id="g208"
           transform="translate(1433.9258,1399.2178)"><path
             d="m 0,0 c -12.615,-18.015 19.956,-91.956 37.97,-79.343 18.013,12.612 -40.33,68.513 -61.572,62.817 -21.239,-5.691 -43.819,-83.271 -21.911,-85.187 21.908,-1.917 11.816,75.975 -6.79,87.699 -18.607,11.723 -87.092,-35.624 -71.547,-51.168 15.551,-15.551 60.473,51.611 51.177,71.539 -9.297,19.934 -89.615,28.696 -87.701,6.785 1.913,-21.901 79.497,0.675 85.189,21.917 5.689,21.244 -50.208,79.587 -62.82,61.572 -12.616,-18.014 61.33,-50.583 79.346,-37.972 18.013,12.614 12.691,93.237 -8.545,87.544 -21.241,-5.69 14.461,-78.169 36.374,-80.088 21.906,-1.92 69.656,63.262 49.721,72.558 C -1.034,147.965 -22.102,67.415 -4.723,53.937 12.656,40.461 89.304,57.622 80.012,77.555 70.718,97.484 5.538,49.732 7.458,27.827 9.369,5.921 81.853,-29.784 87.543,-8.544 93.236,12.697 12.612,18.014 0,0 Z"
             style="fill:none;stroke:#006838;stroke-width:3;stroke-linecap:butt;stroke-linejoin:miter;stroke-miterlimit:10;stroke-dasharray:none;stroke-opacity:1"
             id="path210"
             inkscape:connector-curvature="0" /></g><g
           id="g212"
           transform="translate(1433.3799,1402.8867)"><path
             d="m 0,0 c -10.447,-18.094 26.5,-85.374 42.503,-71.945 16.005,13.426 -43.84,61.5 -63.471,54.35 -19.63,-7.144 -34.575,-82.433 -13.683,-82.433 20.892,0 4.892,72.88 -13.687,82.435 -18.58,9.553 -79.473,-40.925 -63.475,-54.348 16.005,-13.431 52.958,53.849 42.51,71.94 -10.449,18.095 -87.186,19.737 -83.56,-0.841 3.624,-20.567 75.178,7.222 78.806,27.796 3.626,20.576 -54.105,71.162 -64.549,53.069 -10.449,-18.092 62.23,-42.793 78.236,-29.366 16.002,13.429 4.29,89.289 -15.336,82.143 -19.63,-7.144 20.159,-72.781 41.055,-72.782 20.891,-0.003 60.683,65.637 41.047,72.784 C -13.229,139.946 -26.499,61.97 -8.935,50.654 8.628,39.339 79.745,61.927 69.301,80.021 58.854,98.113 1.124,47.524 4.755,26.952 8.377,6.379 79.93,-21.41 83.558,-0.838 87.187,19.736 10.444,18.092 0,0 Z"
             style="fill:none;stroke:#006838;stroke-width:3;stroke-linecap:butt;stroke-linejoin:miter;stroke-miterlimit:10;stroke-dasharray:none;stroke-opacity:1"
             id="path214"
             inkscape:connector-curvature="0" /></g><g
           id="g216"
           transform="translate(1432.4463,1406.1113)"><path
             d="m 0,0 c -8.39,-17.988 32.148,-78.603 46.181,-64.568 14.035,14.032 -46.581,54.573 -64.568,46.181 -17.986,-8.386 -25.897,-80.877 -6.124,-79.146 19.772,1.728 -1.405,69.377 -19.779,76.882 -18.375,7.503 -71.823,-45.311 -55.571,-56.691 16.258,-11.385 45.659,55.347 34.274,71.603 -11.387,16.26 -84.146,11.461 -79.011,-7.714 5.132,-19.164 70.55,13.058 72.28,32.83 1.727,19.773 -57.096,62.868 -65.482,44.88 -8.391,-17.987 62.436,-35.346 76.472,-21.314 14.033,14.035 -3.333,84.857 -21.314,76.469 -17.987,-8.386 25.103,-67.21 44.879,-65.481 19.772,1.727 51.995,67.143 32.82,72.281 -19.165,5.136 -25.266,-69.758 -7.706,-79.013 C 4.908,37.945 70.342,65.209 58.96,81.469 47.575,97.726 -2.871,45.07 2.269,25.901 7.399,6.73 77.417,-13.645 79.147,6.126 80.877,25.897 8.386,17.987 0,0 Z"
             style="fill:none;stroke:#006838;stroke-width:3;stroke-linecap:butt;stroke-linejoin:miter;stroke-miterlimit:10;stroke-dasharray:none;stroke-opacity:1"
             id="path218"
             inkscape:connector-curvature="0" /></g><g
           id="g220"
           transform="translate(1431.4297,1409.0693)"><path
             d="m 0,0 c -6.45,-17.718 36.933,-71.726 49.051,-57.282 12.121,14.441 -48.603,47.79 -64.93,38.359 -16.327,-9.427 -17.811,-78.684 0.758,-75.41 18.568,3.273 -7.074,65.541 -25.084,71.122 -18.011,5.58 -64.221,-48.828 -47.898,-58.252 16.329,-9.428 38.628,56.159 26.507,70.602 -12.122,14.445 -80.583,3.88 -74.135,-13.842 6.443,-17.713 65.686,18.199 65.686,37.054 -0.003,18.856 -59.24,54.77 -65.687,37.052 -6.452,-17.718 62.015,-28.281 74.136,-13.84 12.119,14.444 -10.179,80.032 -26.502,70.605 -16.329,-9.426 29.322,-61.528 47.894,-58.254 18.569,3.271 43.649,67.848 25.076,71.122 -18.563,3.274 -18.136,-68.11 -0.751,-75.414 C 1.503,36.317 61.172,67.538 49.054,81.983 36.934,96.426 -6.449,42.417 0.002,24.701 6.445,6.982 74.396,-6.502 74.397,12.351 74.396,31.206 6.447,17.718 0,0 Z"
             style="fill:none;stroke:#006838;stroke-width:3;stroke-linecap:butt;stroke-linejoin:miter;stroke-miterlimit:10;stroke-dasharray:none;stroke-opacity:1"
             id="path222"
             inkscape:connector-curvature="0" /></g><g
           id="g224"
           transform="translate(1430.3447,1411.7529)"><path
             d="m 0,0 c -4.638,-17.302 40.891,-64.821 51.163,-50.149 10.275,14.67 -49.954,41.203 -64.624,30.926 -14.671,-10.273 -10.342,-75.94 6.961,-71.304 17.302,4.635 -12.122,61.442 -29.627,65.232 -17.508,3.789 -56.736,-51.528 -40.508,-59.095 16.235,-7.57 31.907,56.346 19.24,69.011 -12.668,12.667 -76.583,-3 -69.014,-19.237 7.565,-16.231 60.658,22.661 59.096,40.505 -1.563,17.845 -60.598,46.929 -65.233,29.627 -4.639,-17.303 61.032,-21.63 71.308,-6.959 10.273,14.672 -16.261,74.898 -30.928,64.625 -14.672,-10.273 32.845,-55.802 50.15,-51.166 17.303,4.633 35.692,67.824 17.843,69.386 -17.839,1.561 -11.524,-65.96 5.533,-71.434 C -1.585,34.495 52.3,68.982 39.636,81.649 26.969,94.314 -9.616,39.608 -2.044,23.376 5.521,7.142 70.945,0.007 69.386,17.849 67.823,35.693 4.634,17.302 0,0 Z"
             style="fill:none;stroke:#006838;stroke-width:3;stroke-linecap:butt;stroke-linejoin:miter;stroke-miterlimit:10;stroke-dasharray:none;stroke-opacity:1"
             id="path226"
             inkscape:connector-curvature="0" /></g><g
           id="g228"
           transform="translate(1429.0498,1414.3945)"><path
             d="m 0,0 c -2.957,-16.758 44.065,-57.96 52.571,-43.224 8.511,14.735 -50.686,34.858 -63.719,23.917 -13.034,-10.937 -3.5,-72.725 12.491,-66.904 15.991,5.819 -16.558,57.144 -33.44,59.281 -16.882,2.137 -49.427,-53.464 -33.442,-59.28 15.991,-5.82 25.531,55.966 12.495,66.904 -13.039,10.939 -72.229,-9.18 -63.721,-23.921 8.502,-14.733 55.528,26.469 52.574,43.227 -2.958,16.759 -61.236,39.396 -64.19,22.638 -2.957,-16.76 59.551,-15.417 68.061,-0.682 8.507,14.736 -21.59,69.536 -34.62,58.599 -13.036,-10.937 35.704,-50.091 51.698,-44.27 15.991,5.818 28.162,67.143 11.14,67.143 C -49.113,103.429 -37.546,40.05 -20.95,36.282 -4.356,32.515 43.784,69.614 30.749,80.554 17.713,91.491 -12.381,36.689 -3.871,21.954 4.634,7.217 67.141,5.881 64.187,22.638 61.231,39.396 2.953,16.758 0,0 Z"
             style="fill:none;stroke:#006838;stroke-width:3;stroke-linecap:butt;stroke-linejoin:miter;stroke-miterlimit:10;stroke-dasharray:none;stroke-opacity:1"
             id="path230"
             inkscape:connector-curvature="0" /></g><g
           id="g232"
           transform="translate(1427.5732,1416.9683)"><path
             d="m 0,0 c -1.411,-16.104 46.502,-51.205 53.332,-36.553 6.835,14.648 -50.855,28.791 -62.283,17.358 -11.43,-11.43 2.709,-69.116 17.36,-62.283 14.652,6.832 -20.402,52.709 -36.555,53.335 -16.154,0.624 -42.351,-54.69 -26.741,-58.872 15.616,-4.184 19.529,55.08 6.285,64.352 -13.244,9.272 -67.596,-14.669 -58.323,-27.914 9.266,-13.24 50.359,29.647 46.175,45.261 -4.187,15.616 -61.213,32.214 -62.622,16.11 -1.411,-16.106 57.635,-9.66 64.469,4.99 6.831,14.651 -26.19,64.021 -37.617,52.591 -11.431,-11.43 37.938,-44.449 52.592,-37.616 14.652,6.83 21.093,65.875 4.984,64.465 -16.099,-1.408 0.095,-60.43 16.113,-62.622 C -6.814,30.411 35.674,69.507 22.431,78.781 9.188,88.052 -14.754,33.696 -5.48,20.457 3.788,7.213 63.055,11.125 58.871,26.738 54.687,42.353 1.407,16.104 0,0 Z"
             style="fill:none;stroke:#006838;stroke-width:3;stroke-linecap:butt;stroke-linejoin:miter;stroke-miterlimit:10;stroke-dasharray:none;stroke-opacity:1"
             id="path234"
             inkscape:connector-curvature="0" /></g><g
           id="g236"
           transform="translate(1425.7295,1419.3105)"><path
             d="m 0,0 c -0.003,-15.357 48.247,-44.609 53.498,-30.178 5.256,14.43 -50.512,23.037 -60.38,11.272 -9.871,-11.765 8.286,-65.187 21.586,-57.507 13.3,7.679 -23.673,48.193 -39.011,47.448 -15.34,-0.747 -35.552,-55.264 -20.433,-57.93 15.125,-2.666 13.921,53.745 0.619,61.423 -13.301,7.678 -62.757,-19.479 -52.884,-31.246 9.865,-11.763 45.204,32.227 39.952,46.657 -5.255,14.433 -60.599,25.418 -60.598,10.061 -0.003,-15.358 55.344,-4.37 60.598,10.06 5.252,14.431 -30.086,58.42 -39.953,46.657 -9.872,-11.763 39.583,-38.924 52.885,-31.245 13.302,7.678 14.509,64.09 -0.62,61.422 -15.119,-2.665 5.094,-57.182 20.434,-57.93 15.339,-0.748 52.312,39.77 39.011,47.45 C 1.405,84.092 -16.754,30.668 -6.881,18.906 2.987,7.14 58.752,15.749 53.5,30.179 48.247,44.609 -0.002,15.357 0,0 Z"
             style="fill:none;stroke:#006838;stroke-width:3;stroke-linecap:butt;stroke-linejoin:miter;stroke-miterlimit:10;stroke-dasharray:none;stroke-opacity:1"
             id="path238"
             inkscape:connector-curvature="0" /></g><g
           id="g240"
           transform="translate(1423.5674,1421.4165)"><path
             d="m 0,0 c 1.268,-14.534 49.354,-38.223 53.128,-24.13 3.779,14.091 -49.711,17.62 -58.076,5.668 -8.368,-11.952 13.239,-61.006 25.19,-52.637 11.951,8.368 -26.394,43.65 -40.848,41.675 -14.456,-1.977 -29.07,-55.245 -14.541,-56.516 14.534,-1.27 8.725,52.016 -4.499,58.182 -13.225,6.164 -57.78,-23.632 -47.463,-33.95 10.311,-10.317 40.113,34.242 33.948,47.463 -6.169,13.224 -59.455,19.037 -58.183,4.504 1.269,-14.535 52.739,0.446 56.516,14.538 3.776,14.092 -33.31,52.797 -41.674,40.848 -8.369,-11.95 40.684,-33.561 52.638,-25.191 11.952,8.367 8.424,61.855 -5.673,58.077 -14.088,-3.774 9.555,-53.695 24.135,-53.133 14.578,0.563 46.214,41.969 32.991,48.137 C -5.633,79.7 -18.396,27.637 -8.078,17.323 2.235,7.005 54.297,19.769 48.133,32.991 41.966,46.213 -1.274,14.533 0,0 Z"
             style="fill:none;stroke:#006838;stroke-width:3;stroke-linecap:butt;stroke-linejoin:miter;stroke-miterlimit:10;stroke-dasharray:none;stroke-opacity:1"
             id="path242"
             inkscape:connector-curvature="0" /></g><g
           id="g244"
           transform="translate(1421.2598,1423.0898)"><path
             d="m 0,0 c 2.402,-13.649 49.872,-32.087 52.276,-18.438 2.411,13.649 -48.505,12.56 -55.43,0.556 -6.93,-12.004 17.58,-56.639 28.197,-47.728 10.618,8.909 -28.593,39.124 -42.108,36.057 -13.517,-3.067 -22.938,-54.689 -9.082,-54.689 13.86,0.001 3.95,49.949 -9.076,54.689 -13.026,4.74 -52.725,-27.148 -42.107,-36.059 10.612,-8.909 35.127,35.727 28.198,47.729 -6.933,12.004 -57.844,13.094 -55.436,-0.555 2.404,-13.65 49.874,4.789 52.282,18.438 2.407,13.65 -35.896,47.209 -42.822,35.208 -6.931,-12.002 41.281,-28.393 51.901,-19.482 10.62,8.908 2.851,59.235 -10.177,54.493 -13.02,-4.738 13.489,-50.025 27.24,-48.285 13.75,1.739 40.261,43.545 27.237,48.287 C -11.931,74.96 -19.698,24.632 -9.08,15.726 1.535,6.815 49.748,23.205 42.82,35.208 35.889,47.21 -2.409,13.649 0,0 Z"
             style="fill:none;stroke:#006838;stroke-width:3;stroke-linecap:butt;stroke-linejoin:miter;stroke-miterlimit:10;stroke-dasharray:none;stroke-opacity:1"
             id="path246"
             inkscape:connector-curvature="0" /></g><g
           id="g248"
           transform="translate(1418.8379,1424.3516)"><path
             d="m 0,0 c 3.404,-12.719 49.855,-26.236 51,-13.12 1.151,13.117 -46.944,7.87 -52.504,-4.064 -5.565,-11.934 21.327,-52.146 30.637,-42.836 9.311,9.311 -30.299,34.66 -42.836,30.639 -12.538,-4.022 -17.18,-53.656 -4.067,-52.51 13.117,1.149 -0.397,47.599 -13.118,51.006 -12.719,3.406 -47.65,-30.058 -36.862,-37.612 10.78,-7.553 30.284,36.721 22.733,47.505 -7.555,10.787 -55.826,7.603 -52.418,-5.114 3.406,-12.72 46.804,8.661 47.953,21.778 1.148,13.117 -37.88,41.705 -43.441,29.773 -5.566,-11.932 41.419,-23.451 50.732,-14.139 9.312,9.309 -2.207,56.295 -14.144,50.728 -11.93,-5.562 16.907,-46.225 29.778,-43.441 C -13.689,21.378 7.939,63.137 -4.78,66.546 -17.498,69.954 -20.681,21.681 -9.895,14.131 0.889,6.577 45.16,26.08 37.609,36.866 30.056,47.65 -3.41,12.718 0,0 Z"
             style="fill:none;stroke:#006838;stroke-width:3;stroke-linecap:butt;stroke-linejoin:miter;stroke-miterlimit:10;stroke-dasharray:none;stroke-opacity:1"
             id="path250"
             inkscape:connector-curvature="0" /></g></g></g></g></svg>